G04 ================== begin FILE IDENTIFICATION RECORD ==================*
G04 Layout Name:  E:/Projects/Ship Scales/ship_scales.brd*
G04 Film Name:    BOTTOM*
G04 File Format:  Gerber RS274X*
G04 File Origin:  Cadence Allegro -unreleased*
G04 Origin Date:  Mon Aug  8 20:11:52 2022*
G04 *
G04 Layer:  BOARD GEOMETRY/CUTOUT*
G04 Layer:  BOARD GEOMETRY/DESIGN_OUTLINE*
G04 Layer:  BOARD GEOMETRY/OUTLINE*
G04 Layer:  ETCH/BOTTOM*
G04 Layer:  PIN/BOTTOM*
G04 Layer:  VIA CLASS/BOTTOM*
G04 *
G04 Offset:    (0.0000 0.0000)*
G04 Mirror:    No*
G04 Mode:      Positive*
G04 Rotation:  0*
G04 FullContactRelief:  No*
G04 UndefLineWidth:     0.0000*
G04 ================== end FILE IDENTIFICATION RECORD ====================*
%FSLAX25Y25*MOMM*%
%IR0*IPPOS*OFA0.00000B0.00000*MIA0B0*SFA1.00000B1.00000*%
%ADD11C,.6*%
%ADD12C,.55*%
%ADD19O,2.X1.1*%
%ADD18C,1.1*%
%ADD17C,1.3*%
%ADD10C,5.*%
%ADD16C,3.5*%
%ADD15C,1.65*%
%ADD14R,1.65X1.65*%
%ADD13C,2.794*%
%ADD20C,.2*%
%ADD21C,.5*%
%ADD22C,.15*%
%ADD23C,.01*%
%ADD26C,1.2004*%
%ADD27C,4.1004*%
%ADD28C,1.1504*%
%ADD24C,1.9044*%
%ADD25C,3.0484*%
G75*
%LPD*%
G75*
G36*
G01X1000000Y-100000D02*
X1430000D01*
X1530000Y-200000D01*
Y-1280000D01*
X2240000Y-1990000D01*
X2390000D01*
X2540000Y-1840000D01*
Y-1160000D01*
X2660000Y-1040000D01*
X2930000D01*
X3490000Y-1600000D01*
X4560000D01*
X4730000Y-1770000D01*
Y-3890000D01*
X4420000Y-4200000D01*
Y-4850000D01*
X4070000Y-5200000D01*
X3340000D01*
X3260000Y-5280000D01*
Y-5580000D01*
X3650000Y-5970000D01*
X6550000D01*
X7450000Y-5070000D01*
X9544780D01*
Y-5236500D01*
G03X9557500Y-5249220I12720J0D01*
G01X9722500D01*
G03X9735220Y-5236500I0J12720D01*
G01Y-5089750D01*
G02X9752560Y-5082560I10160J2D01*
G01X9900000Y-5230000D01*
Y-9000000D01*
X9000000Y-9900000D01*
X1100000D01*
X100000Y-8900000D01*
Y-1000000D01*
X1000000Y-100000D01*
G37*
G36*
G01X1912300Y-411370D02*
X1965330Y-358340D01*
X1907000Y-298120D01*
X1848670Y-358340D01*
X1901700Y-411370D01*
G03X1912300I5300J5300D01*
G37*
G36*
G01X1658300D02*
X1711330Y-358340D01*
X1653000Y-298120D01*
X1594670Y-358340D01*
X1647700Y-411370D01*
G03X1658300I5300J5300D01*
G37*
G36*
G01X3327120Y-1234700D02*
X3311210Y-1218790D01*
X3288120Y-1240000D01*
X3311210Y-1261210D01*
X3327120Y-1245300D01*
G03Y-1234700I-5300J5300D01*
G37*
G36*
G01X4053000Y-5337500D02*
X3978000D01*
X3976670Y-5421330D01*
X4060500Y-5420000D01*
Y-5345000D01*
G03X4053000Y-5337500I-7500J0D01*
G37*
G36*
G01X4002500Y-520000D02*
X3980000D01*
X3978670Y-551330D01*
X4010000Y-550000D01*
Y-527500D01*
G03X4002500Y-520000I-7500J0D01*
G37*
G36*
G01X4561000Y-5337500D02*
X4486000D01*
X4484670Y-5421330D01*
X4568500Y-5420000D01*
Y-5345000D01*
G03X4561000Y-5337500I-7500J0D01*
G37*
G36*
G01X4307120Y-1124700D02*
X4291210Y-1108790D01*
X4268120Y-1130000D01*
X4291210Y-1151210D01*
X4307120Y-1135300D01*
G03Y-1124700I-5300J5300D01*
G37*
G36*
G01X4104700Y-1182880D02*
X4088790Y-1198790D01*
X4110000Y-1221880D01*
X4131210Y-1198790D01*
X4115300Y-1182880D01*
G03X4104700I-5300J-5300D01*
G37*
G36*
G01X5190000Y-2582500D02*
Y-2560000D01*
X5158670Y-2558670D01*
X5160000Y-2590000D01*
X5182500D01*
G03X5190000Y-2582500I0J7500D01*
G37*
G36*
G01X5127500Y-1890000D02*
X5150000D01*
X5151330Y-1858670D01*
X5120000Y-1860000D01*
Y-1882500D01*
G03X5127500Y-1890000I7500J0D01*
G37*
G36*
G01X5672120Y-2449700D02*
X5656210Y-2433790D01*
X5633120Y-2455000D01*
X5656210Y-2476210D01*
X5672120Y-2460300D01*
G03Y-2449700I-5300J5300D01*
G37*
G36*
G01X5870000Y-2330000D02*
X5850000D01*
X5848230Y-2361770D01*
X5880000Y-2360000D01*
Y-2340000D01*
G03X5870000Y-2330000I-10000J0D01*
G37*
G36*
G01X5533000Y-2034500D02*
X5555500D01*
X5556830Y-2003170D01*
X5525500Y-2004500D01*
Y-2027000D01*
G03X5533000Y-2034500I7500J0D01*
G37*
G36*
G01X5520000Y-657500D02*
Y-680000D01*
X5551330Y-681330D01*
X5550000Y-650000D01*
X5527500D01*
G03X5520000Y-657500I0J-7500D01*
G37*
G36*
G01X5510000Y-777500D02*
Y-800000D01*
X5541330Y-801330D01*
X5540000Y-770000D01*
X5517500D01*
G03X5510000Y-777500I0J-7500D01*
G37*
G36*
G01X6451570Y-2040850D02*
X6465700Y-2026700D01*
X6444500Y-2003000D01*
X6423300Y-2026700D01*
X6437430Y-2040850D01*
G03X6451570I7070J7070D01*
G37*
G36*
G01X6425350Y-862930D02*
X6411200Y-848800D01*
X6387500Y-870000D01*
X6411200Y-891200D01*
X6425350Y-877070D01*
G03Y-862930I-7070J7070D01*
G37*
G36*
G01Y-982930D02*
X6411200Y-968800D01*
X6387500Y-990000D01*
X6411200Y-1011200D01*
X6425350Y-997070D01*
G03Y-982930I-7070J7070D01*
G37*
G36*
G01X6232880Y-1465300D02*
X6248790Y-1481210D01*
X6271880Y-1460000D01*
X6248790Y-1438790D01*
X6232880Y-1454700D01*
G03Y-1465300I5300J-5300D01*
G37*
G36*
G01X5952880Y-1285300D02*
X5968790Y-1301210D01*
X5991880Y-1280000D01*
X5968790Y-1258790D01*
X5952880Y-1274700D01*
G03Y-1285300I5300J-5300D01*
G37*
G36*
G01X6497070Y-1105350D02*
X6511200Y-1091200D01*
X6490000Y-1067500D01*
X6468800Y-1091200D01*
X6482930Y-1105350D01*
G03X6497070I7070J7070D01*
G37*
G36*
G01X5962880Y-1145300D02*
X5978790Y-1161210D01*
X6001880Y-1140000D01*
X5978790Y-1118790D01*
X5962880Y-1134700D01*
G03Y-1145300I5300J-5300D01*
G37*
G36*
G01X6890000Y-5330000D02*
Y-5350000D01*
X6921770Y-5351770D01*
X6920000Y-5320000D01*
X6900000D01*
G03X6890000Y-5330000I0J-10000D01*
G37*
G36*
G01X6551500Y-2048500D02*
X6571500D01*
X6573270Y-2016730D01*
X6541500Y-2018500D01*
Y-2038500D01*
G03X6551500Y-2048500I10000J0D01*
G37*
G36*
G01X6650000Y-1660000D02*
Y-1640000D01*
X6618230Y-1638230D01*
X6620000Y-1670000D01*
X6640000D01*
G03X6650000Y-1660000I0J10000D01*
G37*
G36*
G01X7087120Y-714700D02*
X7071210Y-698790D01*
X7048120Y-720000D01*
X7071210Y-741210D01*
X7087120Y-725300D01*
G03Y-714700I-5300J5300D01*
G37*
G36*
G01X6597880Y-320300D02*
X6613790Y-336210D01*
X6636880Y-315000D01*
X6613790Y-293790D01*
X6597880Y-309700D01*
G03Y-320300I5300J-5300D01*
G37*
G36*
G01X7122930Y-5114650D02*
X7108800Y-5128800D01*
X7130000Y-5152500D01*
X7151200Y-5128800D01*
X7137070Y-5114650D01*
G03X7122930I-7070J-7070D01*
G37*
G36*
G01X7687500Y-3537500D02*
Y-3520000D01*
X7658230Y-3518230D01*
X7660000Y-3547500D01*
X7677500D01*
G03X7687500Y-3537500I0J10000D01*
G37*
G36*
G01X7670000Y-2277500D02*
Y-2300000D01*
X7701330Y-2301330D01*
X7700000Y-2270000D01*
X7677500D01*
G03X7670000Y-2277500I0J-7500D01*
G37*
G36*
G01X7660000Y-2387500D02*
Y-2410000D01*
X7691330Y-2411330D01*
X7690000Y-2380000D01*
X7667500D01*
G03X7660000Y-2387500I0J-7500D01*
G37*
G36*
G01X7725300Y-507120D02*
X7741210Y-491210D01*
X7720000Y-468120D01*
X7698790Y-491210D01*
X7714700Y-507120D01*
G03X7725300I5300J5300D01*
G37*
G36*
G01X8282930Y-4914650D02*
X8268800Y-4928800D01*
X8290000Y-4952500D01*
X8311200Y-4928800D01*
X8297070Y-4914650D01*
G03X8282930I-7070J-7070D01*
G37*
G36*
G01X7879140Y-4562500D02*
Y-4580000D01*
X7908410Y-4581770D01*
X7906640Y-4552500D01*
X7889140D01*
G03X7879140Y-4562500I0J-10000D01*
G37*
G36*
G01X9690000Y-2790000D02*
X9370000Y-3110000D01*
X8330000D01*
X8220000Y-3000000D01*
Y-2700000D01*
X8280000Y-2640000D01*
X8650000D01*
X8790000Y-2780000D01*
X9040000D01*
X9390000Y-2430000D01*
X9640000D01*
X9690000Y-2480000D01*
Y-2790000D01*
G37*
G36*
G01X8512530Y-4980000D02*
Y-5000000D01*
X8544300Y-5001770D01*
X8542530Y-4970000D01*
X8522530D01*
G03X8512530Y-4980000I0J-10000D01*
G37*
%LPC*%
G75*
G36*
G01X2500000Y-4730000D02*
X1460000D01*
X1380000Y-4650000D01*
Y-3170000D01*
X1470000Y-3080000D01*
X2520000D01*
X2610000Y-3170000D01*
Y-3310000D01*
X2990000Y-3690000D01*
X3660000D01*
X3740000Y-3770000D01*
Y-3830000D01*
X3640000Y-3930000D01*
X3270000D01*
X3070000Y-4130000D01*
X2840000D01*
X2600000Y-4370000D01*
Y-4630000D01*
X2500000Y-4730000D01*
G37*
G36*
G01X3560000Y-2710000D02*
X2700000D01*
X2620000Y-2630000D01*
Y-2510000D01*
X2800000Y-2330000D01*
X3600000D01*
X3680000Y-2410000D01*
Y-2590000D01*
X3560000Y-2710000D01*
G37*
G36*
G01X8837480Y-7378500D02*
Y-7213500D01*
G02X8867500Y-7183480I30020J0D01*
G01X9032500D01*
G02X9062520Y-7213500I0J-30020D01*
G01Y-7378500D01*
G02X9032500Y-7408520I-30020J0D01*
G01X8867500D01*
G02X8837480Y-7378500I0J30020D01*
G37*
G36*
G01Y-6828500D02*
Y-6663500D01*
G02X8867500Y-6633480I30020J0D01*
G01X9032500D01*
G02X9062520Y-6663500I0J-30020D01*
G01Y-6828500D01*
G02X9032500Y-6858520I-30020J0D01*
G01X8867500D01*
G02X8837480Y-6828500I0J30020D01*
G37*
G36*
G01X787480Y-7378500D02*
Y-7213500D01*
G02X817500Y-7183480I30020J0D01*
G01X982500D01*
G02X1012520Y-7213500I0J-30020D01*
G01Y-7378500D01*
G02X982500Y-7408520I-30020J0D01*
G01X817500D01*
G02X787480Y-7378500I0J30020D01*
G37*
G36*
G01Y-6828500D02*
Y-6663500D01*
G02X817500Y-6633480I30020J0D01*
G01X982500D01*
G02X1012520Y-6663500I0J-30020D01*
G01Y-6828500D01*
G02X982500Y-6858520I-30020J0D01*
G01X817500D01*
G02X787480Y-6828500I0J30020D01*
G37*
G36*
G01X3651310Y-3298870D02*
G03X3668690I8690J5273D01*
G02X3771310I51310J-31119D01*
G03X3788690I8690J5273D01*
G02X3840000Y-3269980I51310J-31119D01*
G02Y-3390020I0J-60020D01*
G02X3788690Y-3361130I0J60009D01*
G03X3771310I-8690J-5273D01*
G02X3668690I-51310J31119D01*
G03X3651310I-8690J-5273D01*
G02X3600000Y-3390020I-51310J31119D01*
G02Y-3269980I0J60020D01*
G02X3651310Y-3298870I0J-60009D01*
G37*
G36*
G01Y-1928870D02*
G03X3668690I8690J5273D01*
G02X3771310I51310J-31119D01*
G03X3788690I8690J5273D01*
G02X3840000Y-1899980I51310J-31119D01*
G02Y-2020020I0J-60020D01*
G02X3788690Y-1991130I0J60009D01*
G03X3771310I-8690J-5273D01*
G02X3668690I-51310J31119D01*
G03X3651310I-8690J-5273D01*
G02X3600000Y-2020020I-51310J31119D01*
G02Y-1899980I0J60020D01*
G02X3651310Y-1928870I0J-60009D01*
G37*
G54D26*
X3050000Y-3360000D03*
X2955000Y-1965000D03*
X8840000Y-5740000D03*
X597470Y-5612530D03*
X3750000Y-1690000D03*
X8493300Y-2890000D03*
G54D27*
X2080000Y-9670000D03*
X7910000D03*
Y-5420000D03*
X2080000D03*
G54D28*
X710000Y-7940000D03*
X8830000Y-7950000D03*
X4450000Y-1820000D03*
X4560000Y-3280000D03*
G54D24*
X1399000Y-300000D03*
X900000Y-7000000D03*
Y-7550000D03*
X8950000Y-7000000D03*
Y-7550000D03*
G54D25*
X305000Y-1760000D03*
%LPD*%
G75*
G54D10*
X300000Y-9700000D03*
Y-300000D03*
X9700000Y-9700000D03*
Y-300000D03*
G54D20*
G01X3470000Y-5420000D02*
X3790000Y-5740000D01*
X6530000D01*
X6680000Y-5590000D01*
Y-5260000D01*
X6444500Y-5024500D01*
Y-2005500D01*
G01X5850000Y-2360000D02*
X6110000Y-2100000D01*
Y-1750000D01*
X6490000Y-1370000D01*
Y-1070000D01*
G01X8542530Y-5000000D02*
X8430000Y-4887470D01*
Y-4349990D01*
X8140000Y-4059990D01*
Y-2380000D01*
X6630000Y-870000D01*
X6390000D01*
G01X8290000Y-4950000D02*
Y-4480000D01*
X7880000Y-4070000D01*
Y-2270000D01*
X6600000Y-990000D01*
X6390000D01*
G01X6571500Y-2018500D02*
X6530000Y-2060000D01*
Y-4960000D01*
X6920000Y-5350000D01*
G01X7130000Y-5150000D02*
Y-2460000D01*
X6690000Y-2020000D01*
Y-1710000D01*
X6620000Y-1640000D01*
G01X7906640Y-4580000D02*
X7780000Y-4453360D01*
Y-3640000D01*
X7660000Y-3520000D01*
G54D11*
X200000Y-8610000D03*
Y-8110000D03*
Y-7110000D03*
Y-7610000D03*
Y-6610000D03*
Y-6110000D03*
Y-5610000D03*
Y-4610000D03*
Y-5110000D03*
Y-4110000D03*
Y-3610000D03*
Y-2110000D03*
Y-2610000D03*
X180000Y-1040000D03*
X190000Y-1370000D03*
X520000Y-9070000D03*
X597470Y-5612530D03*
X830000Y-4920000D03*
X850000Y-370000D03*
X640000Y-560000D03*
X420000Y-780000D03*
X990000Y-9520000D03*
X1270000Y-5370000D03*
X1050000Y-180000D03*
X1560000Y-9730000D03*
X2100000Y-7920000D03*
X1830000Y-4920000D03*
X1940000Y-2450000D03*
X2560000Y-9730000D03*
X2710000Y-2600000D03*
X2700000Y-1770000D03*
X2712000Y-1262000D03*
X2743000Y-453000D03*
X3100000Y-7920000D03*
X2850000Y-5340000D03*
X2830000Y-4920000D03*
X3050000Y-3360000D03*
X2810000Y-3300000D03*
X3050000Y-3180000D03*
X3200000D03*
X2900000D03*
X2960000Y-2650000D03*
X2955000Y-1965000D03*
X3310000Y-1810000D03*
X3400000D03*
X3020000Y-1770000D03*
X2860000D03*
X3290000Y-1240000D03*
X3560000Y-9730000D03*
X3830000Y-4920000D03*
X3600000Y-3330000D03*
X3720000D03*
X3840000D03*
X3572000Y-3838000D03*
X3620000Y-2860000D03*
X3564000Y-2464000D03*
X3610000Y-2570000D03*
X3720000Y-1960000D03*
X3840000D03*
X3600000D03*
X3750000Y-1690000D03*
X3727000Y-1290000D03*
X3980000Y-550000D03*
X4560000Y-9730000D03*
X4100000Y-7920000D03*
X4057470Y-3032530D03*
X4172000Y-1532000D03*
X4270000Y-1740000D03*
Y-1130000D03*
X4110000Y-1220000D03*
X4297000Y-453000D03*
X4330000Y-140000D03*
X5100000Y-7920000D03*
X5160000Y-2560000D03*
X5150000Y-1860000D03*
X4820000Y-210000D03*
X4740000D03*
X4870000Y-540000D03*
X4930000Y-450000D03*
X4780000Y-140000D03*
X5560000Y-9730000D03*
X5635000Y-2455000D03*
X5850000Y-2360000D03*
X5555500Y-2004500D03*
X5428500Y-1661500D03*
X5900000Y-1010000D03*
X5720000D03*
X5900000Y-820000D03*
X5720000D03*
X5900000Y-640000D03*
X5720000D03*
X5550000Y-680000D03*
X5540000Y-800000D03*
X5310000Y-130000D03*
X6100000Y-7920000D03*
X6270000Y-1460000D03*
X6444500Y-2005500D03*
X6390000Y-870000D03*
Y-990000D03*
X5990000Y-1280000D03*
X6080000Y-1010000D03*
Y-820000D03*
X6490000Y-1070000D03*
X6000000Y-1140000D03*
X6080000Y-640000D03*
X6560000Y-9730000D03*
X7100000Y-7920000D03*
X6920000Y-5350000D03*
X7130000Y-5150000D03*
X6820000Y-4610000D03*
X6790000Y-5050000D03*
X6820000Y-4090000D03*
Y-4440000D03*
X6680000Y-4530000D03*
X6820000Y-4270000D03*
X6680000Y-4180000D03*
Y-4360000D03*
X6820000Y-3350000D03*
X6940000Y-3570000D03*
X6720000D03*
X7010000Y-3210000D03*
Y-2940000D03*
X6571500Y-2018500D03*
X6620000Y-1640000D03*
X7050000Y-720000D03*
X6635000Y-315000D03*
X6700000Y-130000D03*
X7560000Y-9730000D03*
X7340000Y-3350000D03*
X7220000Y-3570000D03*
X7420000Y-3810000D03*
X7200000Y-3090000D03*
X7690000Y-2700000D03*
X7750000Y-2980000D03*
X7510000Y-3140000D03*
X7700000Y-2300000D03*
X7690000Y-2410000D03*
X7610000Y-1660000D03*
X7360000Y-1135000D03*
X7440000D03*
X7720000Y-1070000D03*
Y-470000D03*
X8100000Y-7920000D03*
X8290000Y-4950000D03*
X8260000Y-2100000D03*
X8240000Y-1570000D03*
X8260000Y-1950000D03*
X8250000Y-1790000D03*
X7940000Y-1740000D03*
X8096020Y-940000D03*
X8070000Y-1260000D03*
X8320000Y-960000D03*
X8560000Y-9730000D03*
X8840000Y-5740000D03*
X8542530Y-5000000D03*
X8800000Y-3450000D03*
X8740000Y-3560000D03*
X8810000Y-3530000D03*
X8493300Y-2890000D03*
X8850000Y-2670000D03*
X8940000D03*
X8840000Y-2560000D03*
X8940000D03*
X8920000Y-2470000D03*
X8652500Y-1802500D03*
X8570000Y-760000D03*
X8960000D03*
X9350000Y-9380000D03*
X9160000Y-3970000D03*
X9087300D03*
X9770000Y-8880000D03*
Y-7880000D03*
Y-6880000D03*
Y-5880000D03*
X9800000Y-3110000D03*
Y-3220000D03*
X9720000Y-1740000D03*
Y-1500000D03*
G54D21*
G01X2315000Y-1760000D02*
Y-1165000D01*
X2560000Y-920000D01*
X6140000D01*
X6310000Y-750000D01*
X6684800D01*
X7037400Y-1102600D01*
G01X7970000Y-870000D02*
X7920000Y-920000D01*
X7322600D01*
X7140000Y-1102600D01*
G01X8820000Y-4740000D02*
X8900000D01*
G01X8820000D02*
Y-4513000D01*
X9620000Y-3713000D01*
G54D12*
G01X147500Y-1760000D02*
X305000D01*
G01X799700Y-7550000D02*
X900000D01*
G01X799700Y-7000000D02*
X900000D01*
G01X305000Y-1917500D02*
Y-1760000D01*
G01D02*
Y-1602500D01*
G01Y-1760000D02*
X462500D01*
G01X900000Y-7650300D02*
Y-7550000D01*
G01D02*
Y-7449700D01*
G01Y-7550000D02*
X1000300D01*
G01X900000Y-7100300D02*
Y-7000000D01*
G01D02*
Y-6899700D01*
G01Y-7000000D02*
X1000300D01*
G01X1399000Y-400300D02*
Y-300000D01*
G01D02*
Y-199700D01*
G01X1298700Y-300000D02*
X1399000D01*
G01D02*
X1499300D01*
G01X8950000Y-7100300D02*
Y-7000000D01*
G01Y-7650300D02*
Y-7550000D01*
G01D02*
Y-7449700D01*
G01X8849700Y-7550000D02*
X8950000D01*
G01D02*
X9050300D01*
G01X8950000Y-7000000D02*
Y-6899700D01*
G01X8849700Y-7000000D02*
X8950000D01*
G01D02*
X9050300D01*
G01X9539700Y-5154000D02*
X9640000D01*
G01Y-5254300D02*
Y-5154000D01*
G01D02*
X9740300D01*
X255000Y-6425000D03*
X445000Y-8775000D03*
X710000Y-7940000D03*
X1355000Y-8785000D03*
X1545000Y-6425000D03*
X1930000Y-930000D03*
X2070000D03*
X2965340Y-3990000D03*
X2960000Y-3890000D03*
Y-2520000D03*
X4597470Y-4412530D03*
X4570000Y-3510000D03*
X4560000Y-3730000D03*
Y-3280000D03*
X4500000Y-2080000D03*
X4520000Y-2287160D03*
X4450000Y-1820000D03*
X4310000Y-830000D03*
X4577470Y-695920D03*
X5190000Y-3380000D03*
Y-3040000D03*
X5650000Y-2910000D03*
X6290000Y-2900000D03*
X5970000Y-2910000D03*
X7037400Y-1102600D03*
X7140000D03*
X7090000Y-180000D03*
X7660000Y-3520000D03*
X7272530Y-2130000D03*
Y-2270000D03*
X8320000Y-8625000D03*
X7906640Y-4580000D03*
X7960000Y-4470000D03*
X8039050Y-3740000D03*
X7955890Y-3390000D03*
X8260000Y-2730000D03*
X8340000D03*
X7970000Y-870000D03*
X8250000Y-210000D03*
Y-280000D03*
X8830000Y-7950000D03*
X8750000Y-6425000D03*
X8660000Y-4760000D03*
X8820000Y-4740000D03*
X8900000D03*
X8410000Y-2780000D03*
X8970000Y-2220000D03*
X8760000Y-1050000D03*
X8761250Y-951250D03*
X9635000Y-8625000D03*
X9645000Y-6425000D03*
X9440000Y-2690000D03*
X9640000Y-2300000D03*
X9430000Y-2120000D03*
X9390000Y-2190000D03*
X9500000Y-2150000D03*
X9530000Y-2650000D03*
X9590000Y-2500000D03*
X9350000Y-1490000D03*
X9390000Y-2050000D03*
X9500000D03*
X9410000Y-1030000D03*
X9490000D03*
X9780000Y-880000D03*
X9830000Y-950000D03*
X9730000D03*
Y-1030000D03*
X9830000D03*
G54D22*
G01X5550000Y-680000D02*
X5503730Y-633730D01*
X1963730D01*
X1907000Y-577000D01*
Y-300000D01*
G01X5540000Y-800000D02*
X5501530Y-761530D01*
X1761530D01*
X1653000Y-653000D01*
Y-300000D01*
G01X6270000Y-1460000D02*
X3750000D01*
X3530000Y-1240000D01*
X3290000D01*
G01X3978000Y-5420000D02*
X4810000Y-4588000D01*
Y-2200000D01*
X5150000Y-1860000D01*
G01X6635000Y-315000D02*
X4215000D01*
X3980000Y-550000D01*
G01X4486000Y-5420000D02*
X4920000Y-4986000D01*
Y-2640000D01*
X5555500Y-2004500D01*
G01X4270000Y-1130000D02*
X4750000D01*
X4900000Y-1280000D01*
X5990000D01*
G01X4110000Y-1220000D02*
Y-1149800D01*
X4229800Y-1030000D01*
X5400000D01*
X5510000Y-1140000D01*
X6000000D01*
G01X5160000Y-2560000D02*
X5230000Y-2630000D01*
X6200000D01*
X6310000Y-2520000D01*
Y-1820000D01*
X6590000Y-1540000D01*
X6820000D01*
X7690000Y-2410000D01*
G01X7700000Y-2300000D02*
X6850000Y-1450000D01*
X6550000D01*
X6250000Y-1750000D01*
Y-2380000D01*
X6060000Y-2570000D01*
X5960000D01*
X5845000Y-2455000D01*
X5635000D01*
G01X7720000Y-470000D02*
Y-530000D01*
X7530000Y-720000D01*
X7050000D01*
G54D13*
X305000Y-1760000D03*
X2315000D03*
G54D23*
G01X0Y0D02*
X10000000D01*
Y-10000000D01*
X0D01*
Y0D01*
G54D14*
X900000Y-7296000D03*
Y-6746000D03*
X1539000Y-4540000D03*
Y-3900000D03*
Y-3260000D03*
X2161000Y-300000D03*
X3470000Y-5420000D03*
X6730000Y-2349000D03*
X7460000Y-2426000D03*
X8950000Y-7296000D03*
Y-6746000D03*
X9640000Y-5154000D03*
X9620000Y-4221000D03*
X9211000Y-310000D03*
G54D15*
X900000Y-7550000D03*
Y-7000000D03*
X1399000Y-300000D03*
X2047000Y-4540000D03*
X1793000D03*
X2047000Y-3900000D03*
X1793000D03*
X2047000Y-3260000D03*
X1793000D03*
X1653000Y-300000D03*
X1907000D03*
X2301000Y-4540000D03*
Y-3900000D03*
Y-3260000D03*
X3978000Y-5420000D03*
X3724000D03*
X4486000D03*
X4232000D03*
X5248000D03*
X4994000D03*
X4740000D03*
X5756000D03*
X5502000D03*
X6518000D03*
X6264000D03*
X6010000D03*
X6730000Y-3111000D03*
Y-2857000D03*
Y-2603000D03*
X7460000Y-2680000D03*
Y-2934000D03*
X8950000Y-7550000D03*
Y-7000000D03*
X8449000Y-310000D03*
X8703000D03*
X8957000D03*
X9640000Y-4900000D03*
X9620000Y-3967000D03*
Y-3459000D03*
Y-3713000D03*
G54D16*
X2080000Y-9670000D03*
Y-5420000D03*
X7910000Y-9670000D03*
Y-5420000D03*
G54D17*
X3092000Y-413000D03*
X3892000D03*
G54D18*
X9455000Y-1860000D03*
Y-1380000D03*
G54D19*
X9720000Y-1980000D03*
Y-1260000D03*
M02*
