G04 ================== begin FILE IDENTIFICATION RECORD ==================*
G04 Layout Name:  E:/Projects/Ship Scales/ship_scales.brd*
G04 Film Name:    GND*
G04 File Format:  Gerber RS274X*
G04 File Origin:  Cadence Allegro -unreleased*
G04 Origin Date:  Mon Aug  8 20:11:52 2022*
G04 *
G04 Layer:  BOARD GEOMETRY/CUTOUT*
G04 Layer:  BOARD GEOMETRY/DESIGN_OUTLINE*
G04 Layer:  BOARD GEOMETRY/OUTLINE*
G04 Layer:  ETCH/GND*
G04 Layer:  PIN/GND*
G04 Layer:  VIA CLASS/GND*
G04 *
G04 Offset:    (0.0000 0.0000)*
G04 Mirror:    No*
G04 Mode:      Positive*
G04 Rotation:  0*
G04 FullContactRelief:  No*
G04 UndefLineWidth:     0.0000*
G04 ================== end FILE IDENTIFICATION RECORD ====================*
%FSLAX25Y25*MOMM*%
%IR0*IPPOS*OFA0.00000B0.00000*MIA0B0*SFA1.00000B1.00000*%
%ADD10C,.6*%
%ADD11C,.55*%
%ADD16O,2.X1.1*%
%ADD15C,1.1*%
%ADD13C,1.65*%
%ADD14R,1.65X1.65*%
%ADD12C,2.794*%
%ADD17C,.4*%
%ADD18C,.5*%
%ADD19C,.01*%
%ADD27C,1.2004*%
%ADD28C,4.1004*%
%ADD20C,1.1504*%
%ADD23C,2.2504*%
%ADD26C,1.9004*%
%ADD21C,1.3544*%
%ADD22C,1.9044*%
%ADD24C,3.0484*%
%ADD25C,3.3944*%
G75*
%LPD*%
G75*
G36*
G01X9688670Y-990000D02*
G03X9672480Y-1030000I41318J-40000D01*
G03X9730000Y-1087520I57520J0D01*
G03X9772490Y-1068770I0J57519D01*
G02X9787510I7510J-6843D01*
G03X9830000Y-1087520I42490J38769D01*
G03X9887520Y-1030000I0J57520D01*
G03X9871330Y-990000I-57508J0D01*
G03X9875460Y-985240I-41315J40019D01*
G01X9876170Y-984320D01*
X9881610Y-981610D01*
X9900000Y-1000000D01*
Y-9000000D01*
X9000000Y-9900000D01*
X1100000D01*
X100000Y-8900000D01*
Y-1000000D01*
X1000000Y-100000D01*
X4716490D01*
G02X4725680Y-114480I-7J-10161D01*
G03X4719980Y-140000I54318J-25529D01*
G01Y-140010D01*
G03X4721390Y-152940I60021J3D01*
G03X4679980Y-210000I18607J-57060D01*
G03X4740000Y-270020I60020J0D01*
G03X4780000Y-254750I0J60025D01*
G03X4820000Y-270020I40000J44755D01*
G03X4880020Y-210000I0J60020D01*
G03X4838610Y-152940I-60017J0D01*
G03X4840020Y-140010I-58611J12933D01*
G01Y-140000D01*
G03X4834320Y-114480I-60018J-9D01*
G02X4843510Y-100000I9197J4319D01*
G01X9000000D01*
X9106560Y-206560D01*
X9104060Y-210060D01*
G03X9098480Y-227490I24442J-17433D01*
G01Y-392500D01*
G03X9128500Y-422520I30020J0D01*
G01X9293520D01*
G03X9310950Y-416940I-4J30025D01*
G01X9314450Y-414450D01*
X9739190Y-839190D01*
X9736160Y-842760D01*
G03X9722480Y-880000I43846J-37239D01*
G01Y-880010D01*
G03X9722840Y-886420I57520J15D01*
G01X9723080Y-888550D01*
X9718990Y-893520D01*
X9717290Y-893900D01*
G03X9672480Y-950000I12712J-56100D01*
G03X9688670Y-990000I57508J0D01*
G37*
%LPC*%
G75*
G36*
G01X8837480Y-7378500D02*
Y-7213500D01*
G02X8867500Y-7183480I30020J0D01*
G01X9032500D01*
G02X9062520Y-7213500I0J-30020D01*
G01Y-7378500D01*
G02X9032500Y-7408520I-30020J0D01*
G01X8867500D01*
G02X8837480Y-7378500I0J30020D01*
G37*
G36*
G01Y-6828500D02*
Y-6663500D01*
G02X8867500Y-6633480I30020J0D01*
G01X9032500D01*
G02X9062520Y-6663500I0J-30020D01*
G01Y-6828500D01*
G02X9032500Y-6858520I-30020J0D01*
G01X8867500D01*
G02X8837480Y-6828500I0J30020D01*
G37*
G36*
G01X787480Y-7378500D02*
Y-7213500D01*
G02X817500Y-7183480I30020J0D01*
G01X982500D01*
G02X1012520Y-7213500I0J-30020D01*
G01Y-7378500D01*
G02X982500Y-7408520I-30020J0D01*
G01X817500D01*
G02X787480Y-7378500I0J30020D01*
G37*
G36*
G01Y-6828500D02*
Y-6663500D01*
G02X817500Y-6633480I30020J0D01*
G01X982500D01*
G02X1012520Y-6663500I0J-30020D01*
G01Y-6828500D01*
G02X982500Y-6858520I-30020J0D01*
G01X817500D01*
G02X787480Y-6828500I0J30020D01*
G37*
G36*
G01X6617480Y-2431500D02*
Y-2266500D01*
G02X6647500Y-2236480I30020J0D01*
G01X6812500D01*
G02X6842520Y-2266500I0J-30020D01*
G01Y-2431500D01*
G02X6812500Y-2461520I-30020J0D01*
G01X6647500D01*
G02X6617480Y-2431500I0J30020D01*
G37*
G36*
G01X7347480Y-2508500D02*
Y-2343500D01*
G02X7377500Y-2313480I30020J0D01*
G01X7542500D01*
G02X7572520Y-2343500I0J-30020D01*
G01Y-2508500D01*
G02X7542500Y-2538520I-30020J0D01*
G01X7377500D01*
G02X7347480Y-2508500I0J30020D01*
G37*
G36*
G01X9507480Y-4303500D02*
Y-4138500D01*
G02X9537500Y-4108480I30020J0D01*
G01X9702500D01*
G02X9732520Y-4138500I0J-30020D01*
G01Y-4303500D01*
G02X9702500Y-4333520I-30020J0D01*
G01X9537500D01*
G02X9507480Y-4303500I0J30020D01*
G37*
G36*
G01X3357480Y-5502500D02*
Y-5337500D01*
G02X3387500Y-5307480I30020J0D01*
G01X3552500D01*
G02X3582520Y-5337500I0J-30020D01*
G01Y-5502500D01*
G02X3552500Y-5532520I-30020J0D01*
G01X3387500D01*
G02X3357480Y-5502500I0J30020D01*
G37*
G36*
G01X9675000Y-1894980D02*
X9765000D01*
G02Y-2065020I0J-85020D01*
G01X9675000D01*
G02Y-1894980I0J85020D01*
G37*
G36*
G01Y-1174980D02*
X9765000D01*
G02Y-1345020I0J-85020D01*
G01X9675000D01*
G02Y-1174980I0J85020D01*
G37*
G36*
G01X2048480Y-382500D02*
Y-217500D01*
G02X2078500Y-187480I30020J0D01*
G01X2243500D01*
G02X2273520Y-217500I0J-30020D01*
G01Y-382500D01*
G02X2243500Y-412520I-30020J0D01*
G01X2078500D01*
G02X2048480Y-382500I0J30020D01*
G37*
G36*
G01X8860000Y-4698670D02*
G02X8900000Y-4682480I40000J-41318D01*
G02Y-4797520I0J-57520D01*
G02X8860000Y-4781330I0J57508D01*
G02X8820000Y-4797520I-40000J41318D01*
G02Y-4682480I0J57520D01*
G02X8860000Y-4698670I0J-57508D01*
G37*
G36*
G01X8347870Y-2786980D02*
G02X8340000Y-2787520I-7863J56980D01*
G02X8300000Y-2771330I0J57508D01*
G02X8260000Y-2787520I-40000J41318D01*
G02Y-2672480I0J57520D01*
G02X8300000Y-2688670I0J-57508D01*
G02X8340000Y-2672480I40000J-41318D01*
G02X8396450Y-2718960I0J-57519D01*
G03X8402130Y-2723020I4986J972D01*
G02X8410000Y-2722480I7863J-56980D01*
G02Y-2837520I0J-57520D01*
G02X8353550Y-2791040I0J57519D01*
G03X8347870Y-2786980I-4986J-972D01*
G37*
G36*
G01X9507780Y-2703060D02*
G03X9494270Y-2709060I-3927J-9369D01*
G02X9440000Y-2747520I-54270J19060D01*
G02Y-2632480I0J57520D01*
G02X9462220Y-2636940I12J-57522D01*
G03X9475730Y-2630940I3927J9369D01*
G02X9530000Y-2592480I54270J-19060D01*
G02Y-2707520I0J-57520D01*
G02X9507780Y-2703060I-12J57522D01*
G37*
G36*
G01X8851160Y-2501030D02*
G03X8862740Y-2488000I1888J9983D01*
G02X8859980Y-2470000I57261J17992D01*
G02X8980020I60020J0D01*
G02X8970590Y-2502290I-60018J6D01*
G03X8972150Y-2509320I4281J-2738D01*
G02X9000020Y-2560000I-32144J-50680D01*
G02X8977280Y-2607040I-60024J0D01*
G03Y-2622960I6311J-7960D01*
G02X9000020Y-2670000I-37284J-47040D01*
G02X8940000Y-2730020I-60020J0D01*
G02X8898510Y-2713370I0J60019D01*
G03X8891490I-3510J-3672D01*
G02X8850000Y-2730020I-41490J43369D01*
G02X8789980Y-2670000I0J60020D01*
G02X8808840Y-2626320I60012J0D01*
G03X8807390Y-2610390I-6965J7397D01*
G02X8779980Y-2560000I32613J50390D01*
G02X8840000Y-2499980I60020J0D01*
G02X8851160Y-2501030I-17J-60018D01*
G37*
G36*
G01X7657390Y-2359610D02*
G03X7658840Y-2343680I-5515J8533D01*
G02X7639980Y-2300000I41152J43680D01*
G02X7760020I60020J0D01*
G02X7732610Y-2350390I-60023J0D01*
G03X7731160Y-2366320I5515J-8533D01*
G02X7750020Y-2410000I-41152J-43680D01*
G02X7629980I-60020J0D01*
G02X7657390Y-2359610I60023J0D01*
G37*
G36*
G01X9374380Y-2134640D02*
G02X9372480Y-2120000I55617J14661D01*
G02X9374380Y-2105360I57517J-21D01*
G02X9332480Y-2050000I15622J55360D01*
G02X9390000Y-1992480I57520J0D01*
G02X9436740Y-2016480I0J-57513D01*
G03X9453260I8260J5920D01*
G02X9500000Y-1992480I46740J-33513D01*
G02X9557520Y-2050000I0J-57520D01*
G02X9538770Y-2092490I-57519J0D01*
G03Y-2107510I6843J-7510D01*
G02X9557520Y-2150000I-38769J-42490D01*
G02X9500000Y-2207520I-57520J0D01*
G02X9463130Y-2194150I0J57523D01*
G03X9446620Y-2200150I-6512J-7797D01*
G02X9390000Y-2247520I-56620J10153D01*
G02X9332480Y-2190000I0J57520D01*
G02X9374380Y-2134640I57522J0D01*
G37*
G36*
G01X3651310Y-1928870D02*
G03X3668690I8690J5273D01*
G02X3771310I51310J-31119D01*
G03X3788690I8690J5273D01*
G02X3840000Y-1899980I51310J-31119D01*
G02Y-2020020I0J-60020D01*
G02X3788690Y-1991130I0J60009D01*
G03X3771310I-8690J-5273D01*
G02X3668690I-51310J31119D01*
G03X3651310I-8690J-5273D01*
G02X3600000Y-2020020I-51310J31119D01*
G02Y-1899980I0J60020D01*
G02X3651310Y-1928870I0J-60009D01*
G37*
G36*
G01X2500000Y-2110000D02*
Y-1770000D01*
X2640000Y-1630000D01*
X3090000D01*
X3220000Y-1760000D01*
Y-1930000D01*
X3380000Y-2090000D01*
X3750000D01*
X3850000Y-2190000D01*
Y-2720000D01*
X3790000Y-2780000D01*
X3530000D01*
X3470000Y-2840000D01*
Y-2950000D01*
X3360000Y-3060000D01*
Y-3150000D01*
X3510000Y-3300000D01*
X3548020D01*
G02X3651980I51980J-29992D01*
G01X3668020D01*
G02X3720000Y-3269980I51980J-29992D01*
G02X3771310Y-3298870I0J-60009D01*
G03X3788690I8690J5273D01*
G02X3840000Y-3269980I51310J-31119D01*
G02Y-3390020I0J-60020D01*
G02X3788690Y-3361130I0J60009D01*
G03X3771310I-8690J-5273D01*
G02X3762440Y-3372440I-51322J31117D01*
G01X3780000Y-3390000D01*
Y-3960000D01*
X3810000Y-3990000D01*
X4620000D01*
X4740000Y-4110000D01*
Y-4590000D01*
X4600000Y-4730000D01*
X1770000D01*
X1667100Y-4627100D01*
G03X1650200Y-4631300I-7187J-7181D01*
G02X1621500Y-4652520I-28700J8798D01*
G01X1456500D01*
G02X1426480Y-4622500I0J30020D01*
G01Y-4457500D01*
G02X1456500Y-4427480I30020J0D01*
G01X1621500D01*
G02X1627730Y-4428130I17J-30022D01*
G03X1640000Y-4418200I2111J9937D01*
G01Y-4021800D01*
G03X1627730Y-4011870I-10159J-7D01*
G02X1621500Y-4012520I-6213J29372D01*
G01X1456500D01*
G02X1426480Y-3982500I0J30020D01*
G01Y-3817500D01*
G02X1456500Y-3787480I30020J0D01*
G01X1621500D01*
G02X1627730Y-3788130I17J-30022D01*
G03X1640000Y-3778200I2111J9937D01*
G01Y-3381800D01*
G03X1627730Y-3371870I-10159J-7D01*
G02X1621500Y-3372520I-6213J29372D01*
G01X1456500D01*
G02X1426480Y-3342500I0J30020D01*
G01Y-3177500D01*
G02X1456500Y-3147480I30020J0D01*
G01X1621500D01*
G02X1627730Y-3148130I17J-30022D01*
G03X1640000Y-3138200I2111J9937D01*
G01Y-2970000D01*
X2500000Y-2110000D01*
G37*
G36*
G01X7400000Y-1090250D02*
G02X7440000Y-1074980I40000J-44755D01*
G02Y-1195020I0J-60020D01*
G02X7400000Y-1179750I0J60025D01*
G02X7360000Y-1195020I-40000J44755D01*
G02Y-1074980I0J60020D01*
G02X7400000Y-1090250I0J-60025D01*
G37*
G36*
G01X7096400Y-1140120D02*
G03X7081000I-7700J-6626D01*
G02X7037400Y-1160120I-43600J37524D01*
G02Y-1045080I0J57520D01*
G02X7081000Y-1065080I0J-57524D01*
G03X7096400I7700J6626D01*
G02X7140000Y-1045080I43600J-37524D01*
G02Y-1160120I0J-57520D01*
G02X7096400Y-1140120I0J57524D01*
G37*
G36*
G01X8295650Y-245000D02*
G02X8307520Y-280000I-45652J-34995D01*
G02X8192480I-57520J0D01*
G02X8204350Y-245000I57522J5D01*
G02X8192480Y-210000I45652J34995D01*
G02X8307520I57520J0D01*
G02X8295650Y-245000I-57522J-5D01*
G37*
G36*
G01X6496270Y-2035870D02*
G02X6444500Y-2065520I-51770J30371D01*
G02Y-1945480I0J60020D01*
G02X6501350Y-1986240I0J-60026D01*
G03X6519730Y-1988130I9622J3257D01*
G02X6571500Y-1958480I51770J-30371D01*
G02Y-2078520I0J-60020D01*
G02X6514650Y-2037760I0J60026D01*
G03X6496270Y-2035870I-9622J-3257D01*
G37*
G36*
G01X6358870Y-921310D02*
G02X6329980Y-870000I31119J51310D01*
G02X6450020I60020J0D01*
G02X6421130Y-921310I-60009J0D01*
G03Y-938690I5273J-8690D01*
G02X6450020Y-990000I-31119J-51310D01*
G02X6448110Y-1005030I-60021J-9D01*
G03X6462590Y-1016610I9837J-2542D01*
G02X6490000Y-1009980I27420J-53387D01*
G02X6429980Y-1070000I0J-60020D01*
G02X6431890Y-1054970I60021J9D01*
G03X6417410Y-1043390I-9837J2542D01*
G02X6390000Y-1050020I-27420J53387D01*
G02X6329980Y-990000I0J60020D01*
G02X6358870Y-938690I60009J0D01*
G03Y-921310I-5273J8690D01*
G37*
G36*
G01X5514990Y-728750D02*
G02X5489980Y-680000I35007J48750D01*
G02X5610020I60020J0D01*
G02X5576460Y-733870I-60016J0D01*
G03X5575010Y-751250I4472J-9124D01*
G02X5600020Y-800000I-35007J-48750D01*
G02X5479980I-60020J0D01*
G02X5513540Y-746130I60016J0D01*
G03X5514990Y-728750I-4472J9124D01*
G37*
G36*
G01X3916790Y-504730D02*
G02X3892000Y-508020I-24787J91730D01*
G02X3987020Y-413000I0J95020D01*
G02X3965110Y-473690I-95010J0D01*
G03X3973960Y-490290I7820J-6490D01*
G02X3980000Y-489980I6092J-59707D01*
G02X3919980Y-550000I0J-60020D01*
G02X3928210Y-519670I60019J-4D01*
G03X3916790Y-504730I-8769J5132D01*
G37*
G36*
G01X9544780Y-5236500D02*
Y-5071500D01*
G02X9557500Y-5058780I12720J0D01*
G01X9722500D01*
G02X9735220Y-5071500I0J-12720D01*
G01Y-5236500D01*
G02X9722500Y-5249220I-12720J0D01*
G01X9557500D01*
G02X9544780Y-5236500I0J12720D01*
G37*
G54D27*
X7720000Y-470000D03*
X7050000Y-720000D03*
X6635000Y-315000D03*
X6820000Y-4090000D03*
Y-4440000D03*
X6680000Y-4530000D03*
X6820000Y-4270000D03*
Y-4610000D03*
X6000000Y-1140000D03*
X3290000Y-1240000D03*
X4270000Y-1130000D03*
X6270000Y-1460000D03*
X4110000Y-1220000D03*
X5990000Y-1280000D03*
X5850000Y-2360000D03*
X8960000Y-760000D03*
X8840000Y-5740000D03*
X597470Y-5612530D03*
X5150000Y-1860000D03*
X7130000Y-5150000D03*
X6620000Y-1640000D03*
X8542530Y-5000000D03*
X5555500Y-2004500D03*
X8290000Y-4950000D03*
X5160000Y-2560000D03*
X8320000Y-960000D03*
X5635000Y-2455000D03*
X7940000Y-1740000D03*
X6920000Y-5350000D03*
X6680000Y-4180000D03*
Y-4360000D03*
X3750000Y-1690000D03*
G54D28*
X2080000Y-9670000D03*
X7910000D03*
Y-5420000D03*
X2080000D03*
G54D20*
X7906640Y-4580000D03*
X7970000Y-870000D03*
X710000Y-7940000D03*
X8830000Y-7950000D03*
X8761250Y-951250D03*
X4450000Y-1820000D03*
X4560000Y-3280000D03*
X8039050Y-3740000D03*
X5650000Y-2910000D03*
X6290000Y-2900000D03*
X4310000Y-830000D03*
X4577470Y-695920D03*
X9590000Y-2500000D03*
X7660000Y-3520000D03*
G54D23*
X1653000Y-300000D03*
X1907000D03*
X8957000Y-310000D03*
X5248000Y-5420000D03*
X4740000D03*
X4486000D03*
X4232000D03*
X3978000D03*
X3724000D03*
X6518000D03*
X6264000D03*
X6010000D03*
X5756000D03*
X9620000Y-3459000D03*
Y-3713000D03*
Y-3967000D03*
X7460000Y-2680000D03*
X6730000Y-2857000D03*
Y-2603000D03*
X9640000Y-4900000D03*
G54D26*
X3092000Y-413000D03*
G54D21*
X9455000Y-1380000D03*
Y-1860000D03*
G54D22*
X1399000Y-300000D03*
X8449000Y-310000D03*
X8703000D03*
X5502000Y-5420000D03*
X4994000D03*
X7460000Y-2934000D03*
X6730000Y-3111000D03*
X900000Y-7000000D03*
Y-7550000D03*
X8950000Y-7000000D03*
Y-7550000D03*
G54D24*
X305000Y-1760000D03*
G54D25*
X2315000D03*
%LPD*%
G75*
G36*
G01X2750000Y-3080000D02*
X3240000D01*
X3490000Y-3330000D01*
X3539800D01*
X3540160Y-3334680D01*
G03X3600000Y-3390020I59840J4683D01*
G03X3651310Y-3361130I0J60009D01*
G02X3668690I8690J-5273D01*
G03X3720000Y-3390020I51310J31119D01*
G03X3726900Y-3389620I-18J60019D01*
G01X3729340Y-3389340D01*
X3740000Y-3400000D01*
Y-3970000D01*
X3800000Y-4030000D01*
X4610000D01*
X4700000Y-4120000D01*
Y-4550000D01*
X4560000Y-4690000D01*
X1790000D01*
X1680000Y-4580000D01*
Y-3710000D01*
X1780000Y-3610000D01*
X2540000D01*
X2610000Y-3540000D01*
Y-3220000D01*
X2750000Y-3080000D01*
G37*
G36*
G01X2660000Y-1670000D02*
X3070000D01*
X3180000Y-1780000D01*
Y-1940000D01*
X3370000Y-2130000D01*
X3730000D01*
X3810000Y-2210000D01*
Y-2710000D01*
X3770000Y-2750000D01*
X3500000D01*
X3440000Y-2810000D01*
Y-2930000D01*
X3330000Y-3040000D01*
X2700000D01*
X2530000Y-3210000D01*
Y-3490000D01*
X2480000Y-3540000D01*
X1790000D01*
X1690000Y-3440000D01*
Y-3309860D01*
G02X1709110Y-3305050I10159J4D01*
G03X1793000Y-3355220I83890J45052D01*
G03Y-3164780I0J95220D01*
G03X1709110Y-3214950I0J-95222D01*
G02X1690000Y-3210140I-8951J4806D01*
G01Y-2990000D01*
X2540000Y-2140000D01*
Y-1790000D01*
X2660000Y-1670000D01*
G37*
%LPC*%
G75*
G54D27*
X3050000Y-3360000D03*
X2955000Y-1965000D03*
G54D23*
X2301000Y-4540000D03*
X2047000D03*
X2301000Y-3900000D03*
X2047000D03*
X2301000Y-3260000D03*
X2047000D03*
G54D22*
X1793000Y-4540000D03*
Y-3900000D03*
%LPD*%
G75*
G54D10*
X200000Y-8610000D03*
Y-8110000D03*
Y-7110000D03*
Y-7610000D03*
Y-6610000D03*
Y-6110000D03*
Y-5610000D03*
Y-4610000D03*
Y-5110000D03*
Y-4110000D03*
Y-3610000D03*
Y-2110000D03*
Y-2610000D03*
X180000Y-1040000D03*
X190000Y-1370000D03*
X520000Y-9070000D03*
X830000Y-4920000D03*
X850000Y-370000D03*
X640000Y-560000D03*
X420000Y-780000D03*
X990000Y-9520000D03*
X1270000Y-5370000D03*
X1050000Y-180000D03*
X1560000Y-9730000D03*
X2100000Y-7920000D03*
X1830000Y-4920000D03*
X1940000Y-2450000D03*
X2560000Y-9730000D03*
X2710000Y-2600000D03*
X2700000Y-1770000D03*
X2712000Y-1262000D03*
X2743000Y-453000D03*
X3100000Y-7920000D03*
X2850000Y-5340000D03*
X2830000Y-4920000D03*
X2810000Y-3300000D03*
X3050000Y-3180000D03*
X3200000D03*
X2900000D03*
X2960000Y-2650000D03*
X3310000Y-1810000D03*
X3400000D03*
X3020000Y-1770000D03*
X2860000D03*
X3560000Y-9730000D03*
X3830000Y-4920000D03*
X3572000Y-3838000D03*
X3620000Y-2860000D03*
X3564000Y-2464000D03*
X3610000Y-2570000D03*
X3727000Y-1290000D03*
X4560000Y-9730000D03*
X4100000Y-7920000D03*
X4057470Y-3032530D03*
X4172000Y-1532000D03*
X4270000Y-1740000D03*
X4297000Y-453000D03*
X4330000Y-140000D03*
X5100000Y-7920000D03*
X4870000Y-540000D03*
X4930000Y-450000D03*
X5560000Y-9730000D03*
X5428500Y-1661500D03*
X5900000Y-1010000D03*
X5720000D03*
X5900000Y-820000D03*
X5720000D03*
X5900000Y-640000D03*
X5720000D03*
X5310000Y-130000D03*
X6100000Y-7920000D03*
X6080000Y-1010000D03*
Y-820000D03*
Y-640000D03*
X6560000Y-9730000D03*
X7100000Y-7920000D03*
X6790000Y-5050000D03*
X6820000Y-3350000D03*
X6940000Y-3570000D03*
X6720000D03*
X7010000Y-3210000D03*
Y-2940000D03*
X6700000Y-130000D03*
X7560000Y-9730000D03*
X7340000Y-3350000D03*
X7220000Y-3570000D03*
X7420000Y-3810000D03*
X7200000Y-3090000D03*
X7690000Y-2700000D03*
X7750000Y-2980000D03*
X7510000Y-3140000D03*
X7610000Y-1660000D03*
X7720000Y-1070000D03*
X8100000Y-7920000D03*
X8260000Y-2100000D03*
X8240000Y-1570000D03*
X8260000Y-1950000D03*
X8250000Y-1790000D03*
X8096020Y-940000D03*
X8070000Y-1260000D03*
X8560000Y-9730000D03*
X8800000Y-3450000D03*
X8740000Y-3560000D03*
X8810000Y-3530000D03*
X8493300Y-2890000D03*
X8652500Y-1802500D03*
X8570000Y-760000D03*
X9350000Y-9380000D03*
X9160000Y-3970000D03*
X9087300D03*
X9770000Y-8880000D03*
Y-7880000D03*
Y-6880000D03*
Y-5880000D03*
X9800000Y-3110000D03*
Y-3220000D03*
X9720000Y-1740000D03*
Y-1500000D03*
G54D11*
X255000Y-6425000D03*
X445000Y-8775000D03*
X1355000Y-8785000D03*
X1545000Y-6425000D03*
X1930000Y-930000D03*
X2070000D03*
X2965340Y-3990000D03*
X2960000Y-3890000D03*
Y-2520000D03*
X4597470Y-4412530D03*
X4570000Y-3510000D03*
X4560000Y-3730000D03*
X4500000Y-2080000D03*
X4520000Y-2287160D03*
X5190000Y-3380000D03*
Y-3040000D03*
X5970000Y-2910000D03*
X7090000Y-180000D03*
X7272530Y-2130000D03*
Y-2270000D03*
X8320000Y-8625000D03*
X7960000Y-4470000D03*
X7955890Y-3390000D03*
X8750000Y-6425000D03*
X8660000Y-4760000D03*
X8970000Y-2220000D03*
X8760000Y-1050000D03*
X9635000Y-8625000D03*
X9645000Y-6425000D03*
X9640000Y-2300000D03*
X9350000Y-1490000D03*
X9410000Y-1030000D03*
X9490000D03*
G54D12*
X305000Y-1760000D03*
G54D13*
X900000Y-7550000D03*
Y-7000000D03*
X1399000Y-300000D03*
X1793000Y-4540000D03*
Y-3900000D03*
Y-3260000D03*
X4994000Y-5420000D03*
X5502000D03*
X6730000Y-3111000D03*
X7460000Y-2934000D03*
X8950000Y-7550000D03*
Y-7000000D03*
X8449000Y-310000D03*
X8703000D03*
G54D14*
X9640000Y-5154000D03*
G54D15*
X9455000Y-1860000D03*
Y-1380000D03*
G54D16*
X9720000Y-1980000D03*
Y-1260000D03*
G54D17*
G01X147500Y-1760000D02*
X305000D01*
G01X799700Y-7550000D02*
X900000D01*
G01X799700Y-7000000D02*
X900000D01*
G01X305000Y-1917500D02*
Y-1760000D01*
G01D02*
Y-1602500D01*
G01Y-1760000D02*
X462500D01*
G01X900000Y-7100300D02*
Y-7000000D01*
G01Y-7650300D02*
Y-7550000D01*
G01D02*
Y-7449700D01*
G01Y-7550000D02*
X1000300D01*
G01X900000Y-7000000D02*
Y-6899700D01*
G01Y-7000000D02*
X1000300D01*
G01X1399000Y-400300D02*
Y-300000D01*
G01D02*
Y-199700D01*
G01X1298700Y-300000D02*
X1399000D01*
G01D02*
X1499300D01*
G01X1793000Y-4640300D02*
Y-4540000D01*
G01Y-4000300D02*
Y-3900000D01*
G01Y-4540000D02*
Y-4439700D01*
G01Y-4540000D02*
X1893300D01*
G01X1793000Y-3360300D02*
Y-3260000D01*
G01Y-3900000D02*
Y-3799700D01*
G01Y-3900000D02*
X1893300D01*
G01X1793000Y-3260000D02*
Y-3159700D01*
G01Y-3260000D02*
X1893300D01*
G01X4994000Y-5520300D02*
Y-5420000D01*
G01D02*
Y-5319700D01*
G01X4893700Y-5420000D02*
X4994000D01*
G01D02*
X5094300D01*
G01X5502000Y-5520300D02*
Y-5420000D01*
G01D02*
Y-5319700D01*
G01X5401700Y-5420000D02*
X5502000D01*
G01D02*
X5602300D01*
G01X6730000Y-3211300D02*
Y-3111000D01*
G01D02*
Y-3010700D01*
G01X6629700Y-3111000D02*
X6730000D01*
G01D02*
X6830300D01*
G01X7460000Y-3034300D02*
Y-2934000D01*
G01D02*
Y-2833700D01*
G01X7359700Y-2934000D02*
X7460000D01*
G01D02*
X7560300D01*
G01X8348700Y-310000D02*
X8449000D01*
G01X8950000Y-7650300D02*
Y-7550000D01*
G01D02*
Y-7449700D01*
G01X8849700Y-7550000D02*
X8950000D01*
G01D02*
X9050300D01*
G01X8950000Y-7100300D02*
Y-7000000D01*
G01D02*
Y-6899700D01*
G01X8849700Y-7000000D02*
X8950000D01*
G01D02*
X9050300D01*
G01X8703000Y-410300D02*
Y-310000D01*
G01D02*
Y-209700D01*
G01X8602700Y-310000D02*
X8703000D01*
G01D02*
X8803300D01*
G01X8449000Y-410300D02*
Y-310000D01*
G01D02*
Y-209700D01*
G01Y-310000D02*
X8549300D01*
G01X9539700Y-5154000D02*
X9640000D01*
G01X9455000Y-1932800D02*
Y-1860000D01*
G01D02*
Y-1787200D01*
G01X9382200Y-1860000D02*
X9455000D01*
G01D02*
X9527800D01*
G01X9455000Y-1452800D02*
Y-1380000D01*
G01D02*
Y-1307200D01*
G01X9382200Y-1380000D02*
X9455000D01*
G01D02*
X9527800D01*
G01X9640000Y-5254300D02*
Y-5154000D01*
G01D02*
Y-5053700D01*
G01Y-5154000D02*
X9740300D01*
G54D18*
G01X3400000Y-1810000D02*
X3310000D01*
G54D19*
G01X0Y0D02*
X10000000D01*
Y-10000000D01*
X0D01*
Y0D01*
M02*
