G04 ================== begin FILE IDENTIFICATION RECORD ==================*
G04 Layout Name:  E:/Projects/Ship Scales/ship_scales.brd*
G04 Film Name:    SILKSCREEN_TOP*
G04 File Format:  Gerber RS274X*
G04 File Origin:  Cadence Allegro -unreleased*
G04 Origin Date:  Mon Aug  8 20:11:52 2022*
G04 *
G04 Layer:  REF DES/SILKSCREEN_TOP*
G04 Layer:  COMPONENT VALUE/SILKSCREEN_TOP*
G04 Layer:  BOARD GEOMETRY/SILKSCREEN_TOP*
G04 Layer:  PACKAGE GEOMETRY/SILKSCREEN_TOP*
G04 Layer:  BOARD GEOMETRY/OUTLINE*
G04 *
G04 Offset:    (0.0000 0.0000)*
G04 Mirror:    No*
G04 Mode:      Positive*
G04 Rotation:  0*
G04 FullContactRelief:  No*
G04 UndefLineWidth:     0.0000*
G04 ================== end FILE IDENTIFICATION RECORD ====================*
%FSLAX25Y25*MOMM*%
%IR0*IPPOS*OFA0.00000B0.00000*MIA0B0*SFA1.00000B1.00000*%
%ADD10C,.1*%
%ADD11C,.2*%
%ADD12C,.13*%
%ADD13C,.51*%
%ADD14C,.15*%
%ADD15C,.2032*%
%ADD16C,.127*%
%ADD17C,.381*%
%ADD18C,.1524*%
%ADD19C,.01*%
%ADD21R,.7366X.6604*%
%ADD20R,.6604X.7366*%
G75*
%LPD*%
G75*
G36*
G01X2044600Y-655540D02*
X2001420D01*
Y-658080D01*
Y-691100D01*
Y-752060D01*
Y-762220D01*
Y-767300D01*
X2003960Y-769840D01*
X2138580D01*
Y-762220D01*
Y-752060D01*
Y-691100D01*
Y-658080D01*
Y-655540D01*
X2095400D01*
X2044600D01*
G37*
G36*
G01X1904600D02*
X1861420D01*
Y-658080D01*
Y-691100D01*
Y-752060D01*
Y-762220D01*
Y-767300D01*
X1863960Y-769840D01*
X1998580D01*
Y-762220D01*
Y-752060D01*
Y-691100D01*
Y-658080D01*
Y-655540D01*
X1955400D01*
X1904600D01*
G37*
G36*
G01X7084600Y-2595540D02*
X7041420D01*
Y-2598080D01*
Y-2631100D01*
Y-2692060D01*
Y-2702220D01*
Y-2707300D01*
X7043960Y-2709840D01*
X7178580D01*
Y-2702220D01*
Y-2692060D01*
Y-2631100D01*
Y-2598080D01*
Y-2595540D01*
X7135400D01*
X7084600D01*
G37*
G36*
G01X7190000Y-2930000D02*
X7320000D01*
Y-2430000D01*
X7190000D01*
Y-2930000D01*
G37*
G36*
G01X7474460Y-2174600D02*
Y-2131420D01*
X7471920D01*
X7438900D01*
X7377940D01*
X7367780D01*
X7362700D01*
X7360160Y-2133960D01*
Y-2268580D01*
X7367780D01*
X7377940D01*
X7438900D01*
X7471920D01*
X7474460D01*
Y-2225400D01*
Y-2174600D01*
G37*
G36*
G01X7240000Y-910000D02*
X7280000D01*
Y-870000D01*
X7240000D01*
Y-910000D01*
G37*
G36*
G01X8512240Y-3335200D02*
X8469060D01*
Y-3520620D01*
X8270940D01*
Y-3335200D01*
X8225220D01*
Y-3599360D01*
X8512240D01*
Y-3335200D01*
G37*
G36*
G01X8620000Y-2600000D02*
Y-2640000D01*
X8660000D01*
Y-2600000D01*
X8620000D01*
G37*
G36*
G01X9664460Y-917100D02*
Y-873920D01*
X9661920D01*
X9628900D01*
X9567940D01*
X9557780D01*
X9552700D01*
X9550160Y-876460D01*
Y-1011080D01*
X9557780D01*
X9567940D01*
X9628900D01*
X9661920D01*
X9664460D01*
Y-967900D01*
Y-917100D01*
G37*
%LPC*%
G75*
G54D21*
X7422390Y-2200000D03*
X9612390Y-942500D03*
G54D20*
X2070000Y-707610D03*
X1930000D03*
X7110000Y-2647610D03*
%LPD*%
G75*
G36*
G01X2430000Y-4830000D02*
X1410000D01*
Y-4770000D01*
X2430000D01*
Y-4830000D01*
G37*
G36*
G01Y-4190000D02*
X1410000D01*
Y-4130000D01*
X2430000D01*
Y-4190000D01*
G37*
G36*
G01Y-3550000D02*
X1410000D01*
Y-3490000D01*
X2430000D01*
Y-3550000D01*
G37*
G36*
G01X1270000Y-10000D02*
X2290000D01*
Y-70000D01*
X1270000D01*
Y-10000D01*
G37*
G36*
G01X6440000Y-3240000D02*
Y-2220000D01*
X6500000D01*
Y-3240000D01*
X6440000D01*
G37*
G36*
G01X8320000Y-20000D02*
X9340000D01*
Y-80000D01*
X8320000D01*
Y-20000D01*
G37*
G36*
G01X9910000Y-3330000D02*
Y-4350000D01*
X9850000D01*
Y-3330000D01*
X9910000D01*
G37*
G54D10*
G01X8095000Y-9845000D02*
X1895000D01*
Y-5220000D01*
X5020000D01*
G01X2910000Y-3500000D02*
Y-3600000D01*
X2990000D01*
G01X3210000Y-3500000D02*
Y-3600000D01*
X3130000D01*
G01X2900000Y-2130000D02*
Y-2230000D01*
X2980000D01*
G01X3200000Y-2130000D02*
Y-2230000D01*
X3120000D01*
G01X3915000Y-3280000D02*
Y-4270000D01*
X3525000D01*
Y-3280000D01*
X3915000D01*
G01X3911000Y-1906000D02*
Y-2896000D01*
X3521000D01*
Y-1906000D01*
X3911000D01*
G01X4490000Y-190000D02*
Y-90000D01*
G01X4550000Y-190000D02*
Y-90000D01*
X4490000Y-140000D01*
X4550000Y-190000D01*
G01X4410000Y-90000D02*
X4650000D01*
Y-190000D01*
X4390000D01*
Y-90000D01*
X4410000D01*
G01X5020000Y-5220000D02*
X8095000D01*
G01X5710000Y-3605000D02*
Y-3670000D01*
X5110000D01*
Y-3370000D01*
X5710000D01*
Y-3605000D01*
G01Y-3255000D02*
Y-3320000D01*
X5110000D01*
Y-3020000D01*
X5710000D01*
Y-3255000D01*
G01X5230000Y-2510000D02*
X5330000D01*
Y-2430000D01*
G01X5230000Y-2210000D02*
X5330000D01*
Y-2290000D01*
G01X5620000Y-2510000D02*
X5720000D01*
Y-2430000D01*
G01X5620000Y-2210000D02*
X5720000D01*
Y-2290000D01*
G01X7950000Y-1960000D02*
X7710000D01*
Y-1860000D01*
X7970000D01*
Y-1960000D01*
X7950000D01*
G01X7710000Y-1740000D02*
Y-1840000D01*
X7770000Y-1790000D01*
X7710000Y-1740000D01*
G01X7850000Y-1840000D02*
X7610000D01*
Y-1740000D01*
X7870000D01*
Y-1840000D01*
X7850000D01*
G01X7500000Y-1135000D02*
G03I-100000J0D01*
G01X8095000Y-5220000D02*
Y-9845000D01*
G01X7870000Y-1860000D02*
Y-1960000D01*
G01X7810000Y-1860000D02*
Y-1960000D01*
X7870000Y-1910000D01*
X7810000Y-1860000D01*
G01X7770000Y-1740000D02*
Y-1840000D01*
G01X9540000Y-2780000D02*
X9780000D01*
Y-2880000D01*
X9520000D01*
Y-2780000D01*
X9540000D01*
G01X9620000Y-2880000D02*
Y-2780000D01*
G01X9680000Y-2880000D02*
Y-2780000D01*
X9620000Y-2830000D01*
X9680000Y-2880000D01*
G01X9760000Y-3010000D02*
Y-2910000D01*
G01X9820000Y-3010000D02*
Y-2910000D01*
X9760000Y-2960000D01*
X9820000Y-3010000D01*
G01X9680000Y-2910000D02*
X9920000D01*
Y-3010000D01*
X9660000D01*
Y-2910000D01*
X9680000D01*
G54D11*
G01X285000Y-8170000D02*
G03I-10000J0D01*
G01Y-5970000D02*
G03I-10000J0D01*
G01X4257000Y-1473000D02*
Y-1523000D01*
X4207000Y-1573000D01*
X2647000D01*
X2527000Y-1453000D01*
Y-33000D01*
X2557000Y-3000D01*
X4177000D01*
X4257000Y-83000D01*
Y-1473000D01*
G01X3187000Y-1295500D02*
G03I-10000J0D01*
G01X5010000Y-75000D02*
G03I-10000J0D01*
G01X8385000Y-8170000D02*
G03I-10000J0D01*
G01Y-5970000D02*
G03I-10000J0D01*
G01X8705000Y-4405000D02*
G03I-10000J0D01*
G01X8815600Y-2278000D02*
G03I-38100J0D01*
G01X9215000Y-4235000D02*
G03I-10000J0D01*
G01X9583000Y-1990000D02*
X9442500D01*
Y-1800000D01*
G01X9025000Y-1087500D02*
G03I-10000J0D01*
G01X9442500Y-1440000D02*
Y-1250000D01*
X9583000D01*
G54D12*
G01X710000Y-7160000D02*
Y-7686000D01*
G01X1230000D02*
Y-7160000D01*
X630000D01*
Y-7686000D01*
G01D02*
X1230000D01*
G01X710000Y-6610000D02*
Y-7136000D01*
G01X1230000D02*
Y-6610000D01*
X630000D01*
Y-7136000D01*
G01D02*
X1230000D01*
G01X3117930Y-3235000D02*
Y-3108000D01*
X3150270D01*
X3163200Y-3114350D01*
X3172900Y-3122820D01*
X3180980Y-3135510D01*
X3187450Y-3150340D01*
X3189070Y-3171500D01*
X3187450Y-3192670D01*
X3180980Y-3207490D01*
X3172900Y-3220190D01*
X3163200Y-3228650D01*
X3150270Y-3235000D01*
X3117930D01*
G01X3247930D02*
Y-3108000D01*
X3280270D01*
X3293200Y-3114350D01*
X3302900Y-3122820D01*
X3310980Y-3135510D01*
X3317450Y-3150340D01*
X3319070Y-3171500D01*
X3317450Y-3192670D01*
X3310980Y-3207490D01*
X3302900Y-3220190D01*
X3293200Y-3228650D01*
X3280270Y-3235000D01*
X3247930D01*
G01X3382780Y-3182090D02*
X3394100Y-3167270D01*
X3403800Y-3158800D01*
X3416730Y-3154570D01*
X3428050Y-3158800D01*
X3436130Y-3167270D01*
X3442600Y-3179970D01*
X3444220Y-3194780D01*
X3442600Y-3207490D01*
X3436130Y-3220190D01*
X3426430Y-3230770D01*
X3415120Y-3235000D01*
X3402180Y-3230770D01*
X3390870Y-3218070D01*
X3384400Y-3199020D01*
X3382780Y-3177850D01*
X3386020Y-3150340D01*
X3390870Y-3135510D01*
X3398950Y-3120700D01*
X3410270Y-3110120D01*
X3421580Y-3108000D01*
X3432900Y-3112230D01*
X3440980Y-3122820D01*
G01X3103930Y-1861000D02*
Y-1734000D01*
X3136270D01*
X3149200Y-1740350D01*
X3158900Y-1748820D01*
X3166980Y-1761510D01*
X3173450Y-1776340D01*
X3175070Y-1797500D01*
X3173450Y-1818670D01*
X3166980Y-1833490D01*
X3158900Y-1846190D01*
X3149200Y-1854650D01*
X3136270Y-1861000D01*
X3103930D01*
G01X3233930D02*
Y-1734000D01*
X3266270D01*
X3279200Y-1740350D01*
X3288900Y-1748820D01*
X3296980Y-1761510D01*
X3303450Y-1776340D01*
X3305070Y-1797500D01*
X3303450Y-1818670D01*
X3296980Y-1833490D01*
X3288900Y-1846190D01*
X3279200Y-1854650D01*
X3266270Y-1861000D01*
X3233930D01*
G01X3363930Y-1841950D02*
X3373630Y-1852540D01*
X3384950Y-1858880D01*
X3399500Y-1861000D01*
X3414050Y-1856770D01*
X3425370Y-1848300D01*
X3433450Y-1833490D01*
X3435070Y-1816550D01*
X3431830Y-1799620D01*
X3423750Y-1789030D01*
X3412430Y-1780570D01*
X3401120Y-1778450D01*
X3389800Y-1780570D01*
X3375250Y-1789030D01*
X3380100Y-1734000D01*
X3423750D01*
G01X7190000Y-3070000D02*
X7790000D01*
Y-2290000D01*
X7190000D01*
Y-3070000D01*
G01X8760000Y-7160000D02*
Y-7686000D01*
G01X9280000D02*
Y-7160000D01*
X8680000D01*
Y-7686000D01*
G01D02*
X9280000D01*
G01X8760000Y-6610000D02*
Y-7136000D01*
G01X9280000D02*
Y-6610000D01*
X8680000D01*
Y-7136000D01*
G01D02*
X9280000D01*
G01X9310000Y-4764000D02*
Y-5290000D01*
X9910000D01*
Y-4764000D01*
G01D02*
X9310000D01*
G01X9830000Y-5290000D02*
Y-4764000D01*
G54D13*
G01X3314000Y-3330000D02*
G03I-27510J0D01*
G01X3310000Y-1956000D02*
G03I-27510J0D01*
G54D14*
G01X560000Y-7535000D02*
X460000Y-7465000D01*
G01Y-7535000D02*
X560000Y-7465000D01*
G01Y-7433330D02*
X460000D01*
Y-7393330D01*
X465000Y-7380000D01*
X476670Y-7370000D01*
X490000Y-7366670D01*
X503330Y-7370000D01*
X513330Y-7378330D01*
X518340Y-7393330D01*
Y-7433330D01*
G01X560000Y-7280000D02*
X460000D01*
X531670Y-7341670D01*
Y-7258330D01*
G01X560000Y-6985000D02*
X460000Y-6915000D01*
G01Y-6985000D02*
X560000Y-6915000D01*
G01Y-6883330D02*
X460000D01*
Y-6843330D01*
X465000Y-6830000D01*
X476670Y-6820000D01*
X490000Y-6816670D01*
X503330Y-6820000D01*
X513330Y-6828330D01*
X518340Y-6843330D01*
Y-6883330D01*
G01X476670Y-6781670D02*
X466670Y-6771670D01*
X461670Y-6760000D01*
X460000Y-6746670D01*
X463330Y-6730000D01*
X471670Y-6718330D01*
X481670Y-6715000D01*
X491670Y-6716670D01*
X500000Y-6723330D01*
X516670Y-6756670D01*
X528330Y-6771670D01*
X545000Y-6781670D01*
X560000Y-6785000D01*
Y-6715000D01*
G01X1080000Y-7330000D02*
Y-7230000D01*
X1060000Y-7250000D01*
G01Y-7330000D02*
X1100000D01*
G01X1080000Y-6780000D02*
Y-6680000D01*
X1060000Y-6700000D01*
G01Y-6780000D02*
X1100000D01*
G01X2430000Y-4830000D02*
Y-4250000D01*
X1410000D01*
Y-4830000D01*
X2430000D01*
G01Y-4190000D02*
Y-3610000D01*
X1410000D01*
Y-4190000D01*
X2430000D01*
G01X1580000Y-4360000D02*
X1480000D01*
X1500000Y-4380000D01*
G01X1580000D02*
Y-4340000D01*
G01X1075000Y-4350000D02*
X1145000Y-4250000D01*
G01X1075000D02*
X1145000Y-4350000D01*
G01X1176670D02*
Y-4250000D01*
X1216670D01*
X1230000Y-4255000D01*
X1240000Y-4266670D01*
X1243330Y-4280000D01*
X1240000Y-4293330D01*
X1231670Y-4303330D01*
X1216670Y-4308340D01*
X1176670D01*
G01X1310000Y-4350000D02*
X1321670Y-4348330D01*
X1335000Y-4343330D01*
X1343330Y-4335000D01*
X1346670Y-4323330D01*
X1343330Y-4311670D01*
X1333330Y-4301670D01*
X1318330Y-4296670D01*
X1301670D01*
X1291670Y-4293330D01*
X1283330Y-4285000D01*
X1280000Y-4273330D01*
X1285000Y-4261670D01*
X1296660Y-4253330D01*
X1310000Y-4250000D01*
X1323330Y-4253330D01*
X1335000Y-4261670D01*
X1340000Y-4273330D01*
X1336670Y-4285000D01*
X1328330Y-4293330D01*
X1318330Y-4296670D01*
X1301670D01*
X1286670Y-4301670D01*
X1276670Y-4311670D01*
X1273330Y-4323330D01*
X1276670Y-4335000D01*
X1285000Y-4343330D01*
X1298330Y-4348330D01*
X1310000Y-4350000D01*
G01X2430000Y-3550000D02*
Y-2970000D01*
X1410000D01*
Y-3550000D01*
X2430000D01*
G01X1580000Y-3720000D02*
X1480000D01*
X1500000Y-3740000D01*
G01X1580000D02*
Y-3700000D01*
G01X1085000Y-3710000D02*
X1155000Y-3610000D01*
G01X1085000D02*
X1155000Y-3710000D01*
G01X1186670D02*
Y-3610000D01*
X1226670D01*
X1240000Y-3615000D01*
X1250000Y-3626670D01*
X1253330Y-3640000D01*
X1250000Y-3653330D01*
X1241670Y-3663330D01*
X1226670Y-3668340D01*
X1186670D01*
G01X1288330D02*
X1300000Y-3656670D01*
X1310000Y-3650000D01*
X1323330Y-3646670D01*
X1335000Y-3650000D01*
X1343330Y-3656670D01*
X1350000Y-3666670D01*
X1351670Y-3678330D01*
X1350000Y-3688330D01*
X1343330Y-3698340D01*
X1333330Y-3706670D01*
X1321670Y-3710000D01*
X1308330Y-3706670D01*
X1296670Y-3696670D01*
X1290000Y-3681670D01*
X1288330Y-3665000D01*
X1291670Y-3643340D01*
X1296670Y-3631670D01*
X1305000Y-3620000D01*
X1316670Y-3611670D01*
X1328330Y-3610000D01*
X1340000Y-3613330D01*
X1348330Y-3621670D01*
G01X1580000Y-3080000D02*
X1480000D01*
X1500000Y-3100000D01*
G01X1580000D02*
Y-3060000D01*
G01X1085000Y-3020000D02*
X1155000Y-2920000D01*
G01X1085000D02*
X1155000Y-3020000D01*
G01X1186670D02*
Y-2920000D01*
X1226670D01*
X1240000Y-2925000D01*
X1250000Y-2936670D01*
X1253330Y-2950000D01*
X1250000Y-2963330D01*
X1241670Y-2973330D01*
X1226670Y-2978340D01*
X1186670D01*
G01X1283330Y-3000000D02*
X1293330Y-3011670D01*
X1306660Y-3018330D01*
X1321670Y-3020000D01*
X1335000Y-3018330D01*
X1348330Y-3010000D01*
X1356670Y-3000000D01*
X1358330Y-2990000D01*
X1355000Y-2978340D01*
X1343330Y-2970000D01*
X1331670Y-2966670D01*
X1316670D01*
G01X1331670D02*
X1341670Y-2961670D01*
X1350000Y-2953340D01*
X1353330Y-2943330D01*
X1350000Y-2933330D01*
X1341670Y-2925000D01*
X1326670Y-2920000D01*
X1311670Y-2921670D01*
X1296670Y-2928330D01*
G01X895000Y-210000D02*
X965000Y-110000D01*
G01X895000D02*
X965000Y-210000D01*
G01X996670D02*
Y-110000D01*
X1036670D01*
X1050000Y-115000D01*
X1060000Y-126670D01*
X1063330Y-140000D01*
X1060000Y-153330D01*
X1051670Y-163330D01*
X1036670Y-168340D01*
X996670D01*
G01X1130000Y-210000D02*
Y-110000D01*
X1110000Y-130000D01*
G01Y-210000D02*
X1150000D01*
G01X1230000D02*
Y-110000D01*
X1210000Y-130000D01*
G01Y-210000D02*
X1250000D01*
G01X1270000Y-10000D02*
Y-590000D01*
X2290000D01*
Y-10000D01*
X1270000D01*
G01X2120000Y-480000D02*
X2220000D01*
X2200000Y-460000D01*
G01X2120000D02*
Y-500000D01*
G01X2928330Y-3250000D02*
X2970000Y-3350000D01*
X3011670Y-3250000D01*
G01X3070000D02*
Y-3350000D01*
G01X3031670Y-3250000D02*
X3108330D01*
G01X3190000Y-3350000D02*
Y-3250000D01*
X3128330Y-3321670D01*
X3211670D01*
G01X2958330Y-1890000D02*
X3000000Y-1990000D01*
X3041670Y-1890000D01*
G01X3100000D02*
Y-1990000D01*
G01X3061670Y-1890000D02*
X3138330D01*
G01X3163330Y-1970000D02*
X3173330Y-1981670D01*
X3186660Y-1988330D01*
X3201670Y-1990000D01*
X3215000Y-1988330D01*
X3228330Y-1980000D01*
X3236670Y-1970000D01*
X3238330Y-1960000D01*
X3235000Y-1948340D01*
X3223330Y-1940000D01*
X3211670Y-1936670D01*
X3196670D01*
G01X3211670D02*
X3221670Y-1931670D01*
X3230000Y-1923340D01*
X3233330Y-1913330D01*
X3230000Y-1903330D01*
X3221670Y-1895000D01*
X3206670Y-1890000D01*
X3191670Y-1891670D01*
X3176670Y-1898330D01*
G01X3511000Y-5240000D02*
X3411000D01*
X3431000Y-5260000D01*
G01X3511000D02*
Y-5220000D01*
G01X4435000Y-5120000D02*
X4505000Y-5020000D01*
G01X4435000D02*
X4505000Y-5120000D01*
G01X4536670D02*
Y-5020000D01*
X4576670D01*
X4590000Y-5025000D01*
X4600000Y-5036670D01*
X4603330Y-5050000D01*
X4600000Y-5063330D01*
X4591670Y-5073330D01*
X4576670Y-5078340D01*
X4536670D01*
G01X4670000Y-5120000D02*
Y-5020000D01*
X4650000Y-5040000D01*
G01Y-5120000D02*
X4690000D01*
G01X4950000Y-2501670D02*
X5050000Y-2460000D01*
X4950000Y-2418330D01*
G01Y-2360000D02*
X5050000D01*
G01X4950000Y-2398330D02*
Y-2321670D01*
G01X4966670Y-2291670D02*
X4956670Y-2281670D01*
X4951670Y-2270000D01*
X4950000Y-2256670D01*
X4953330Y-2240000D01*
X4961670Y-2228330D01*
X4971670Y-2225000D01*
X4981670Y-2226670D01*
X4990000Y-2233330D01*
X5006670Y-2266670D01*
X5018330Y-2281670D01*
X5035000Y-2291670D01*
X5050000Y-2295000D01*
Y-2225000D01*
G01X5518330Y-2070000D02*
X5560000Y-2170000D01*
X5601670Y-2070000D01*
G01X5660000D02*
Y-2170000D01*
G01X5621670Y-2070000D02*
X5698330D01*
G01X5760000Y-2170000D02*
Y-2070000D01*
X5740000Y-2090000D01*
G01Y-2170000D02*
X5780000D01*
G01X6440000Y-3240000D02*
X7020000D01*
Y-2220000D01*
X6440000D01*
Y-3240000D01*
G01X6420000Y-2515000D02*
X6320000Y-2445000D01*
G01Y-2515000D02*
X6420000Y-2445000D01*
G01Y-2413330D02*
X6320000D01*
Y-2373330D01*
X6325000Y-2360000D01*
X6336670Y-2350000D01*
X6350000Y-2346670D01*
X6363330Y-2350000D01*
X6373330Y-2358330D01*
X6378340Y-2373330D01*
Y-2413330D01*
G01X6405000Y-2316670D02*
X6413330Y-2306670D01*
X6418330Y-2295000D01*
X6420000Y-2280000D01*
X6416670Y-2265000D01*
X6410000Y-2253330D01*
X6398330Y-2245000D01*
X6385000Y-2243330D01*
X6371670Y-2246670D01*
X6363330Y-2255000D01*
X6356670Y-2266670D01*
X6355000Y-2278330D01*
X6356670Y-2290000D01*
X6363330Y-2305000D01*
X6320000Y-2300000D01*
Y-2255000D01*
G01X6910000Y-2390000D02*
Y-2290000D01*
X6890000Y-2310000D01*
G01Y-2390000D02*
X6930000D01*
G01X7640000Y-2460000D02*
Y-2360000D01*
X7620000Y-2380000D01*
G01Y-2460000D02*
X7660000D01*
G01X7250000Y-736670D02*
X7150000D01*
Y-703330D01*
X7155000Y-690000D01*
X7161670Y-680000D01*
X7171670Y-671670D01*
X7183340Y-665000D01*
X7200000Y-663330D01*
X7216670Y-665000D01*
X7228330Y-671670D01*
X7238340Y-680000D01*
X7245000Y-690000D01*
X7250000Y-703330D01*
Y-736670D01*
G01Y-636670D02*
X7150000D01*
Y-603330D01*
X7155000Y-590000D01*
X7161670Y-580000D01*
X7171670Y-571670D01*
X7183340Y-565000D01*
X7200000Y-563330D01*
X7216670Y-565000D01*
X7228330Y-571670D01*
X7238340Y-580000D01*
X7245000Y-590000D01*
X7250000Y-603330D01*
Y-636670D01*
G01X7230000Y-536670D02*
X7241670Y-526670D01*
X7248330Y-513340D01*
X7250000Y-498330D01*
X7248330Y-485000D01*
X7240000Y-471670D01*
X7230000Y-463330D01*
X7220000Y-461670D01*
X7208340Y-465000D01*
X7200000Y-476670D01*
X7196670Y-488330D01*
Y-503330D01*
G01Y-488330D02*
X7191670Y-478330D01*
X7183340Y-470000D01*
X7173330Y-466670D01*
X7163330Y-470000D01*
X7155000Y-478330D01*
X7150000Y-493330D01*
X7151670Y-508330D01*
X7158330Y-523330D01*
G01X7280000Y-760000D02*
Y-650000D01*
X7320000D01*
Y-570000D01*
X7280000D01*
Y-460000D01*
X7780000D01*
Y-760000D01*
X7280000D01*
G01X7815000Y-2470000D02*
X7885000Y-2370000D01*
G01X7815000D02*
X7885000Y-2470000D01*
G01X7916670D02*
Y-2370000D01*
X7956670D01*
X7970000Y-2375000D01*
X7980000Y-2386670D01*
X7983330Y-2400000D01*
X7980000Y-2413330D01*
X7971670Y-2423330D01*
X7956670Y-2428340D01*
X7916670D01*
G01X8021670Y-2458340D02*
X8033330Y-2466670D01*
X8046670Y-2470000D01*
X8060000Y-2466670D01*
X8071670Y-2456670D01*
X8080000Y-2441670D01*
X8083330Y-2426670D01*
Y-2408330D01*
X8080000Y-2393330D01*
X8071670Y-2380000D01*
X8061670Y-2373330D01*
X8050000Y-2370000D01*
X8036660Y-2373330D01*
X8026670Y-2380000D01*
X8020000Y-2390000D01*
X8016670Y-2403340D01*
X8020000Y-2415000D01*
X8028330Y-2426670D01*
X8038330Y-2433340D01*
X8050000Y-2435000D01*
X8063330Y-2431670D01*
X8073330Y-2423330D01*
X8083330Y-2408330D01*
G01X8320000Y-20000D02*
Y-600000D01*
X9340000D01*
Y-20000D01*
X8320000D01*
G01X8610000Y-7585000D02*
X8510000Y-7515000D01*
G01Y-7585000D02*
X8610000Y-7515000D01*
G01Y-7483330D02*
X8510000D01*
Y-7443330D01*
X8515000Y-7430000D01*
X8526670Y-7420000D01*
X8540000Y-7416670D01*
X8553330Y-7420000D01*
X8563330Y-7428330D01*
X8568340Y-7443330D01*
Y-7483330D01*
G01X8610000Y-7350000D02*
X8510000D01*
X8530000Y-7370000D01*
G01X8610000D02*
Y-7330000D01*
G01X8510000Y-7250000D02*
X8513330Y-7263340D01*
X8521670Y-7273330D01*
X8531670Y-7280000D01*
X8545000Y-7285000D01*
X8560000Y-7286670D01*
X8575000Y-7285000D01*
X8588330Y-7280000D01*
X8598340Y-7273330D01*
X8606670Y-7263340D01*
X8610000Y-7250000D01*
X8606670Y-7236670D01*
X8598340Y-7226670D01*
X8588330Y-7220000D01*
X8575000Y-7215000D01*
X8560000Y-7213330D01*
X8545000Y-7215000D01*
X8531670Y-7220000D01*
X8521670Y-7226670D01*
X8513330Y-7236670D01*
X8510000Y-7250000D01*
G01X8610000Y-6985000D02*
X8510000Y-6915000D01*
G01Y-6985000D02*
X8610000Y-6915000D01*
G01Y-6883330D02*
X8510000D01*
Y-6843330D01*
X8515000Y-6830000D01*
X8526670Y-6820000D01*
X8540000Y-6816670D01*
X8553330Y-6820000D01*
X8563330Y-6828330D01*
X8568340Y-6843330D01*
Y-6883330D01*
G01X8610000Y-6753330D02*
X8588330Y-6750000D01*
X8570000Y-6745000D01*
X8553330Y-6738330D01*
X8535000Y-6730000D01*
X8510000Y-6716670D01*
Y-6783330D01*
G01X8770000Y-2640000D02*
X8880000D01*
Y-2680000D01*
X8960000D01*
Y-2640000D01*
X9070000D01*
Y-3140000D01*
X8770000D01*
Y-2640000D01*
G01X8583330Y-2580000D02*
Y-2480000D01*
X8616670D01*
X8630000Y-2485000D01*
X8640000Y-2491670D01*
X8648330Y-2501670D01*
X8655000Y-2513340D01*
X8656670Y-2530000D01*
X8655000Y-2546670D01*
X8648330Y-2558330D01*
X8640000Y-2568340D01*
X8630000Y-2575000D01*
X8616670Y-2580000D01*
X8583330D01*
G01X8683330D02*
Y-2480000D01*
X8716670D01*
X8730000Y-2485000D01*
X8740000Y-2491670D01*
X8748330Y-2501670D01*
X8755000Y-2513340D01*
X8756670Y-2530000D01*
X8755000Y-2546670D01*
X8748330Y-2558330D01*
X8740000Y-2568340D01*
X8730000Y-2575000D01*
X8716670Y-2580000D01*
X8683330D01*
G01X8816670D02*
X8820000Y-2558330D01*
X8825000Y-2540000D01*
X8831670Y-2523330D01*
X8840000Y-2505000D01*
X8853330Y-2480000D01*
X8786670D01*
G01X8585000Y-560000D02*
X8655000Y-460000D01*
G01X8585000D02*
X8655000Y-560000D01*
G01X8686670D02*
Y-460000D01*
X8726670D01*
X8740000Y-465000D01*
X8750000Y-476670D01*
X8753330Y-490000D01*
X8750000Y-503330D01*
X8741670Y-513330D01*
X8726670Y-518340D01*
X8686670D01*
G01X8820000Y-560000D02*
Y-460000D01*
X8800000Y-480000D01*
G01Y-560000D02*
X8840000D01*
G01X8940000D02*
Y-460000D01*
X8878330Y-531670D01*
X8961670D01*
G01X9130000Y-7330000D02*
Y-7230000D01*
X9110000Y-7250000D01*
G01Y-7330000D02*
X9150000D01*
G01X9130000Y-6780000D02*
Y-6680000D01*
X9110000Y-6700000D01*
G01Y-6780000D02*
X9150000D01*
G01X9460000Y-5120000D02*
Y-5220000D01*
X9480000Y-5200000D01*
G01Y-5120000D02*
X9440000D01*
G01X9445000Y-4740000D02*
X9515000Y-4640000D01*
G01X9445000D02*
X9515000Y-4740000D01*
G01X9546670D02*
Y-4640000D01*
X9586670D01*
X9600000Y-4645000D01*
X9610000Y-4656670D01*
X9613330Y-4670000D01*
X9610000Y-4683330D01*
X9601670Y-4693330D01*
X9586670Y-4698340D01*
X9546670D01*
G01X9680000Y-4740000D02*
Y-4640000D01*
X9660000Y-4660000D01*
G01Y-4740000D02*
X9700000D01*
G01X9743330Y-4720000D02*
X9753330Y-4731670D01*
X9766660Y-4738330D01*
X9781670Y-4740000D01*
X9795000Y-4738330D01*
X9808330Y-4730000D01*
X9816670Y-4720000D01*
X9818330Y-4710000D01*
X9815000Y-4698340D01*
X9803330Y-4690000D01*
X9791670Y-4686670D01*
X9776670D01*
G01X9791670D02*
X9801670Y-4681670D01*
X9810000Y-4673340D01*
X9813330Y-4663330D01*
X9810000Y-4653330D01*
X9801670Y-4645000D01*
X9786670Y-4640000D01*
X9771670Y-4641670D01*
X9756670Y-4648330D01*
G01X9440000Y-4180000D02*
Y-4280000D01*
X9460000Y-4260000D01*
G01Y-4180000D02*
X9420000D01*
G01X9310000Y-4005000D02*
X9210000Y-3935000D01*
G01Y-4005000D02*
X9310000Y-3935000D01*
G01Y-3903330D02*
X9210000D01*
Y-3863330D01*
X9215000Y-3850000D01*
X9226670Y-3840000D01*
X9240000Y-3836670D01*
X9253330Y-3840000D01*
X9263330Y-3848330D01*
X9268340Y-3863330D01*
Y-3903330D01*
G01X9310000Y-3770000D02*
X9210000D01*
X9230000Y-3790000D01*
G01X9310000D02*
Y-3750000D01*
G01X9226670Y-3701670D02*
X9216670Y-3691670D01*
X9211670Y-3680000D01*
X9210000Y-3666670D01*
X9213330Y-3650000D01*
X9221670Y-3638330D01*
X9231670Y-3635000D01*
X9241670Y-3636670D01*
X9250000Y-3643330D01*
X9266670Y-3676670D01*
X9278330Y-3691670D01*
X9295000Y-3701670D01*
X9310000Y-3705000D01*
Y-3635000D01*
G01X9910000Y-3330000D02*
X9330000D01*
Y-4350000D01*
X9910000D01*
Y-3330000D01*
G01X9170000Y-490000D02*
X9270000D01*
X9250000Y-470000D01*
G01X9170000D02*
Y-510000D01*
G54D15*
G01X8200000Y-2280000D02*
X8648960D01*
X8720000Y-2208960D01*
Y-1260000D01*
X8200000D01*
Y-2280000D01*
G54D16*
G01X123000Y-3481960D02*
X250000Y-3441740D01*
X123000Y-3401520D01*
G01X165340Y-3312200D02*
X250000D01*
G01X131470D02*
X129350Y-3315420D01*
X125120D01*
X123000Y-3312200D01*
X125120Y-3308980D01*
X129350D01*
X131470Y-3312200D01*
G01X250000Y-3210010D02*
X165340D01*
G01X186500D02*
X175920Y-3203570D01*
X167450Y-3193920D01*
X165340Y-3181050D01*
X167450Y-3169790D01*
X175920Y-3160140D01*
X190730Y-3155310D01*
X250000D01*
G01X2145000Y-2135000D02*
G02Y-1385000I-1034359J375000D01*
G01X118560Y-687270D02*
X124990Y-680920D01*
X129820Y-670340D01*
X133040Y-655510D01*
X129820Y-642820D01*
X123390Y-634350D01*
X112120Y-628000D01*
X68690D01*
Y-755000D01*
X121780D01*
X133040Y-746540D01*
X139470Y-733830D01*
X142690Y-719020D01*
X139470Y-704200D01*
X129820Y-691500D01*
X118560Y-687270D01*
X68690D01*
G01X195010Y-755000D02*
X235230Y-628000D01*
X275450Y-755000D01*
G01X260970Y-710550D02*
X209490D01*
G01X364770Y-628000D02*
Y-755000D01*
G01X327770Y-628000D02*
X401770D01*
G01X494310Y-755000D02*
Y-628000D01*
X475010Y-653400D01*
G01Y-755000D02*
X513610D01*
G01X600000Y-8100000D02*
Y-8700000D01*
X1200000D01*
Y-8100000D01*
X600000D01*
G01X374210Y-7858420D02*
Y-7731420D01*
X414420D01*
X427290Y-7737770D01*
X435340Y-7746240D01*
X438550Y-7763170D01*
X435340Y-7780100D01*
X425680Y-7790690D01*
X414420Y-7797040D01*
X374210D01*
G01X414420D02*
X438550Y-7858420D01*
G01X505350Y-7752590D02*
X515010Y-7739890D01*
X526270Y-7733540D01*
X539140Y-7731420D01*
X555220Y-7735650D01*
X566490Y-7746240D01*
X569700Y-7758930D01*
X568090Y-7771640D01*
X561660Y-7782220D01*
X529490Y-7803390D01*
X515010Y-7818200D01*
X505350Y-7839370D01*
X502140Y-7858420D01*
X569700D01*
G01X630070Y-7833020D02*
X639720Y-7847840D01*
X652590Y-7856300D01*
X667070Y-7858420D01*
X679940Y-7856300D01*
X692810Y-7845720D01*
X700850Y-7833020D01*
X702460Y-7820320D01*
X699240Y-7805510D01*
X687980Y-7794920D01*
X676720Y-7790690D01*
X662240D01*
G01X676720D02*
X686370Y-7784340D01*
X694420Y-7773760D01*
X697630Y-7761050D01*
X694420Y-7748350D01*
X686370Y-7737770D01*
X671890Y-7731420D01*
X657420Y-7733540D01*
X642940Y-7742000D01*
G01X382840Y-7881580D02*
X657160D01*
Y-7998420D01*
X382840D01*
Y-7881580D01*
G01X744480Y-8023070D02*
X757350Y-8033650D01*
X771830Y-8040000D01*
X784690D01*
X797560Y-8033650D01*
X807220Y-8023070D01*
X812040Y-8008250D01*
X808830Y-7993440D01*
X800780Y-7980730D01*
X786300Y-7972270D01*
X767000Y-7968030D01*
X755740Y-7959570D01*
X750910Y-7944750D01*
X754130Y-7929930D01*
X762170Y-7919350D01*
X773430Y-7913000D01*
X784690D01*
X795960Y-7917230D01*
X805610Y-7927820D01*
G01X859540Y-7913000D02*
X882060Y-8040000D01*
X907800Y-7913000D01*
X933540Y-8040000D01*
X956060Y-7913000D01*
G01X1056640Y-8040000D02*
Y-7913000D01*
X997120Y-8004020D01*
X1077560D01*
G01X600000Y-5900000D02*
Y-6500000D01*
X1200000D01*
Y-5900000D01*
X600000D01*
G01X754480Y-5823070D02*
X767350Y-5833650D01*
X781830Y-5840000D01*
X794690D01*
X807560Y-5833650D01*
X817220Y-5823070D01*
X822040Y-5808250D01*
X818830Y-5793440D01*
X810780Y-5780730D01*
X796300Y-5772270D01*
X777000Y-5768030D01*
X765740Y-5759570D01*
X760910Y-5744750D01*
X764130Y-5729930D01*
X772170Y-5719350D01*
X783430Y-5713000D01*
X794690D01*
X805960Y-5717230D01*
X815610Y-5727820D01*
G01X869540Y-5713000D02*
X892060Y-5840000D01*
X917800Y-5713000D01*
X943540Y-5840000D01*
X966060Y-5713000D01*
G01X1011950Y-5814600D02*
X1021600Y-5829420D01*
X1034470Y-5837880D01*
X1048950Y-5840000D01*
X1061820Y-5837880D01*
X1074690Y-5827300D01*
X1082730Y-5814600D01*
X1084340Y-5801900D01*
X1081120Y-5787090D01*
X1069860Y-5776500D01*
X1058600Y-5772270D01*
X1044120D01*
G01X1058600D02*
X1068250Y-5765920D01*
X1076300Y-5755340D01*
X1079510Y-5742630D01*
X1076300Y-5729930D01*
X1068250Y-5719350D01*
X1053770Y-5713000D01*
X1039300Y-5715120D01*
X1024820Y-5723580D01*
G01X374210Y-5688420D02*
Y-5561420D01*
X414420D01*
X427290Y-5567770D01*
X435340Y-5576240D01*
X438550Y-5593170D01*
X435340Y-5610100D01*
X425680Y-5620690D01*
X414420Y-5627040D01*
X374210D01*
G01X414420D02*
X438550Y-5688420D01*
G01X505350Y-5582590D02*
X515010Y-5569890D01*
X526270Y-5563540D01*
X539140Y-5561420D01*
X555220Y-5565650D01*
X566490Y-5576240D01*
X569700Y-5588930D01*
X568090Y-5601640D01*
X561660Y-5612220D01*
X529490Y-5633390D01*
X515010Y-5648200D01*
X505350Y-5669370D01*
X502140Y-5688420D01*
X569700D01*
G01X665460Y-5561420D02*
X652590Y-5565650D01*
X642940Y-5576240D01*
X636500Y-5588930D01*
X631680Y-5605870D01*
X630070Y-5624920D01*
X631680Y-5643970D01*
X636500Y-5660910D01*
X642940Y-5673610D01*
X652590Y-5684190D01*
X665460Y-5688420D01*
X678330Y-5684190D01*
X687980Y-5673610D01*
X694420Y-5660910D01*
X699240Y-5643970D01*
X700850Y-5624920D01*
X699240Y-5605870D01*
X694420Y-5588930D01*
X687980Y-5576240D01*
X678330Y-5565650D01*
X665460Y-5561420D01*
G01X382840Y-5711580D02*
X657160D01*
Y-5828420D01*
X382840D01*
Y-5711580D01*
G01X438260Y-4830040D02*
X428610Y-4827920D01*
X418960Y-4819460D01*
X412520Y-4804640D01*
X409300Y-4787710D01*
X412520Y-4770770D01*
X418960Y-4755960D01*
X428610Y-4747490D01*
X438260Y-4745380D01*
X447910Y-4747490D01*
X457560Y-4755960D01*
X464000Y-4770770D01*
X465610Y-4787710D01*
X464000Y-4804640D01*
X457560Y-4819460D01*
X447910Y-4827920D01*
X438260Y-4830040D01*
G01X538840Y-4872370D02*
Y-4745380D01*
G01Y-4764420D02*
X546890Y-4753840D01*
X554930Y-4747490D01*
X567800Y-4745380D01*
X579060Y-4747490D01*
X590320Y-4758070D01*
X595150Y-4772890D01*
X596760Y-4787710D01*
X595150Y-4802530D01*
X590320Y-4817340D01*
X580670Y-4825810D01*
X567800Y-4830040D01*
X556540Y-4827920D01*
X545280Y-4821580D01*
X538840Y-4813110D01*
G01X697340Y-4703040D02*
Y-4830040D01*
G01X674820Y-4745380D02*
X719860D01*
G01X826880D02*
Y-4830040D01*
G01Y-4711510D02*
X823660Y-4709390D01*
Y-4705160D01*
X826880Y-4703040D01*
X830100Y-4705160D01*
Y-4709390D01*
X826880Y-4711510D01*
G01X956420Y-4830040D02*
X946770Y-4827920D01*
X937120Y-4819460D01*
X930680Y-4804640D01*
X927460Y-4787710D01*
X930680Y-4770770D01*
X937120Y-4755960D01*
X946770Y-4747490D01*
X956420Y-4745380D01*
X966070Y-4747490D01*
X975720Y-4755960D01*
X982160Y-4770770D01*
X983770Y-4787710D01*
X982160Y-4804640D01*
X975720Y-4819460D01*
X966070Y-4827920D01*
X956420Y-4830040D01*
G01X1058610D02*
Y-4745380D01*
G01Y-4766540D02*
X1065050Y-4755960D01*
X1074700Y-4747490D01*
X1087570Y-4745380D01*
X1098830Y-4747490D01*
X1108480Y-4755960D01*
X1113310Y-4770770D01*
Y-4830040D01*
G01X1244460D02*
Y-4745380D01*
G01Y-4760190D02*
X1238020Y-4751720D01*
X1228370Y-4747490D01*
X1217110Y-4745380D01*
X1205850Y-4749610D01*
X1196200Y-4758070D01*
X1189760Y-4770770D01*
X1186540Y-4787710D01*
X1189760Y-4804640D01*
X1196200Y-4817340D01*
X1205850Y-4825810D01*
X1217110Y-4830040D01*
X1228370Y-4827920D01*
X1238020Y-4821580D01*
X1244460Y-4813110D01*
G01X1345040Y-4830040D02*
Y-4703040D01*
G01X844000Y-3955940D02*
X832740Y-3947470D01*
X823090Y-3945360D01*
X810220Y-3949590D01*
X800560Y-3958050D01*
X794130Y-3972870D01*
X792520Y-3987690D01*
X794130Y-4002510D01*
X800560Y-4015210D01*
X810220Y-4025790D01*
X823090Y-4030020D01*
X834350Y-4025790D01*
X844000Y-4017320D01*
G01X923670Y-3972870D02*
X975150D01*
X970320Y-3958050D01*
X962280Y-3949590D01*
X951020Y-3945360D01*
X939760Y-3947470D01*
X930100Y-3953820D01*
X923670Y-3968640D01*
X920450Y-3981340D01*
Y-3994040D01*
X923670Y-4006740D01*
X931710Y-4019440D01*
X941370Y-4027900D01*
X952630Y-4030020D01*
X963890Y-4025790D01*
X975150Y-4013090D01*
G01X1077340Y-4030020D02*
Y-3903020D01*
G01X1206880Y-4030020D02*
Y-3903020D01*
G01X770000Y-4190040D02*
Y-4105380D01*
G01Y-4128660D02*
X774820Y-4118070D01*
X782870Y-4109610D01*
X794130Y-4105380D01*
X805390Y-4109610D01*
X813430Y-4118070D01*
X818260Y-4128660D01*
Y-4190040D01*
G01Y-4128660D02*
X823090Y-4118070D01*
X831130Y-4109610D01*
X842390Y-4105380D01*
X853650Y-4109610D01*
X861700Y-4118070D01*
X866520Y-4130770D01*
Y-4190040D01*
G01X976760D02*
Y-4105380D01*
G01Y-4120190D02*
X970320Y-4111720D01*
X960670Y-4107490D01*
X949410Y-4105380D01*
X938150Y-4109610D01*
X928500Y-4118070D01*
X922060Y-4130770D01*
X918840Y-4147710D01*
X922060Y-4164640D01*
X928500Y-4177340D01*
X938150Y-4185810D01*
X949410Y-4190040D01*
X960670Y-4187920D01*
X970320Y-4181580D01*
X976760Y-4173110D01*
G01X1077340Y-4105380D02*
Y-4190040D01*
G01Y-4071510D02*
X1074120Y-4069390D01*
Y-4065160D01*
X1077340Y-4063040D01*
X1080560Y-4065160D01*
Y-4069390D01*
X1077340Y-4071510D01*
G01X1179530Y-4190040D02*
Y-4105380D01*
G01Y-4126540D02*
X1185970Y-4115960D01*
X1195620Y-4107490D01*
X1208490Y-4105380D01*
X1219750Y-4107490D01*
X1229400Y-4115960D01*
X1234230Y-4130770D01*
Y-4190040D01*
G01X1305850Y-4084210D02*
X1315510Y-4071510D01*
X1326770Y-4065160D01*
X1339640Y-4063040D01*
X1355720Y-4067270D01*
X1366990Y-4077860D01*
X1370200Y-4090550D01*
X1368590Y-4103260D01*
X1362160Y-4113840D01*
X1329990Y-4135010D01*
X1315510Y-4149820D01*
X1305850Y-4170990D01*
X1302640Y-4190040D01*
X1370200D01*
G01X346520Y-3432090D02*
Y-3399910D01*
X384620D01*
X397320Y-3409570D01*
X405790Y-3420830D01*
X410020Y-3436910D01*
X405790Y-3453000D01*
X397320Y-3464260D01*
X384620Y-3473910D01*
X369800Y-3480350D01*
X352870Y-3483570D01*
X338050D01*
X325360Y-3480350D01*
X310530Y-3473910D01*
X297840Y-3464260D01*
X289370Y-3454610D01*
X283020Y-3441740D01*
Y-3430480D01*
X287250Y-3417610D01*
X295720Y-3407960D01*
G01X410020Y-3349200D02*
X283020D01*
X410020Y-3275200D01*
X283020D01*
G01X410020Y-3218050D02*
X283020D01*
Y-3185880D01*
X289370Y-3173010D01*
X297840Y-3163360D01*
X310530Y-3155310D01*
X325360Y-3148880D01*
X346520Y-3147270D01*
X367690Y-3148880D01*
X382510Y-3155310D01*
X395210Y-3163360D01*
X403670Y-3173010D01*
X410020Y-3185880D01*
Y-3218050D01*
G01X570040Y-3481960D02*
X443040Y-3441740D01*
X570040Y-3401520D01*
G01X525590Y-3416000D02*
Y-3467480D01*
G01X527710Y-3333110D02*
Y-3291290D01*
G01X730060Y-3481960D02*
X603060Y-3441740D01*
X730060Y-3401520D01*
G01X685610Y-3416000D02*
Y-3467480D01*
G01X687730Y-3329900D02*
Y-3291290D01*
G01X660210Y-3312200D02*
X715250D01*
G01X864000Y-3245940D02*
X852740Y-3237470D01*
X843090Y-3235360D01*
X830220Y-3239590D01*
X820560Y-3248050D01*
X814130Y-3262870D01*
X812520Y-3277690D01*
X814130Y-3292510D01*
X820560Y-3305210D01*
X830220Y-3315790D01*
X843090Y-3320020D01*
X854350Y-3315790D01*
X864000Y-3307320D01*
G01X943670Y-3262870D02*
X995150D01*
X990320Y-3248050D01*
X982280Y-3239590D01*
X971020Y-3235360D01*
X959760Y-3237470D01*
X950100Y-3243820D01*
X943670Y-3258640D01*
X940450Y-3271340D01*
Y-3284040D01*
X943670Y-3296740D01*
X951710Y-3309440D01*
X961370Y-3317900D01*
X972630Y-3320020D01*
X983890Y-3315790D01*
X995150Y-3303090D01*
G01X1097340Y-3320020D02*
Y-3193020D01*
G01X1226880Y-3320020D02*
Y-3193020D01*
G01X790000Y-3480040D02*
Y-3395380D01*
G01Y-3418660D02*
X794820Y-3408070D01*
X802870Y-3399610D01*
X814130Y-3395380D01*
X825390Y-3399610D01*
X833430Y-3408070D01*
X838260Y-3418660D01*
Y-3480040D01*
G01Y-3418660D02*
X843090Y-3408070D01*
X851130Y-3399610D01*
X862390Y-3395380D01*
X873650Y-3399610D01*
X881700Y-3408070D01*
X886520Y-3420770D01*
Y-3480040D01*
G01X996760D02*
Y-3395380D01*
G01Y-3410190D02*
X990320Y-3401720D01*
X980670Y-3397490D01*
X969410Y-3395380D01*
X958150Y-3399610D01*
X948500Y-3408070D01*
X942060Y-3420770D01*
X938840Y-3437710D01*
X942060Y-3454640D01*
X948500Y-3467340D01*
X958150Y-3475810D01*
X969410Y-3480040D01*
X980670Y-3477920D01*
X990320Y-3471580D01*
X996760Y-3463110D01*
G01X1097340Y-3395380D02*
Y-3480040D01*
G01Y-3361510D02*
X1094120Y-3359390D01*
Y-3355160D01*
X1097340Y-3353040D01*
X1100560Y-3355160D01*
Y-3359390D01*
X1097340Y-3361510D01*
G01X1199530Y-3480040D02*
Y-3395380D01*
G01Y-3416540D02*
X1205970Y-3405960D01*
X1215620Y-3397490D01*
X1228490Y-3395380D01*
X1239750Y-3397490D01*
X1249400Y-3405960D01*
X1254230Y-3420770D01*
Y-3480040D01*
G01X1356420D02*
Y-3353040D01*
X1337120Y-3378440D01*
G01Y-3480040D02*
X1375720D01*
G01X786090Y-3743000D02*
Y-3870000D01*
X850430D01*
G01X947800D02*
X938150Y-3867880D01*
X928500Y-3859420D01*
X922060Y-3844600D01*
X918840Y-3827670D01*
X922060Y-3810730D01*
X928500Y-3795920D01*
X938150Y-3787450D01*
X947800Y-3785340D01*
X957450Y-3787450D01*
X967100Y-3795920D01*
X973540Y-3810730D01*
X975150Y-3827670D01*
X973540Y-3844600D01*
X967100Y-3859420D01*
X957450Y-3867880D01*
X947800Y-3870000D01*
G01X1106300D02*
Y-3785340D01*
G01Y-3800150D02*
X1099860Y-3791680D01*
X1090210Y-3787450D01*
X1078950Y-3785340D01*
X1067690Y-3789570D01*
X1058040Y-3798030D01*
X1051600Y-3810730D01*
X1048380Y-3827670D01*
X1051600Y-3844600D01*
X1058040Y-3857300D01*
X1067690Y-3865770D01*
X1078950Y-3870000D01*
X1090210Y-3867880D01*
X1099860Y-3861540D01*
X1106300Y-3853070D01*
G01X1235840Y-3743000D02*
Y-3870000D01*
G01Y-3850950D02*
X1229400Y-3861540D01*
X1219750Y-3867880D01*
X1208490Y-3870000D01*
X1195620Y-3865770D01*
X1185970Y-3855190D01*
X1179530Y-3842490D01*
X1177920Y-3827670D01*
X1179530Y-3812850D01*
X1185970Y-3800150D01*
X1195620Y-3789570D01*
X1208490Y-3785340D01*
X1219750Y-3787450D01*
X1227790Y-3791680D01*
X1235840Y-3800150D01*
G01X806090Y-3033000D02*
Y-3160000D01*
X870430D01*
G01X967800D02*
X958150Y-3157880D01*
X948500Y-3149420D01*
X942060Y-3134600D01*
X938840Y-3117670D01*
X942060Y-3100730D01*
X948500Y-3085920D01*
X958150Y-3077450D01*
X967800Y-3075340D01*
X977450Y-3077450D01*
X987100Y-3085920D01*
X993540Y-3100730D01*
X995150Y-3117670D01*
X993540Y-3134600D01*
X987100Y-3149420D01*
X977450Y-3157880D01*
X967800Y-3160000D01*
G01X1126300D02*
Y-3075340D01*
G01Y-3090150D02*
X1119860Y-3081680D01*
X1110210Y-3077450D01*
X1098950Y-3075340D01*
X1087690Y-3079570D01*
X1078040Y-3088030D01*
X1071600Y-3100730D01*
X1068380Y-3117670D01*
X1071600Y-3134600D01*
X1078040Y-3147300D01*
X1087690Y-3155770D01*
X1098950Y-3160000D01*
X1110210Y-3157880D01*
X1119860Y-3151540D01*
X1126300Y-3143070D01*
G01X1255840Y-3033000D02*
Y-3160000D01*
G01Y-3140950D02*
X1249400Y-3151540D01*
X1239750Y-3157880D01*
X1228490Y-3160000D01*
X1215620Y-3155770D01*
X1205970Y-3145190D01*
X1199530Y-3132490D01*
X1197920Y-3117670D01*
X1199530Y-3102850D01*
X1205970Y-3090150D01*
X1215620Y-3079570D01*
X1228490Y-3075340D01*
X1239750Y-3077450D01*
X1247790Y-3081680D01*
X1255840Y-3090150D01*
G01X1714030Y-1760000D02*
G03I-604030J0D01*
G01X742870Y-313000D02*
Y-404020D01*
X749300Y-423070D01*
X762170Y-435770D01*
X778260Y-440000D01*
X794350Y-435770D01*
X807220Y-423070D01*
X813650Y-404020D01*
Y-313000D01*
G01X867580Y-440000D02*
X907800Y-313000D01*
X948020Y-440000D01*
G01X933540Y-395550D02*
X882060D01*
G01X1005170Y-440000D02*
Y-313000D01*
X1045380D01*
X1058250Y-319350D01*
X1066300Y-327820D01*
X1069510Y-344750D01*
X1066300Y-361680D01*
X1056640Y-372270D01*
X1045380Y-378620D01*
X1005170D01*
G01X1045380D02*
X1069510Y-440000D01*
G01X1166880Y-313000D02*
Y-440000D01*
G01X1129880Y-313000D02*
X1203880D01*
G01X732870Y-564600D02*
X742520Y-579420D01*
X755390Y-587880D01*
X769870Y-590000D01*
X782740Y-587880D01*
X795610Y-577300D01*
X803650Y-564600D01*
X805260Y-551900D01*
X802040Y-537090D01*
X790780Y-526500D01*
X779520Y-522270D01*
X765040D01*
G01X779520D02*
X789170Y-515920D01*
X797220Y-505340D01*
X800430Y-492630D01*
X797220Y-479930D01*
X789170Y-469350D01*
X774690Y-463000D01*
X760220Y-465120D01*
X745740Y-473580D01*
G01X897800Y-594230D02*
X894580Y-592120D01*
Y-587880D01*
X897800Y-585770D01*
X901020Y-587880D01*
Y-592120D01*
X897800Y-594230D01*
G01X991950Y-564600D02*
X1001600Y-579420D01*
X1014470Y-587880D01*
X1028950Y-590000D01*
X1041820Y-587880D01*
X1054690Y-577300D01*
X1062730Y-564600D01*
X1064340Y-551900D01*
X1061120Y-537090D01*
X1049860Y-526500D01*
X1038600Y-522270D01*
X1024120D01*
G01X1038600D02*
X1048250Y-515920D01*
X1056300Y-505340D01*
X1059510Y-492630D01*
X1056300Y-479930D01*
X1048250Y-469350D01*
X1033770Y-463000D01*
X1019300Y-465120D01*
X1004820Y-473580D01*
G01X1116660Y-463000D02*
X1156880Y-590000D01*
X1197100Y-463000D01*
G01X1321130Y-7412270D02*
X1327560Y-7405920D01*
X1332390Y-7395340D01*
X1335610Y-7380510D01*
X1332390Y-7367820D01*
X1325960Y-7359350D01*
X1314690Y-7353000D01*
X1271260D01*
Y-7480000D01*
X1324350D01*
X1335610Y-7471540D01*
X1342040Y-7458830D01*
X1345260Y-7444020D01*
X1342040Y-7429200D01*
X1332390Y-7416500D01*
X1321130Y-7412270D01*
X1271260D01*
G01X1402410Y-7353000D02*
Y-7444020D01*
X1408840Y-7463070D01*
X1421710Y-7475770D01*
X1437800Y-7480000D01*
X1453890Y-7475770D01*
X1466760Y-7463070D01*
X1473190Y-7444020D01*
Y-7353000D01*
G01X1567340D02*
Y-7480000D01*
G01X1530340Y-7353000D02*
X1604340D01*
G01X1716180Y-7480000D02*
Y-7353000D01*
X1656660Y-7444020D01*
X1737100D01*
G01X1321130Y-6872270D02*
X1327560Y-6865920D01*
X1332390Y-6855340D01*
X1335610Y-6840510D01*
X1332390Y-6827820D01*
X1325960Y-6819350D01*
X1314690Y-6813000D01*
X1271260D01*
Y-6940000D01*
X1324350D01*
X1335610Y-6931540D01*
X1342040Y-6918830D01*
X1345260Y-6904020D01*
X1342040Y-6889200D01*
X1332390Y-6876500D01*
X1321130Y-6872270D01*
X1271260D01*
G01X1402410Y-6813000D02*
Y-6904020D01*
X1408840Y-6923070D01*
X1421710Y-6935770D01*
X1437800Y-6940000D01*
X1453890Y-6935770D01*
X1466760Y-6923070D01*
X1473190Y-6904020D01*
Y-6813000D01*
G01X1567340D02*
Y-6940000D01*
G01X1530340Y-6813000D02*
X1604340D01*
G01X1661490Y-6914600D02*
X1671140Y-6929420D01*
X1684010Y-6937880D01*
X1698490Y-6940000D01*
X1711360Y-6937880D01*
X1724230Y-6927300D01*
X1732270Y-6914600D01*
X1733880Y-6901900D01*
X1730660Y-6887090D01*
X1719400Y-6876500D01*
X1708140Y-6872270D01*
X1693660D01*
G01X1708140D02*
X1717790Y-6865920D01*
X1725840Y-6855340D01*
X1729050Y-6842630D01*
X1725840Y-6829930D01*
X1717790Y-6819350D01*
X1703310Y-6813000D01*
X1688840Y-6815120D01*
X1674360Y-6823580D01*
G01X984000Y-4595940D02*
X972740Y-4587470D01*
X963090Y-4585360D01*
X950220Y-4589590D01*
X940560Y-4598050D01*
X934130Y-4612870D01*
X932520Y-4627690D01*
X934130Y-4642510D01*
X940560Y-4655210D01*
X950220Y-4665790D01*
X963090Y-4670020D01*
X974350Y-4665790D01*
X984000Y-4657320D01*
G01X1063670Y-4612870D02*
X1115150D01*
X1110320Y-4598050D01*
X1102280Y-4589590D01*
X1091020Y-4585360D01*
X1079760Y-4587470D01*
X1070100Y-4593820D01*
X1063670Y-4608640D01*
X1060450Y-4621340D01*
Y-4634040D01*
X1063670Y-4646740D01*
X1071710Y-4659440D01*
X1081370Y-4667900D01*
X1092630Y-4670020D01*
X1103890Y-4665790D01*
X1115150Y-4653090D01*
G01X1217340Y-4670020D02*
Y-4543020D01*
G01X1346880Y-4670020D02*
Y-4543020D01*
G01X896090Y-4383000D02*
Y-4510000D01*
X960430D01*
G01X1057800D02*
X1048150Y-4507880D01*
X1038500Y-4499420D01*
X1032060Y-4484600D01*
X1028840Y-4467670D01*
X1032060Y-4450730D01*
X1038500Y-4435920D01*
X1048150Y-4427450D01*
X1057800Y-4425340D01*
X1067450Y-4427450D01*
X1077100Y-4435920D01*
X1083540Y-4450730D01*
X1085150Y-4467670D01*
X1083540Y-4484600D01*
X1077100Y-4499420D01*
X1067450Y-4507880D01*
X1057800Y-4510000D01*
G01X1216300D02*
Y-4425340D01*
G01Y-4440150D02*
X1209860Y-4431680D01*
X1200210Y-4427450D01*
X1188950Y-4425340D01*
X1177690Y-4429570D01*
X1168040Y-4438030D01*
X1161600Y-4450730D01*
X1158380Y-4467670D01*
X1161600Y-4484600D01*
X1168040Y-4497300D01*
X1177690Y-4505770D01*
X1188950Y-4510000D01*
X1200210Y-4507880D01*
X1209860Y-4501540D01*
X1216300Y-4493070D01*
G01X1345840Y-4383000D02*
Y-4510000D01*
G01Y-4490950D02*
X1339400Y-4501540D01*
X1329750Y-4507880D01*
X1318490Y-4510000D01*
X1305620Y-4505770D01*
X1295970Y-4495190D01*
X1289530Y-4482490D01*
X1287920Y-4467670D01*
X1289530Y-4452850D01*
X1295970Y-4440150D01*
X1305620Y-4429570D01*
X1318490Y-4425340D01*
X1329750Y-4427450D01*
X1337790Y-4431680D01*
X1345840Y-4440150D01*
G01X2133500Y-665700D02*
Y-655540D01*
X2006500D01*
Y-665700D01*
X2133500D01*
Y-894300D01*
X2006500D01*
Y-665700D01*
G01X1993500D02*
Y-655540D01*
X1866500D01*
Y-665700D01*
X1993500D01*
Y-894300D01*
X1866500D01*
Y-665700D01*
G01X2133500Y-655540D02*
Y-645380D01*
X2006500D01*
Y-655540D01*
G01X1993500D02*
Y-645380D01*
X1866500D01*
Y-655540D01*
G01X2494210Y-4038420D02*
Y-3911420D01*
X2534420D01*
X2547290Y-3917770D01*
X2555340Y-3926240D01*
X2558550Y-3943170D01*
X2555340Y-3960100D01*
X2545680Y-3970690D01*
X2534420Y-3977040D01*
X2494210D01*
G01X2534420D02*
X2558550Y-4038420D01*
G01X2620530Y-4013020D02*
X2630180Y-4027840D01*
X2643050Y-4036300D01*
X2657530Y-4038420D01*
X2670400Y-4036300D01*
X2683270Y-4025720D01*
X2691310Y-4013020D01*
X2692920Y-4000320D01*
X2689700Y-3985510D01*
X2678440Y-3974920D01*
X2667180Y-3970690D01*
X2652700D01*
G01X2667180D02*
X2676830Y-3964340D01*
X2684880Y-3953760D01*
X2688090Y-3941050D01*
X2684880Y-3928350D01*
X2676830Y-3917770D01*
X2662350Y-3911420D01*
X2647880Y-3913540D01*
X2633400Y-3922000D01*
G01X2782240Y-4038420D02*
X2785460Y-4010910D01*
X2790290Y-3987620D01*
X2796720Y-3966450D01*
X2804760Y-3943170D01*
X2817630Y-3911420D01*
X2753290D01*
G01X2512840Y-4061580D02*
X2787160D01*
Y-4178420D01*
X2512840D01*
Y-4061580D01*
G01X2504210Y-4488420D02*
Y-4361420D01*
X2544420D01*
X2557290Y-4367770D01*
X2565340Y-4376240D01*
X2568550Y-4393170D01*
X2565340Y-4410100D01*
X2555680Y-4420690D01*
X2544420Y-4427040D01*
X2504210D01*
G01X2544420D02*
X2568550Y-4488420D01*
G01X2630530Y-4463020D02*
X2640180Y-4477840D01*
X2653050Y-4486300D01*
X2667530Y-4488420D01*
X2680400Y-4486300D01*
X2693270Y-4475720D01*
X2701310Y-4463020D01*
X2702920Y-4450320D01*
X2699700Y-4435510D01*
X2688440Y-4424920D01*
X2677180Y-4420690D01*
X2662700D01*
G01X2677180D02*
X2686830Y-4414340D01*
X2694880Y-4403760D01*
X2698090Y-4391050D01*
X2694880Y-4378350D01*
X2686830Y-4367770D01*
X2672350Y-4361420D01*
X2657880Y-4363540D01*
X2643400Y-4372000D01*
G01X2795460Y-4488420D02*
X2806720Y-4486300D01*
X2819590Y-4479960D01*
X2827630Y-4469370D01*
X2830850Y-4454550D01*
X2827630Y-4439740D01*
X2817980Y-4427040D01*
X2803500Y-4420690D01*
X2787420D01*
X2777760Y-4416450D01*
X2769720Y-4405870D01*
X2766500Y-4391050D01*
X2771330Y-4376240D01*
X2782590Y-4365650D01*
X2795460Y-4361420D01*
X2808330Y-4365650D01*
X2819590Y-4376240D01*
X2824420Y-4391050D01*
X2821200Y-4405870D01*
X2813160Y-4416450D01*
X2803500Y-4420690D01*
X2787420D01*
X2772940Y-4427040D01*
X2763290Y-4439740D01*
X2760070Y-4454550D01*
X2763290Y-4469370D01*
X2771330Y-4479960D01*
X2784200Y-4486300D01*
X2795460Y-4488420D01*
G01X2512840Y-4221580D02*
X2787160D01*
Y-4338420D01*
X2512840D01*
Y-4221580D01*
G01X2634890Y-3216320D02*
X2625240Y-3209970D01*
X2613980Y-3205740D01*
X2601110D01*
X2586630Y-3212090D01*
X2575370Y-3222670D01*
X2567330Y-3235370D01*
X2560890Y-3256540D01*
X2559280Y-3275590D01*
X2562500Y-3294640D01*
X2567330Y-3307340D01*
X2576980Y-3320040D01*
X2588240Y-3328510D01*
X2599500Y-3332740D01*
X2610760D01*
X2622020Y-3328510D01*
X2631670Y-3322160D01*
X2639720Y-3313690D01*
G01X2698470Y-3226910D02*
X2708130Y-3214210D01*
X2719390Y-3207860D01*
X2732260Y-3205740D01*
X2748340Y-3209970D01*
X2759610Y-3220560D01*
X2762820Y-3233250D01*
X2761210Y-3245960D01*
X2754780Y-3256540D01*
X2722610Y-3277710D01*
X2708130Y-3292520D01*
X2698470Y-3313690D01*
X2695260Y-3332740D01*
X2762820D01*
G01X2858580D02*
Y-3205740D01*
X2839280Y-3231140D01*
G01Y-3332740D02*
X2877880D01*
G01X2858900Y-3377600D02*
Y-3682400D01*
X2841120Y-3700180D01*
X2698880D01*
X2681100Y-3682400D01*
Y-3377600D01*
X2698880Y-3359820D01*
X2841120D01*
X2858900Y-3377600D01*
G01X2274210Y-2868420D02*
Y-2741420D01*
X2314420D01*
X2327290Y-2747770D01*
X2335340Y-2756240D01*
X2338550Y-2773170D01*
X2335340Y-2790100D01*
X2325680Y-2800690D01*
X2314420Y-2807040D01*
X2274210D01*
G01X2314420D02*
X2338550Y-2868420D01*
G01X2405350Y-2762590D02*
X2415010Y-2749890D01*
X2426270Y-2743540D01*
X2439140Y-2741420D01*
X2455220Y-2745650D01*
X2466490Y-2756240D01*
X2469700Y-2768930D01*
X2468090Y-2781640D01*
X2461660Y-2792220D01*
X2429490Y-2813390D01*
X2415010Y-2828200D01*
X2405350Y-2849370D01*
X2402140Y-2868420D01*
X2469700D01*
G01X2534890Y-2815510D02*
X2546160Y-2800690D01*
X2555810Y-2792220D01*
X2568680Y-2787990D01*
X2579940Y-2792220D01*
X2587980Y-2800690D01*
X2594420Y-2813390D01*
X2596030Y-2828200D01*
X2594420Y-2840910D01*
X2587980Y-2853610D01*
X2578330Y-2864190D01*
X2567070Y-2868420D01*
X2554200Y-2864190D01*
X2542940Y-2851490D01*
X2536500Y-2832440D01*
X2534890Y-2811270D01*
X2538110Y-2783760D01*
X2542940Y-2768930D01*
X2550980Y-2754120D01*
X2562240Y-2743540D01*
X2573500Y-2741420D01*
X2584760Y-2745650D01*
X2592810Y-2756240D01*
G01X2632840Y-2731580D02*
X2907160D01*
Y-2848420D01*
X2632840D01*
Y-2731580D01*
G01X2604210Y-3138420D02*
Y-3011420D01*
X2644420D01*
X2657290Y-3017770D01*
X2665340Y-3026240D01*
X2668550Y-3043170D01*
X2665340Y-3060100D01*
X2655680Y-3070690D01*
X2644420Y-3077040D01*
X2604210D01*
G01X2644420D02*
X2668550Y-3138420D01*
G01X2735350Y-3032590D02*
X2745010Y-3019890D01*
X2756270Y-3013540D01*
X2769140Y-3011420D01*
X2785220Y-3015650D01*
X2796490Y-3026240D01*
X2799700Y-3038930D01*
X2798090Y-3051640D01*
X2791660Y-3062220D01*
X2759490Y-3083390D01*
X2745010Y-3098200D01*
X2735350Y-3119370D01*
X2732140Y-3138420D01*
X2799700D01*
G01X2895460D02*
X2906720Y-3136300D01*
X2919590Y-3129960D01*
X2927630Y-3119370D01*
X2930850Y-3104550D01*
X2927630Y-3089740D01*
X2917980Y-3077040D01*
X2903500Y-3070690D01*
X2887420D01*
X2877760Y-3066450D01*
X2869720Y-3055870D01*
X2866500Y-3041050D01*
X2871330Y-3026240D01*
X2882590Y-3015650D01*
X2895460Y-3011420D01*
X2908330Y-3015650D01*
X2919590Y-3026240D01*
X2924420Y-3041050D01*
X2921200Y-3055870D01*
X2913160Y-3066450D01*
X2903500Y-3070690D01*
X2887420D01*
X2872940Y-3077040D01*
X2863290Y-3089740D01*
X2860070Y-3104550D01*
X2863290Y-3119370D01*
X2871330Y-3129960D01*
X2884200Y-3136300D01*
X2895460Y-3138420D01*
G01X2632840Y-2871580D02*
X2907160D01*
Y-2988420D01*
X2632840D01*
Y-2871580D01*
G01X2671450Y-2587080D02*
X2661800Y-2580730D01*
X2650540Y-2576500D01*
X2637670D01*
X2623190Y-2582850D01*
X2611930Y-2593430D01*
X2603890Y-2606130D01*
X2597450Y-2627300D01*
X2595840Y-2646350D01*
X2599060Y-2665400D01*
X2603890Y-2678100D01*
X2613540Y-2690800D01*
X2624800Y-2699270D01*
X2636060Y-2703500D01*
X2647320D01*
X2658580Y-2699270D01*
X2668230Y-2692920D01*
X2676280Y-2684450D01*
G01X2765600Y-2703500D02*
Y-2576500D01*
X2746300Y-2601900D01*
G01Y-2703500D02*
X2784900D01*
G01X2891920D02*
X2895140Y-2675990D01*
X2899970Y-2652700D01*
X2906400Y-2631530D01*
X2914440Y-2608250D01*
X2927310Y-2576500D01*
X2862970D01*
G01X2264210Y-2558420D02*
Y-2431420D01*
X2304420D01*
X2317290Y-2437770D01*
X2325340Y-2446240D01*
X2328550Y-2463170D01*
X2325340Y-2480100D01*
X2315680Y-2490690D01*
X2304420Y-2497040D01*
X2264210D01*
G01X2304420D02*
X2328550Y-2558420D01*
G01X2395350Y-2452590D02*
X2405010Y-2439890D01*
X2416270Y-2433540D01*
X2429140Y-2431420D01*
X2445220Y-2435650D01*
X2456490Y-2446240D01*
X2459700Y-2458930D01*
X2458090Y-2471640D01*
X2451660Y-2482220D01*
X2419490Y-2503390D01*
X2405010Y-2518200D01*
X2395350Y-2539370D01*
X2392140Y-2558420D01*
X2459700D01*
G01X2574760D02*
Y-2431420D01*
X2515240Y-2522440D01*
X2595680D01*
G01X2267970Y-2411580D02*
Y-2284580D01*
X2308180D01*
X2321050Y-2290930D01*
X2329100Y-2299400D01*
X2332310Y-2316330D01*
X2329100Y-2333260D01*
X2319440Y-2343850D01*
X2308180Y-2350200D01*
X2267970D01*
G01X2308180D02*
X2332310Y-2411580D01*
G01X2399110Y-2305750D02*
X2408770Y-2293050D01*
X2420030Y-2286700D01*
X2432900Y-2284580D01*
X2448980Y-2288810D01*
X2460250Y-2299400D01*
X2463460Y-2312090D01*
X2461850Y-2324800D01*
X2455420Y-2335380D01*
X2423250Y-2356550D01*
X2408770Y-2371360D01*
X2399110Y-2392530D01*
X2395900Y-2411580D01*
X2463460D01*
G01X2528650Y-2305750D02*
X2538310Y-2293050D01*
X2549570Y-2286700D01*
X2562440Y-2284580D01*
X2578520Y-2288810D01*
X2589790Y-2299400D01*
X2593000Y-2312090D01*
X2591390Y-2324800D01*
X2584960Y-2335380D01*
X2552790Y-2356550D01*
X2538310Y-2371360D01*
X2528650Y-2392530D01*
X2525440Y-2411580D01*
X2593000D01*
G01X2596810Y-2050840D02*
X2587160Y-2044490D01*
X2575900Y-2040260D01*
X2563030D01*
X2548550Y-2046610D01*
X2537290Y-2057190D01*
X2529250Y-2069890D01*
X2522810Y-2091060D01*
X2521200Y-2110110D01*
X2524420Y-2129160D01*
X2529250Y-2141860D01*
X2538900Y-2154560D01*
X2550160Y-2163030D01*
X2561420Y-2167260D01*
X2572680D01*
X2583940Y-2163030D01*
X2593590Y-2156680D01*
X2601640Y-2148210D01*
G01X2690960Y-2167260D02*
Y-2040260D01*
X2671660Y-2065660D01*
G01Y-2167260D02*
X2710260D01*
G01X2839800D02*
Y-2040260D01*
X2780280Y-2131280D01*
X2860720D01*
G01X2621100Y-2512400D02*
Y-2207600D01*
X2638880Y-2189820D01*
X2781120D01*
X2798900Y-2207600D01*
Y-2512400D01*
X2781120Y-2530180D01*
X2638880D01*
X2621100Y-2512400D01*
G01X2145000Y-1385000D02*
X2495000D01*
Y-2135000D01*
X2145000D01*
G01X2811450Y-1747080D02*
X2801800Y-1740730D01*
X2790540Y-1736500D01*
X2777670D01*
X2763190Y-1742850D01*
X2751930Y-1753430D01*
X2743890Y-1766130D01*
X2737450Y-1787300D01*
X2735840Y-1806350D01*
X2739060Y-1825400D01*
X2743890Y-1838100D01*
X2753540Y-1850800D01*
X2764800Y-1859270D01*
X2776060Y-1863500D01*
X2787320D01*
X2798580Y-1859270D01*
X2808230Y-1852920D01*
X2816280Y-1844450D01*
G01X2924900Y-1863500D02*
Y-1736500D01*
X2865380Y-1827520D01*
X2945820D01*
G01X2801450Y-1607080D02*
X2791800Y-1600730D01*
X2780540Y-1596500D01*
X2767670D01*
X2753190Y-1602850D01*
X2741930Y-1613430D01*
X2733890Y-1626130D01*
X2727450Y-1647300D01*
X2725840Y-1666350D01*
X2729060Y-1685400D01*
X2733890Y-1698100D01*
X2743540Y-1710800D01*
X2754800Y-1719270D01*
X2766060Y-1723500D01*
X2777320D01*
X2788580Y-1719270D01*
X2798230Y-1712920D01*
X2806280Y-1704450D01*
G01X2868250Y-1708690D02*
X2879510Y-1719270D01*
X2892380Y-1723500D01*
X2905250Y-1719270D01*
X2916510Y-1706570D01*
X2924560Y-1687520D01*
X2927770Y-1668470D01*
Y-1645180D01*
X2924560Y-1626130D01*
X2916510Y-1609200D01*
X2906860Y-1600730D01*
X2895600Y-1596500D01*
X2882730Y-1600730D01*
X2873080Y-1609200D01*
X2866640Y-1621900D01*
X2863430Y-1638840D01*
X2866640Y-1653650D01*
X2874690Y-1668470D01*
X2884340Y-1676940D01*
X2895600Y-1679050D01*
X2908470Y-1674820D01*
X2918120Y-1664230D01*
X2927770Y-1645180D01*
G01X2163680Y-1243000D02*
X2231240Y-1116000D01*
G01X2163680D02*
X2231240Y-1243000D01*
G01X2293220Y-1226070D02*
X2306090Y-1236650D01*
X2320570Y-1243000D01*
X2333430D01*
X2346300Y-1236650D01*
X2355960Y-1226070D01*
X2360780Y-1211250D01*
X2357570Y-1196440D01*
X2349520Y-1183730D01*
X2335040Y-1175270D01*
X2315740Y-1171030D01*
X2304480Y-1162570D01*
X2299650Y-1147750D01*
X2302870Y-1132930D01*
X2310910Y-1122350D01*
X2322170Y-1116000D01*
X2333430D01*
X2344700Y-1120230D01*
X2354350Y-1130820D01*
G01X2425970Y-1137170D02*
X2435630Y-1124470D01*
X2446890Y-1118120D01*
X2459760Y-1116000D01*
X2475840Y-1120230D01*
X2487110Y-1130820D01*
X2490320Y-1143510D01*
X2488710Y-1156220D01*
X2482280Y-1166800D01*
X2450110Y-1187970D01*
X2435630Y-1202780D01*
X2425970Y-1223950D01*
X2422760Y-1243000D01*
X2490320D01*
G01X2304580Y-964520D02*
X2431580Y-924300D01*
X2304580Y-884080D01*
G01X2431580Y-830150D02*
X2304580D01*
Y-797980D01*
X2310930Y-785110D01*
X2319400Y-775460D01*
X2332090Y-767410D01*
X2346920Y-760980D01*
X2368080Y-759370D01*
X2389250Y-760980D01*
X2404070Y-767410D01*
X2416770Y-775460D01*
X2425230Y-785110D01*
X2431580Y-797980D01*
Y-830150D01*
G01Y-645920D02*
X2304580D01*
X2395600Y-705440D01*
Y-625000D01*
G01X2154580Y-964520D02*
X2281580Y-924300D01*
X2154580Y-884080D01*
G01X2281580Y-830150D02*
X2154580D01*
Y-797980D01*
X2160930Y-785110D01*
X2169400Y-775460D01*
X2182090Y-767410D01*
X2196920Y-760980D01*
X2218080Y-759370D01*
X2239250Y-760980D01*
X2254070Y-767410D01*
X2266770Y-775460D01*
X2275230Y-785110D01*
X2281580Y-797980D01*
Y-830150D01*
G01X2262530Y-700610D02*
X2273120Y-690960D01*
X2279460Y-679700D01*
X2281580Y-665220D01*
X2277350Y-650740D01*
X2268880Y-639480D01*
X2254070Y-631440D01*
X2237130Y-629830D01*
X2220200Y-633050D01*
X2209610Y-641090D01*
X2201150Y-652350D01*
X2199030Y-663610D01*
X2201150Y-674870D01*
X2209610Y-689350D01*
X2154580Y-684520D01*
Y-641090D01*
G01X2857080Y-4628550D02*
X2850730Y-4638200D01*
X2846500Y-4649460D01*
Y-4662330D01*
X2852850Y-4676810D01*
X2863430Y-4688070D01*
X2876130Y-4696110D01*
X2897300Y-4702550D01*
X2916350Y-4704160D01*
X2935400Y-4700940D01*
X2948100Y-4696110D01*
X2960800Y-4686460D01*
X2969270Y-4675200D01*
X2973500Y-4663940D01*
Y-4652680D01*
X2969270Y-4641420D01*
X2962920Y-4631770D01*
X2954450Y-4623720D01*
G01X2867670Y-4564970D02*
X2854970Y-4555310D01*
X2848620Y-4544050D01*
X2846500Y-4531180D01*
X2850730Y-4515100D01*
X2861320Y-4503830D01*
X2874010Y-4500620D01*
X2886720Y-4502230D01*
X2897300Y-4508660D01*
X2918470Y-4540830D01*
X2933280Y-4555310D01*
X2954450Y-4564970D01*
X2973500Y-4568180D01*
Y-4500620D01*
G01X2948100Y-4440250D02*
X2962920Y-4430600D01*
X2971380Y-4417730D01*
X2973500Y-4403250D01*
X2971380Y-4390380D01*
X2960800Y-4377510D01*
X2948100Y-4369470D01*
X2935400Y-4367860D01*
X2920590Y-4371080D01*
X2910000Y-4382340D01*
X2905770Y-4393600D01*
Y-4408080D01*
G01Y-4393600D02*
X2899420Y-4383950D01*
X2888840Y-4375900D01*
X2876130Y-4372690D01*
X2863430Y-4375900D01*
X2852850Y-4383950D01*
X2846500Y-4398430D01*
X2848620Y-4412900D01*
X2857080Y-4427380D01*
G01X2994210Y-4358420D02*
Y-4231420D01*
X3034420D01*
X3047290Y-4237770D01*
X3055340Y-4246240D01*
X3058550Y-4263170D01*
X3055340Y-4280100D01*
X3045680Y-4290690D01*
X3034420Y-4297040D01*
X2994210D01*
G01X3034420D02*
X3058550Y-4358420D01*
G01X3120530Y-4333020D02*
X3130180Y-4347840D01*
X3143050Y-4356300D01*
X3157530Y-4358420D01*
X3170400Y-4356300D01*
X3183270Y-4345720D01*
X3191310Y-4333020D01*
X3192920Y-4320320D01*
X3189700Y-4305510D01*
X3178440Y-4294920D01*
X3167180Y-4290690D01*
X3152700D01*
G01X3167180D02*
X3176830Y-4284340D01*
X3184880Y-4273760D01*
X3188090Y-4261050D01*
X3184880Y-4248350D01*
X3176830Y-4237770D01*
X3162350Y-4231420D01*
X3147880Y-4233540D01*
X3133400Y-4242000D01*
G01X3304760Y-4358420D02*
Y-4231420D01*
X3245240Y-4322440D01*
X3325680D01*
G01X2997970Y-4211580D02*
Y-4084580D01*
X3038180D01*
X3051050Y-4090930D01*
X3059100Y-4099400D01*
X3062310Y-4116330D01*
X3059100Y-4133260D01*
X3049440Y-4143850D01*
X3038180Y-4150200D01*
X2997970D01*
G01X3038180D02*
X3062310Y-4211580D01*
G01X3124290Y-4186180D02*
X3133940Y-4201000D01*
X3146810Y-4209460D01*
X3161290Y-4211580D01*
X3174160Y-4209460D01*
X3187030Y-4198880D01*
X3195070Y-4186180D01*
X3196680Y-4173480D01*
X3193460Y-4158670D01*
X3182200Y-4148080D01*
X3170940Y-4143850D01*
X3156460D01*
G01X3170940D02*
X3180590Y-4137500D01*
X3188640Y-4126920D01*
X3191850Y-4114210D01*
X3188640Y-4101510D01*
X3180590Y-4090930D01*
X3166110Y-4084580D01*
X3151640Y-4086700D01*
X3137160Y-4095160D01*
G01X3258650Y-4105750D02*
X3268310Y-4093050D01*
X3279570Y-4086700D01*
X3292440Y-4084580D01*
X3308520Y-4088810D01*
X3319790Y-4099400D01*
X3323000Y-4112090D01*
X3321390Y-4124800D01*
X3314960Y-4135380D01*
X3282790Y-4156550D01*
X3268310Y-4171360D01*
X3258650Y-4192530D01*
X3255440Y-4211580D01*
X3323000D01*
G01X2854120Y-4319380D02*
Y-4080620D01*
X2869360Y-4065380D01*
X2950640D01*
X2965880Y-4080620D01*
Y-4319380D01*
X2950640Y-4334620D01*
X2869360D01*
X2854120Y-4319380D01*
G01X3061450Y-4397080D02*
X3051800Y-4390730D01*
X3040540Y-4386500D01*
X3027670D01*
X3013190Y-4392850D01*
X3001930Y-4403430D01*
X2993890Y-4416130D01*
X2987450Y-4437300D01*
X2985840Y-4456350D01*
X2989060Y-4475400D01*
X2993890Y-4488100D01*
X3003540Y-4500800D01*
X3014800Y-4509270D01*
X3026060Y-4513500D01*
X3037320D01*
X3048580Y-4509270D01*
X3058230Y-4502920D01*
X3066280Y-4494450D01*
G01X3125030Y-4407670D02*
X3134690Y-4394970D01*
X3145950Y-4388620D01*
X3158820Y-4386500D01*
X3174900Y-4390730D01*
X3186170Y-4401320D01*
X3189380Y-4414010D01*
X3187770Y-4426720D01*
X3181340Y-4437300D01*
X3149170Y-4458470D01*
X3134690Y-4473280D01*
X3125030Y-4494450D01*
X3121820Y-4513500D01*
X3189380D01*
G01X3285140Y-4386500D02*
X3272270Y-4390730D01*
X3262620Y-4401320D01*
X3256180Y-4414010D01*
X3251360Y-4430950D01*
X3249750Y-4450000D01*
X3251360Y-4469050D01*
X3256180Y-4485990D01*
X3262620Y-4498690D01*
X3272270Y-4509270D01*
X3285140Y-4513500D01*
X3298010Y-4509270D01*
X3307660Y-4498690D01*
X3314100Y-4485990D01*
X3318920Y-4469050D01*
X3320530Y-4450000D01*
X3318920Y-4430950D01*
X3314100Y-4414010D01*
X3307660Y-4401320D01*
X3298010Y-4390730D01*
X3285140Y-4386500D01*
G01X3010620Y-3954120D02*
X3249380D01*
X3264620Y-3969360D01*
Y-4050640D01*
X3249380Y-4065880D01*
X3010620D01*
X2995380Y-4050640D01*
Y-3969360D01*
X3010620Y-3954120D01*
G01X2992840Y-3831580D02*
X3267160D01*
Y-3948420D01*
X2992840D01*
Y-3831580D01*
G01X3267160Y-3818420D02*
X2992840D01*
Y-3701580D01*
X3267160D01*
Y-3818420D01*
G01X3127080Y-2988550D02*
X3120730Y-2998200D01*
X3116500Y-3009460D01*
Y-3022330D01*
X3122850Y-3036810D01*
X3133430Y-3048070D01*
X3146130Y-3056110D01*
X3167300Y-3062550D01*
X3186350Y-3064160D01*
X3205400Y-3060940D01*
X3218100Y-3056110D01*
X3230800Y-3046460D01*
X3239270Y-3035200D01*
X3243500Y-3023940D01*
Y-3012680D01*
X3239270Y-3001420D01*
X3232920Y-2991770D01*
X3224450Y-2983720D01*
G01X3137670Y-2924970D02*
X3124970Y-2915310D01*
X3118620Y-2904050D01*
X3116500Y-2891180D01*
X3120730Y-2875100D01*
X3131320Y-2863830D01*
X3144010Y-2860620D01*
X3156720Y-2862230D01*
X3167300Y-2868660D01*
X3188470Y-2900830D01*
X3203280Y-2915310D01*
X3224450Y-2924970D01*
X3243500Y-2928180D01*
Y-2860620D01*
G01X3137670Y-2795430D02*
X3124970Y-2785770D01*
X3118620Y-2774510D01*
X3116500Y-2761640D01*
X3120730Y-2745560D01*
X3131320Y-2734290D01*
X3144010Y-2731080D01*
X3156720Y-2732690D01*
X3167300Y-2739120D01*
X3188470Y-2771290D01*
X3203280Y-2785770D01*
X3224450Y-2795430D01*
X3243500Y-2798640D01*
Y-2731080D01*
G01X2984120Y-2989380D02*
Y-2750620D01*
X2999360Y-2735380D01*
X3080640D01*
X3095880Y-2750620D01*
Y-2989380D01*
X3080640Y-3004620D01*
X2999360D01*
X2984120Y-2989380D01*
G01X2992840Y-2461580D02*
X3267160D01*
Y-2578420D01*
X2992840D01*
Y-2461580D01*
G01X3267160Y-2448420D02*
X2992840D01*
Y-2331580D01*
X3267160D01*
Y-2448420D01*
G01X3010620Y-2594120D02*
X3249380D01*
X3264620Y-2609360D01*
Y-2690640D01*
X3249380Y-2705880D01*
X3010620D01*
X2995380Y-2690640D01*
Y-2609360D01*
X3010620Y-2594120D01*
G01X3290620Y-1604120D02*
X3529380D01*
X3544620Y-1619360D01*
Y-1700640D01*
X3529380Y-1715880D01*
X3290620D01*
X3275380Y-1700640D01*
Y-1619360D01*
X3290620Y-1604120D01*
G01X3624210Y-4598420D02*
Y-4471420D01*
X3664420D01*
X3677290Y-4477770D01*
X3685340Y-4486240D01*
X3688550Y-4503170D01*
X3685340Y-4520100D01*
X3675680Y-4530690D01*
X3664420Y-4537040D01*
X3624210D01*
G01X3664420D02*
X3688550Y-4598420D01*
G01X3805220D02*
Y-4471420D01*
X3745700Y-4562440D01*
X3826140D01*
G01X3884890Y-4492590D02*
X3894550Y-4479890D01*
X3905810Y-4473540D01*
X3918680Y-4471420D01*
X3934760Y-4475650D01*
X3946030Y-4486240D01*
X3949240Y-4498930D01*
X3947630Y-4511640D01*
X3941200Y-4522220D01*
X3909030Y-4543390D01*
X3894550Y-4558200D01*
X3884890Y-4579370D01*
X3881680Y-4598420D01*
X3949240D01*
G01X3624210Y-4438420D02*
Y-4311420D01*
X3664420D01*
X3677290Y-4317770D01*
X3685340Y-4326240D01*
X3688550Y-4343170D01*
X3685340Y-4360100D01*
X3675680Y-4370690D01*
X3664420Y-4377040D01*
X3624210D01*
G01X3664420D02*
X3688550Y-4438420D01*
G01X3805220D02*
Y-4311420D01*
X3745700Y-4402440D01*
X3826140D01*
G01X3915460Y-4438420D02*
Y-4311420D01*
X3896160Y-4336820D01*
G01Y-4438420D02*
X3934760D01*
G01X3712620Y-3176890D02*
X3706270Y-3186540D01*
X3702040Y-3197800D01*
Y-3210670D01*
X3708390Y-3225150D01*
X3718970Y-3236410D01*
X3731670Y-3244450D01*
X3752840Y-3250890D01*
X3771890Y-3252500D01*
X3790940Y-3249280D01*
X3803640Y-3244450D01*
X3816340Y-3234800D01*
X3824810Y-3223540D01*
X3829040Y-3212280D01*
Y-3201020D01*
X3824810Y-3189760D01*
X3818460Y-3180110D01*
X3809990Y-3172060D01*
G01X3829040Y-3082740D02*
X3702040D01*
X3727440Y-3102040D01*
G01X3829040D02*
Y-3063440D01*
G01X3814230Y-2980550D02*
X3824810Y-2969290D01*
X3829040Y-2956420D01*
X3824810Y-2943550D01*
X3812110Y-2932290D01*
X3793060Y-2924240D01*
X3774010Y-2921030D01*
X3750720D01*
X3731670Y-2924240D01*
X3714740Y-2932290D01*
X3706270Y-2941940D01*
X3702040Y-2953200D01*
X3706270Y-2966070D01*
X3714740Y-2975720D01*
X3727440Y-2982160D01*
X3744380Y-2985370D01*
X3759190Y-2982160D01*
X3774010Y-2974110D01*
X3782480Y-2964460D01*
X3784590Y-2953200D01*
X3780360Y-2940330D01*
X3769770Y-2930680D01*
X3750720Y-2921030D01*
G01X3658900Y-2927600D02*
Y-3232400D01*
X3641120Y-3250180D01*
X3498880D01*
X3481100Y-3232400D01*
Y-2927600D01*
X3498880Y-2909820D01*
X3641120D01*
X3658900Y-2927600D01*
G01X4015880Y-2990620D02*
Y-3229380D01*
X4000640Y-3244620D01*
X3919360D01*
X3904120Y-3229380D01*
Y-2990620D01*
X3919360Y-2975380D01*
X4000640D01*
X4015880Y-2990620D01*
G01X4212400Y-1828900D02*
X3907600D01*
X3889820Y-1811120D01*
Y-1668880D01*
X3907600Y-1651100D01*
X4212400D01*
X4230180Y-1668880D01*
Y-1811120D01*
X4212400Y-1828900D01*
G01X3470620Y-1754120D02*
X3709380D01*
X3724620Y-1769360D01*
Y-1850640D01*
X3709380Y-1865880D01*
X3470620D01*
X3455380Y-1850640D01*
Y-1769360D01*
X3470620Y-1754120D01*
G01X4052840Y-4321580D02*
X4327160D01*
Y-4438420D01*
X4052840D01*
Y-4321580D01*
G01Y-4461580D02*
X4327160D01*
Y-4578420D01*
X4052840D01*
Y-4461580D01*
G01X4647160Y-4358420D02*
X4372840D01*
Y-4241580D01*
X4647160D01*
Y-4358420D01*
G01X4657160Y-4578420D02*
X4382840D01*
Y-4461580D01*
X4657160D01*
Y-4578420D01*
G01X4220150Y-3881380D02*
X4210500Y-3875030D01*
X4199240Y-3870800D01*
X4186370D01*
X4171890Y-3877150D01*
X4160630Y-3887730D01*
X4152590Y-3900430D01*
X4146150Y-3921600D01*
X4144540Y-3940650D01*
X4147760Y-3959700D01*
X4152590Y-3972400D01*
X4162240Y-3985100D01*
X4173500Y-3993570D01*
X4184760Y-3997800D01*
X4196020D01*
X4207280Y-3993570D01*
X4216930Y-3987220D01*
X4224980Y-3978750D01*
G01X4283730Y-3891970D02*
X4293390Y-3879270D01*
X4304650Y-3872920D01*
X4317520Y-3870800D01*
X4333600Y-3875030D01*
X4344870Y-3885620D01*
X4348080Y-3898310D01*
X4346470Y-3911020D01*
X4340040Y-3921600D01*
X4307870Y-3942770D01*
X4293390Y-3957580D01*
X4283730Y-3978750D01*
X4280520Y-3997800D01*
X4348080D01*
G01X4463140D02*
Y-3870800D01*
X4403620Y-3961820D01*
X4484060D01*
G01X4325880Y-4040620D02*
Y-4279380D01*
X4310640Y-4294620D01*
X4229360D01*
X4214120Y-4279380D01*
Y-4040620D01*
X4229360Y-4025380D01*
X4310640D01*
X4325880Y-4040620D01*
G01X4597970Y-3491580D02*
Y-3364580D01*
X4638180D01*
X4651050Y-3370930D01*
X4659100Y-3379400D01*
X4662310Y-3396330D01*
X4659100Y-3413260D01*
X4649440Y-3423850D01*
X4638180Y-3430200D01*
X4597970D01*
G01X4638180D02*
X4662310Y-3491580D01*
G01X4778980D02*
Y-3364580D01*
X4719460Y-3455600D01*
X4799900D01*
G01X4889220Y-3364580D02*
X4876350Y-3368810D01*
X4866700Y-3379400D01*
X4860260Y-3392090D01*
X4855440Y-3409030D01*
X4853830Y-3428080D01*
X4855440Y-3447130D01*
X4860260Y-3464070D01*
X4866700Y-3476770D01*
X4876350Y-3487350D01*
X4889220Y-3491580D01*
X4902090Y-3487350D01*
X4911740Y-3476770D01*
X4918180Y-3464070D01*
X4923000Y-3447130D01*
X4924610Y-3428080D01*
X4923000Y-3409030D01*
X4918180Y-3392090D01*
X4911740Y-3379400D01*
X4902090Y-3368810D01*
X4889220Y-3364580D01*
G01X4517160Y-3488420D02*
X4242840D01*
Y-3371580D01*
X4517160D01*
Y-3488420D01*
G01X4594210Y-3338420D02*
Y-3211420D01*
X4634420D01*
X4647290Y-3217770D01*
X4655340Y-3226240D01*
X4658550Y-3243170D01*
X4655340Y-3260100D01*
X4645680Y-3270690D01*
X4634420Y-3277040D01*
X4594210D01*
G01X4634420D02*
X4658550Y-3338420D01*
G01X4720530Y-3313020D02*
X4730180Y-3327840D01*
X4743050Y-3336300D01*
X4757530Y-3338420D01*
X4770400Y-3336300D01*
X4783270Y-3325720D01*
X4791310Y-3313020D01*
X4792920Y-3300320D01*
X4789700Y-3285510D01*
X4778440Y-3274920D01*
X4767180Y-3270690D01*
X4752700D01*
G01X4767180D02*
X4776830Y-3264340D01*
X4784880Y-3253760D01*
X4788090Y-3241050D01*
X4784880Y-3228350D01*
X4776830Y-3217770D01*
X4762350Y-3211420D01*
X4747880Y-3213540D01*
X4733400Y-3222000D01*
G01X4858110Y-3323610D02*
X4869370Y-3334190D01*
X4882240Y-3338420D01*
X4895110Y-3334190D01*
X4906370Y-3321490D01*
X4914420Y-3302440D01*
X4917630Y-3283390D01*
Y-3260100D01*
X4914420Y-3241050D01*
X4906370Y-3224120D01*
X4896720Y-3215650D01*
X4885460Y-3211420D01*
X4872590Y-3215650D01*
X4862940Y-3224120D01*
X4856500Y-3236820D01*
X4853290Y-3253760D01*
X4856500Y-3268570D01*
X4864550Y-3283390D01*
X4874200Y-3291860D01*
X4885460Y-3293970D01*
X4898330Y-3289740D01*
X4907980Y-3279150D01*
X4917630Y-3260100D01*
G01X4604210Y-3638420D02*
Y-3511420D01*
X4644420D01*
X4657290Y-3517770D01*
X4665340Y-3526240D01*
X4668550Y-3543170D01*
X4665340Y-3560100D01*
X4655680Y-3570690D01*
X4644420Y-3577040D01*
X4604210D01*
G01X4644420D02*
X4668550Y-3638420D01*
G01X4730530Y-3613020D02*
X4740180Y-3627840D01*
X4753050Y-3636300D01*
X4767530Y-3638420D01*
X4780400Y-3636300D01*
X4793270Y-3625720D01*
X4801310Y-3613020D01*
X4802920Y-3600320D01*
X4799700Y-3585510D01*
X4788440Y-3574920D01*
X4777180Y-3570690D01*
X4762700D01*
G01X4777180D02*
X4786830Y-3564340D01*
X4794880Y-3553760D01*
X4798090Y-3541050D01*
X4794880Y-3528350D01*
X4786830Y-3517770D01*
X4772350Y-3511420D01*
X4757880Y-3513540D01*
X4743400Y-3522000D01*
G01X4860070Y-3619370D02*
X4869720Y-3629960D01*
X4880980Y-3636300D01*
X4895460Y-3638420D01*
X4909940Y-3634190D01*
X4921200Y-3625720D01*
X4929240Y-3610910D01*
X4930850Y-3593970D01*
X4927630Y-3577040D01*
X4919590Y-3566450D01*
X4908330Y-3557990D01*
X4897070Y-3555870D01*
X4885810Y-3557990D01*
X4871330Y-3566450D01*
X4876160Y-3511420D01*
X4919590D01*
G01X4242840Y-3521580D02*
X4517160D01*
Y-3638420D01*
X4242840D01*
Y-3521580D01*
G01X4604210Y-3788420D02*
Y-3661420D01*
X4644420D01*
X4657290Y-3667770D01*
X4665340Y-3676240D01*
X4668550Y-3693170D01*
X4665340Y-3710100D01*
X4655680Y-3720690D01*
X4644420Y-3727040D01*
X4604210D01*
G01X4644420D02*
X4668550Y-3788420D01*
G01X4730530Y-3763020D02*
X4740180Y-3777840D01*
X4753050Y-3786300D01*
X4767530Y-3788420D01*
X4780400Y-3786300D01*
X4793270Y-3775720D01*
X4801310Y-3763020D01*
X4802920Y-3750320D01*
X4799700Y-3735510D01*
X4788440Y-3724920D01*
X4777180Y-3720690D01*
X4762700D01*
G01X4777180D02*
X4786830Y-3714340D01*
X4794880Y-3703760D01*
X4798090Y-3691050D01*
X4794880Y-3678350D01*
X4786830Y-3667770D01*
X4772350Y-3661420D01*
X4757880Y-3663540D01*
X4743400Y-3672000D01*
G01X4860070Y-3763020D02*
X4869720Y-3777840D01*
X4882590Y-3786300D01*
X4897070Y-3788420D01*
X4909940Y-3786300D01*
X4922810Y-3775720D01*
X4930850Y-3763020D01*
X4932460Y-3750320D01*
X4929240Y-3735510D01*
X4917980Y-3724920D01*
X4906720Y-3720690D01*
X4892240D01*
G01X4906720D02*
X4916370Y-3714340D01*
X4924420Y-3703760D01*
X4927630Y-3691050D01*
X4924420Y-3678350D01*
X4916370Y-3667770D01*
X4901890Y-3661420D01*
X4887420Y-3663540D01*
X4872940Y-3672000D01*
G01X4242840Y-3671580D02*
X4517160D01*
Y-3788420D01*
X4242840D01*
Y-3671580D01*
G01Y-3221580D02*
X4517160D01*
Y-3338420D01*
X4242840D01*
Y-3221580D01*
G01X4130150Y-3061380D02*
X4120500Y-3055030D01*
X4109240Y-3050800D01*
X4096370D01*
X4081890Y-3057150D01*
X4070630Y-3067730D01*
X4062590Y-3080430D01*
X4056150Y-3101600D01*
X4054540Y-3120650D01*
X4057760Y-3139700D01*
X4062590Y-3152400D01*
X4072240Y-3165100D01*
X4083500Y-3173570D01*
X4094760Y-3177800D01*
X4106020D01*
X4117280Y-3173570D01*
X4126930Y-3167220D01*
X4134980Y-3158750D01*
G01X4224300Y-3177800D02*
Y-3050800D01*
X4205000Y-3076200D01*
G01Y-3177800D02*
X4243600D01*
G01X4318450Y-3158750D02*
X4328100Y-3169340D01*
X4339360Y-3175680D01*
X4353840Y-3177800D01*
X4368320Y-3173570D01*
X4379580Y-3165100D01*
X4387620Y-3150290D01*
X4389230Y-3133350D01*
X4386010Y-3116420D01*
X4377970Y-3105830D01*
X4366710Y-3097370D01*
X4355450Y-3095250D01*
X4344190Y-3097370D01*
X4329710Y-3105830D01*
X4334540Y-3050800D01*
X4377970D01*
G01X4537970Y-2131580D02*
Y-2004580D01*
X4578180D01*
X4591050Y-2010930D01*
X4599100Y-2019400D01*
X4602310Y-2036330D01*
X4599100Y-2053260D01*
X4589440Y-2063850D01*
X4578180Y-2070200D01*
X4537970D01*
G01X4578180D02*
X4602310Y-2131580D01*
G01X4664290Y-2106180D02*
X4673940Y-2121000D01*
X4686810Y-2129460D01*
X4701290Y-2131580D01*
X4714160Y-2129460D01*
X4727030Y-2118880D01*
X4735070Y-2106180D01*
X4736680Y-2093480D01*
X4733460Y-2078670D01*
X4722200Y-2068080D01*
X4710940Y-2063850D01*
X4696460D01*
G01X4710940D02*
X4720590Y-2057500D01*
X4728640Y-2046920D01*
X4731850Y-2034210D01*
X4728640Y-2021510D01*
X4720590Y-2010930D01*
X4706110Y-2004580D01*
X4691640Y-2006700D01*
X4677160Y-2015160D01*
G01X4829220Y-2131580D02*
Y-2004580D01*
X4809920Y-2029980D01*
G01Y-2131580D02*
X4848520D01*
G01X4457160Y-2138420D02*
X4182840D01*
Y-2021580D01*
X4457160D01*
Y-2138420D01*
G01X4534210Y-2268420D02*
Y-2141420D01*
X4574420D01*
X4587290Y-2147770D01*
X4595340Y-2156240D01*
X4598550Y-2173170D01*
X4595340Y-2190100D01*
X4585680Y-2200690D01*
X4574420Y-2207040D01*
X4534210D01*
G01X4574420D02*
X4598550Y-2268420D01*
G01X4665350Y-2162590D02*
X4675010Y-2149890D01*
X4686270Y-2143540D01*
X4699140Y-2141420D01*
X4715220Y-2145650D01*
X4726490Y-2156240D01*
X4729700Y-2168930D01*
X4728090Y-2181640D01*
X4721660Y-2192220D01*
X4689490Y-2213390D01*
X4675010Y-2228200D01*
X4665350Y-2249370D01*
X4662140Y-2268420D01*
X4729700D01*
G01X4822240D02*
X4825460Y-2240910D01*
X4830290Y-2217620D01*
X4836720Y-2196450D01*
X4844760Y-2173170D01*
X4857630Y-2141420D01*
X4793290D01*
G01X4182840Y-2151580D02*
X4457160D01*
Y-2268420D01*
X4182840D01*
Y-2151580D01*
G01X4534210Y-2398420D02*
Y-2271420D01*
X4574420D01*
X4587290Y-2277770D01*
X4595340Y-2286240D01*
X4598550Y-2303170D01*
X4595340Y-2320100D01*
X4585680Y-2330690D01*
X4574420Y-2337040D01*
X4534210D01*
G01X4574420D02*
X4598550Y-2398420D01*
G01X4665350Y-2292590D02*
X4675010Y-2279890D01*
X4686270Y-2273540D01*
X4699140Y-2271420D01*
X4715220Y-2275650D01*
X4726490Y-2286240D01*
X4729700Y-2298930D01*
X4728090Y-2311640D01*
X4721660Y-2322220D01*
X4689490Y-2343390D01*
X4675010Y-2358200D01*
X4665350Y-2379370D01*
X4662140Y-2398420D01*
X4729700D01*
G01X4790070Y-2379370D02*
X4799720Y-2389960D01*
X4810980Y-2396300D01*
X4825460Y-2398420D01*
X4839940Y-2394190D01*
X4851200Y-2385720D01*
X4859240Y-2370910D01*
X4860850Y-2353970D01*
X4857630Y-2337040D01*
X4849590Y-2326450D01*
X4838330Y-2317990D01*
X4827070Y-2315870D01*
X4815810Y-2317990D01*
X4801330Y-2326450D01*
X4806160Y-2271420D01*
X4849590D01*
G01X4182840Y-2281580D02*
X4457160D01*
Y-2398420D01*
X4182840D01*
Y-2281580D01*
G01X4534210Y-2008420D02*
Y-1881420D01*
X4574420D01*
X4587290Y-1887770D01*
X4595340Y-1896240D01*
X4598550Y-1913170D01*
X4595340Y-1930100D01*
X4585680Y-1940690D01*
X4574420Y-1947040D01*
X4534210D01*
G01X4574420D02*
X4598550Y-2008420D01*
G01X4665350Y-1902590D02*
X4675010Y-1889890D01*
X4686270Y-1883540D01*
X4699140Y-1881420D01*
X4715220Y-1885650D01*
X4726490Y-1896240D01*
X4729700Y-1908930D01*
X4728090Y-1921640D01*
X4721660Y-1932220D01*
X4689490Y-1953390D01*
X4675010Y-1968200D01*
X4665350Y-1989370D01*
X4662140Y-2008420D01*
X4729700D01*
G01X4798110Y-1993610D02*
X4809370Y-2004190D01*
X4822240Y-2008420D01*
X4835110Y-2004190D01*
X4846370Y-1991490D01*
X4854420Y-1972440D01*
X4857630Y-1953390D01*
Y-1930100D01*
X4854420Y-1911050D01*
X4846370Y-1894120D01*
X4836720Y-1885650D01*
X4825460Y-1881420D01*
X4812590Y-1885650D01*
X4802940Y-1894120D01*
X4796500Y-1906820D01*
X4793290Y-1923760D01*
X4796500Y-1938570D01*
X4804550Y-1953390D01*
X4814200Y-1961860D01*
X4825460Y-1963970D01*
X4838330Y-1959740D01*
X4847980Y-1949150D01*
X4857630Y-1930100D01*
G01X4182840Y-1891580D02*
X4457160D01*
Y-2008420D01*
X4182840D01*
Y-1891580D01*
G01X4618420Y-1485790D02*
X4491420D01*
Y-1445580D01*
X4497770Y-1432710D01*
X4506240Y-1424660D01*
X4523170Y-1421450D01*
X4540100Y-1424660D01*
X4550690Y-1434320D01*
X4557040Y-1445580D01*
Y-1485790D01*
G01Y-1445580D02*
X4618420Y-1421450D01*
G01Y-1324080D02*
X4491420D01*
X4516820Y-1343380D01*
G01X4618420D02*
Y-1304780D01*
G01X4593020Y-1229930D02*
X4607840Y-1220280D01*
X4616300Y-1207410D01*
X4618420Y-1192930D01*
X4616300Y-1180060D01*
X4605720Y-1167190D01*
X4593020Y-1159150D01*
X4580320Y-1157540D01*
X4565510Y-1160760D01*
X4554920Y-1172020D01*
X4550690Y-1183280D01*
Y-1197760D01*
G01Y-1183280D02*
X4544340Y-1173630D01*
X4533760Y-1165580D01*
X4521050Y-1162370D01*
X4508350Y-1165580D01*
X4497770Y-1173630D01*
X4491420Y-1188110D01*
X4493540Y-1202580D01*
X4502000Y-1217060D01*
G01X4458420Y-1485790D02*
X4331420D01*
Y-1445580D01*
X4337770Y-1432710D01*
X4346240Y-1424660D01*
X4363170Y-1421450D01*
X4380100Y-1424660D01*
X4390690Y-1434320D01*
X4397040Y-1445580D01*
Y-1485790D01*
G01Y-1445580D02*
X4458420Y-1421450D01*
G01Y-1324080D02*
X4331420D01*
X4356820Y-1343380D01*
G01X4458420D02*
Y-1304780D01*
G01Y-1175240D02*
X4331420D01*
X4422440Y-1234760D01*
Y-1154320D01*
G01X4383110Y-1682620D02*
X4373460Y-1676270D01*
X4362200Y-1672040D01*
X4349330D01*
X4334850Y-1678390D01*
X4323590Y-1688970D01*
X4315550Y-1701670D01*
X4309110Y-1722840D01*
X4307500Y-1741890D01*
X4310720Y-1760940D01*
X4315550Y-1773640D01*
X4325200Y-1786340D01*
X4336460Y-1794810D01*
X4347720Y-1799040D01*
X4358980D01*
X4370240Y-1794810D01*
X4379890Y-1788460D01*
X4387940Y-1779990D01*
G01X4477260Y-1799040D02*
Y-1672040D01*
X4457960Y-1697440D01*
G01Y-1799040D02*
X4496560D01*
G01X4576230Y-1746130D02*
X4587500Y-1731310D01*
X4597150Y-1722840D01*
X4610020Y-1718610D01*
X4621280Y-1722840D01*
X4629320Y-1731310D01*
X4635760Y-1744010D01*
X4637370Y-1758820D01*
X4635760Y-1771530D01*
X4629320Y-1784230D01*
X4619670Y-1794810D01*
X4608410Y-1799040D01*
X4595540Y-1794810D01*
X4584280Y-1782110D01*
X4577840Y-1763060D01*
X4576230Y-1741890D01*
X4579450Y-1714380D01*
X4584280Y-1699550D01*
X4592320Y-1684740D01*
X4603580Y-1674160D01*
X4614840Y-1672040D01*
X4626100Y-1676270D01*
X4634150Y-1686860D01*
G01X4491580Y-1117160D02*
Y-842840D01*
X4608420D01*
Y-1117160D01*
X4491580D01*
G01X4361580D02*
Y-842840D01*
X4478420D01*
Y-1117160D01*
X4361580D01*
G01X4324210Y-808420D02*
Y-681420D01*
X4364420D01*
X4377290Y-687770D01*
X4385340Y-696240D01*
X4388550Y-713170D01*
X4385340Y-730100D01*
X4375680Y-740690D01*
X4364420Y-747040D01*
X4324210D01*
G01X4364420D02*
X4388550Y-808420D01*
G01X4485920D02*
Y-681420D01*
X4466620Y-706820D01*
G01Y-808420D02*
X4505220D01*
G01X4584890Y-702590D02*
X4594550Y-689890D01*
X4605810Y-683540D01*
X4618680Y-681420D01*
X4634760Y-685650D01*
X4646030Y-696240D01*
X4649240Y-708930D01*
X4647630Y-721640D01*
X4641200Y-732220D01*
X4609030Y-753390D01*
X4594550Y-768200D01*
X4584890Y-789370D01*
X4581680Y-808420D01*
X4649240D01*
G01X4362840Y-551580D02*
X4637160D01*
Y-668420D01*
X4362840D01*
Y-551580D01*
G01X4481580Y-522030D02*
X4354580D01*
Y-481820D01*
X4360930Y-468950D01*
X4369400Y-460900D01*
X4386330Y-457690D01*
X4403260Y-460900D01*
X4413850Y-470560D01*
X4420200Y-481820D01*
Y-522030D01*
G01Y-481820D02*
X4481580Y-457690D01*
G01Y-360320D02*
X4354580D01*
X4379980Y-379620D01*
G01X4481580D02*
Y-341020D01*
G01Y-234000D02*
X4454070Y-230780D01*
X4430780Y-225950D01*
X4409610Y-219520D01*
X4386330Y-211480D01*
X4354580Y-198610D01*
Y-262950D01*
G01X4638420Y-202840D02*
Y-477160D01*
X4521580D01*
Y-202840D01*
X4638420D01*
G01X4697970Y-4581580D02*
Y-4454580D01*
X4738180D01*
X4751050Y-4460930D01*
X4759100Y-4469400D01*
X4762310Y-4486330D01*
X4759100Y-4503260D01*
X4749440Y-4513850D01*
X4738180Y-4520200D01*
X4697970D01*
G01X4738180D02*
X4762310Y-4581580D01*
G01X4878980D02*
Y-4454580D01*
X4819460Y-4545600D01*
X4899900D01*
G01X5008520Y-4581580D02*
Y-4454580D01*
X4949000Y-4545600D01*
X5029440D01*
G01X4864210Y-5038420D02*
Y-4911420D01*
X4904420D01*
X4917290Y-4917770D01*
X4925340Y-4926240D01*
X4928550Y-4943170D01*
X4925340Y-4960100D01*
X4915680Y-4970690D01*
X4904420Y-4977040D01*
X4864210D01*
G01X4904420D02*
X4928550Y-5038420D01*
G01X4995350Y-4932590D02*
X5005010Y-4919890D01*
X5016270Y-4913540D01*
X5029140Y-4911420D01*
X5045220Y-4915650D01*
X5056490Y-4926240D01*
X5059700Y-4938930D01*
X5058090Y-4951640D01*
X5051660Y-4962220D01*
X5019490Y-4983390D01*
X5005010Y-4998200D01*
X4995350Y-5019370D01*
X4992140Y-5038420D01*
X5059700D01*
G01X5155460D02*
Y-4911420D01*
X5136160Y-4936820D01*
G01Y-5038420D02*
X5174760D01*
G01X5147160Y-5178420D02*
X4872840D01*
Y-5061580D01*
X5147160D01*
Y-5178420D01*
G01X4697970Y-4361580D02*
Y-4234580D01*
X4738180D01*
X4751050Y-4240930D01*
X4759100Y-4249400D01*
X4762310Y-4266330D01*
X4759100Y-4283260D01*
X4749440Y-4293850D01*
X4738180Y-4300200D01*
X4697970D01*
G01X4738180D02*
X4762310Y-4361580D01*
G01X4878980D02*
Y-4234580D01*
X4819460Y-4325600D01*
X4899900D01*
G01X4953830Y-4336180D02*
X4963480Y-4351000D01*
X4976350Y-4359460D01*
X4990830Y-4361580D01*
X5003700Y-4359460D01*
X5016570Y-4348880D01*
X5024610Y-4336180D01*
X5026220Y-4323480D01*
X5023000Y-4308670D01*
X5011740Y-4298080D01*
X5000480Y-4293850D01*
X4986000D01*
G01X5000480D02*
X5010130Y-4287500D01*
X5018180Y-4276920D01*
X5021390Y-4264210D01*
X5018180Y-4251510D01*
X5010130Y-4240930D01*
X4995650Y-4234580D01*
X4981180Y-4236700D01*
X4966700Y-4245160D01*
G01X5239480Y-3958070D02*
X5252350Y-3968650D01*
X5266830Y-3975000D01*
X5279690D01*
X5292560Y-3968650D01*
X5302220Y-3958070D01*
X5307040Y-3943250D01*
X5303830Y-3928440D01*
X5295780Y-3915730D01*
X5281300Y-3907270D01*
X5262000Y-3903030D01*
X5250740Y-3894570D01*
X5245910Y-3879750D01*
X5249130Y-3864930D01*
X5257170Y-3854350D01*
X5268430Y-3848000D01*
X5279690D01*
X5290960Y-3852230D01*
X5300610Y-3862820D01*
G01X5354540Y-3848000D02*
X5377060Y-3975000D01*
X5402800Y-3848000D01*
X5428540Y-3975000D01*
X5451060Y-3848000D01*
G01X5501770Y-3869170D02*
X5511430Y-3856470D01*
X5522690Y-3850120D01*
X5535560Y-3848000D01*
X5551640Y-3852230D01*
X5562910Y-3862820D01*
X5566120Y-3875510D01*
X5564510Y-3888220D01*
X5558080Y-3898800D01*
X5525910Y-3919970D01*
X5511430Y-3934780D01*
X5501770Y-3955950D01*
X5498560Y-3975000D01*
X5566120D01*
G01X5241130Y-3762270D02*
X5247560Y-3755920D01*
X5252390Y-3745340D01*
X5255610Y-3730510D01*
X5252390Y-3717820D01*
X5245960Y-3709350D01*
X5234690Y-3703000D01*
X5191260D01*
Y-3830000D01*
X5244350D01*
X5255610Y-3821540D01*
X5262040Y-3808830D01*
X5265260Y-3794020D01*
X5262040Y-3779200D01*
X5252390Y-3766500D01*
X5241130Y-3762270D01*
X5191260D01*
G01X5357800Y-3830000D02*
X5344930Y-3827880D01*
X5333670Y-3819420D01*
X5324020Y-3806720D01*
X5317580Y-3791900D01*
X5314360Y-3774970D01*
Y-3758030D01*
X5317580Y-3741100D01*
X5324020Y-3726280D01*
X5333670Y-3713580D01*
X5344930Y-3705120D01*
X5357800Y-3703000D01*
X5370670Y-3705120D01*
X5381930Y-3713580D01*
X5391580Y-3726280D01*
X5398020Y-3741100D01*
X5401240Y-3758030D01*
Y-3774970D01*
X5398020Y-3791900D01*
X5391580Y-3806720D01*
X5381930Y-3819420D01*
X5370670Y-3827880D01*
X5357800Y-3830000D01*
G01X5487340D02*
X5474470Y-3827880D01*
X5463210Y-3819420D01*
X5453560Y-3806720D01*
X5447120Y-3791900D01*
X5443900Y-3774970D01*
Y-3758030D01*
X5447120Y-3741100D01*
X5453560Y-3726280D01*
X5463210Y-3713580D01*
X5474470Y-3705120D01*
X5487340Y-3703000D01*
X5500210Y-3705120D01*
X5511470Y-3713580D01*
X5521120Y-3726280D01*
X5527560Y-3741100D01*
X5530780Y-3758030D01*
Y-3774970D01*
X5527560Y-3791900D01*
X5521120Y-3806720D01*
X5511470Y-3819420D01*
X5500210Y-3827880D01*
X5487340Y-3830000D01*
G01X5616880Y-3703000D02*
Y-3830000D01*
G01X5579880Y-3703000D02*
X5653880D01*
G01X4907970Y-2691580D02*
Y-2564580D01*
X4948180D01*
X4961050Y-2570930D01*
X4969100Y-2579400D01*
X4972310Y-2596330D01*
X4969100Y-2613260D01*
X4959440Y-2623850D01*
X4948180Y-2630200D01*
X4907970D01*
G01X4948180D02*
X4972310Y-2691580D01*
G01X5069680D02*
Y-2564580D01*
X5050380Y-2589980D01*
G01Y-2691580D02*
X5088980D01*
G01X5163830Y-2672530D02*
X5173480Y-2683120D01*
X5184740Y-2689460D01*
X5199220Y-2691580D01*
X5213700Y-2687350D01*
X5224960Y-2678880D01*
X5233000Y-2664070D01*
X5234610Y-2647130D01*
X5231390Y-2630200D01*
X5223350Y-2619610D01*
X5212090Y-2611150D01*
X5200830Y-2609030D01*
X5189570Y-2611150D01*
X5175090Y-2619610D01*
X5179920Y-2564580D01*
X5223350D01*
G01X5247670Y-2838120D02*
Y-2711120D01*
X5287880D01*
X5300750Y-2717470D01*
X5308800Y-2725940D01*
X5312010Y-2742870D01*
X5308800Y-2759800D01*
X5299140Y-2770390D01*
X5287880Y-2776740D01*
X5247670D01*
G01X5287880D02*
X5312010Y-2838120D01*
G01X5409380D02*
Y-2711120D01*
X5390080Y-2736520D01*
G01Y-2838120D02*
X5428680D01*
G01X5538920Y-2711120D02*
X5526050Y-2715350D01*
X5516400Y-2725940D01*
X5509960Y-2738630D01*
X5505140Y-2755570D01*
X5503530Y-2774620D01*
X5505140Y-2793670D01*
X5509960Y-2810610D01*
X5516400Y-2823310D01*
X5526050Y-2833890D01*
X5538920Y-2838120D01*
X5551790Y-2833890D01*
X5561440Y-2823310D01*
X5567880Y-2810610D01*
X5572700Y-2793670D01*
X5574310Y-2774620D01*
X5572700Y-2755570D01*
X5567880Y-2738630D01*
X5561440Y-2725940D01*
X5551790Y-2715350D01*
X5538920Y-2711120D01*
G01X4779480Y-3138070D02*
X4792350Y-3148650D01*
X4806830Y-3155000D01*
X4819690D01*
X4832560Y-3148650D01*
X4842220Y-3138070D01*
X4847040Y-3123250D01*
X4843830Y-3108440D01*
X4835780Y-3095730D01*
X4821300Y-3087270D01*
X4802000Y-3083030D01*
X4790740Y-3074570D01*
X4785910Y-3059750D01*
X4789130Y-3044930D01*
X4797170Y-3034350D01*
X4808430Y-3028000D01*
X4819690D01*
X4830960Y-3032230D01*
X4840610Y-3042820D01*
G01X4894540Y-3028000D02*
X4917060Y-3155000D01*
X4942800Y-3028000D01*
X4968540Y-3155000D01*
X4991060Y-3028000D01*
G01X5072340Y-3155000D02*
Y-3028000D01*
X5053040Y-3053400D01*
G01Y-3155000D02*
X5091640D01*
G01X5222840Y-2061580D02*
X5497160D01*
Y-2178420D01*
X5222840D01*
Y-2061580D01*
G01X5044210Y-2038420D02*
Y-1911420D01*
X5084420D01*
X5097290Y-1917770D01*
X5105340Y-1926240D01*
X5108550Y-1943170D01*
X5105340Y-1960100D01*
X5095680Y-1970690D01*
X5084420Y-1977040D01*
X5044210D01*
G01X5084420D02*
X5108550Y-2038420D01*
G01X5205920D02*
Y-1911420D01*
X5186620Y-1936820D01*
G01Y-2038420D02*
X5225220D01*
G01X5335460D02*
Y-1911420D01*
X5316160Y-1936820D01*
G01Y-2038420D02*
X5354760D01*
G01X5100000Y-1810000D02*
Y-1875000D01*
X5345000D01*
G01X4717080Y-788550D02*
X4710730Y-798200D01*
X4706500Y-809460D01*
Y-822330D01*
X4712850Y-836810D01*
X4723430Y-848070D01*
X4736130Y-856110D01*
X4757300Y-862550D01*
X4776350Y-864160D01*
X4795400Y-860940D01*
X4808100Y-856110D01*
X4820800Y-846460D01*
X4829270Y-835200D01*
X4833500Y-823940D01*
Y-812680D01*
X4829270Y-801420D01*
X4822920Y-791770D01*
X4814450Y-783720D01*
G01X4833500Y-694400D02*
X4706500D01*
X4731900Y-713700D01*
G01X4833500D02*
Y-675100D01*
G01Y-564860D02*
X4706500D01*
X4731900Y-584160D01*
G01X4833500D02*
Y-545560D01*
G01X4877080Y-728550D02*
X4870730Y-738200D01*
X4866500Y-749460D01*
Y-762330D01*
X4872850Y-776810D01*
X4883430Y-788070D01*
X4896130Y-796110D01*
X4917300Y-802550D01*
X4936350Y-804160D01*
X4955400Y-800940D01*
X4968100Y-796110D01*
X4980800Y-786460D01*
X4989270Y-775200D01*
X4993500Y-763940D01*
Y-752680D01*
X4989270Y-741420D01*
X4982920Y-731770D01*
X4974450Y-723720D01*
G01X4993500Y-634400D02*
X4866500D01*
X4891900Y-653700D01*
G01X4993500D02*
Y-615100D01*
G01X4866500Y-504860D02*
X4870730Y-517730D01*
X4881320Y-527380D01*
X4894010Y-533820D01*
X4910950Y-538640D01*
X4930000Y-540250D01*
X4949050Y-538640D01*
X4965990Y-533820D01*
X4978690Y-527380D01*
X4989270Y-517730D01*
X4993500Y-504860D01*
X4989270Y-491990D01*
X4978690Y-482340D01*
X4965990Y-475900D01*
X4949050Y-471080D01*
X4930000Y-469470D01*
X4910950Y-471080D01*
X4894010Y-475900D01*
X4881320Y-482340D01*
X4870730Y-491990D01*
X4866500Y-504860D01*
G01X4874120Y-399380D02*
Y-160620D01*
X4889360Y-145380D01*
X4970640D01*
X4985880Y-160620D01*
Y-399380D01*
X4970640Y-414620D01*
X4889360D01*
X4874120Y-399380D01*
G01X4724120Y-519380D02*
Y-280620D01*
X4739360Y-265380D01*
X4820640D01*
X4835880Y-280620D01*
Y-519380D01*
X4820640Y-534620D01*
X4739360D01*
X4724120Y-519380D01*
G01X5100000Y25000D02*
Y675000D01*
X6900000D01*
Y25000D01*
G01X5370430Y-3000000D02*
X5306090D01*
Y-2873000D01*
X5370430D01*
G01X5344690Y-2934380D02*
X5306090D01*
G01X5430800Y-3000000D02*
Y-2873000D01*
X5504800Y-3000000D01*
Y-2873000D01*
G01X5858420Y-3295790D02*
X5731420D01*
Y-3255580D01*
X5737770Y-3242710D01*
X5746240Y-3234660D01*
X5763170Y-3231450D01*
X5780100Y-3234660D01*
X5790690Y-3244320D01*
X5797040Y-3255580D01*
Y-3295790D01*
G01Y-3255580D02*
X5858420Y-3231450D01*
G01Y-3134080D02*
X5731420D01*
X5756820Y-3153380D01*
G01X5858420D02*
Y-3114780D01*
G01Y-3004540D02*
X5856300Y-2993280D01*
X5849960Y-2980410D01*
X5839370Y-2972370D01*
X5824550Y-2969150D01*
X5809740Y-2972370D01*
X5797040Y-2982020D01*
X5790690Y-2996500D01*
Y-3012580D01*
X5786450Y-3022240D01*
X5775870Y-3030280D01*
X5761050Y-3033500D01*
X5746240Y-3028670D01*
X5735650Y-3017410D01*
X5731420Y-3004540D01*
X5735650Y-2991670D01*
X5746240Y-2980410D01*
X5761050Y-2975580D01*
X5775870Y-2978800D01*
X5786450Y-2986840D01*
X5790690Y-2996500D01*
Y-3012580D01*
X5797040Y-3027060D01*
X5809740Y-3036710D01*
X5824550Y-3039930D01*
X5839370Y-3036710D01*
X5849960Y-3028670D01*
X5856300Y-3015800D01*
X5858420Y-3004540D01*
G01X5721580Y-2867160D02*
Y-2592840D01*
X5838420D01*
Y-2867160D01*
X5721580D01*
G01X5708420Y-2592840D02*
Y-2867160D01*
X5591580D01*
Y-2592840D01*
X5708420D01*
G01X5965880Y-2610620D02*
Y-2849380D01*
X5950640Y-2864620D01*
X5869360D01*
X5854120Y-2849380D01*
Y-2610620D01*
X5869360Y-2595380D01*
X5950640D01*
X5965880Y-2610620D01*
G01X5527160Y-2688420D02*
X5252840D01*
Y-2571580D01*
X5527160D01*
Y-2688420D01*
G01X5795070Y-2115000D02*
Y-1988000D01*
X5827240D01*
X5840110Y-1994350D01*
X5849760Y-2002820D01*
X5857810Y-2015510D01*
X5864240Y-2030340D01*
X5865850Y-2051500D01*
X5864240Y-2072670D01*
X5857810Y-2087490D01*
X5849760Y-2100190D01*
X5840110Y-2108650D01*
X5827240Y-2115000D01*
X5795070D01*
G01X5924610D02*
Y-1988000D01*
X5956780D01*
X5969650Y-1994350D01*
X5979300Y-2002820D01*
X5987350Y-2015510D01*
X5993780Y-2030340D01*
X5995390Y-2051500D01*
X5993780Y-2072670D01*
X5987350Y-2087490D01*
X5979300Y-2100190D01*
X5969650Y-2108650D01*
X5956780Y-2115000D01*
X5924610D01*
G01X6108840D02*
Y-1988000D01*
X6049320Y-2079020D01*
X6129760D01*
G01X6447150Y-4825780D02*
X6437500Y-4819430D01*
X6426240Y-4815200D01*
X6413370D01*
X6398890Y-4821550D01*
X6387630Y-4832130D01*
X6379590Y-4844830D01*
X6373150Y-4866000D01*
X6371540Y-4885050D01*
X6374760Y-4904100D01*
X6379590Y-4916800D01*
X6389240Y-4929500D01*
X6400500Y-4937970D01*
X6411760Y-4942200D01*
X6423020D01*
X6434280Y-4937970D01*
X6443930Y-4931620D01*
X6451980Y-4923150D01*
G01X6541300Y-4942200D02*
Y-4815200D01*
X6522000Y-4840600D01*
G01Y-4942200D02*
X6560600D01*
G01X6670840D02*
X6682100Y-4940080D01*
X6694970Y-4933740D01*
X6703010Y-4923150D01*
X6706230Y-4908330D01*
X6703010Y-4893520D01*
X6693360Y-4880820D01*
X6678880Y-4874470D01*
X6662800D01*
X6653140Y-4870230D01*
X6645100Y-4859650D01*
X6641880Y-4844830D01*
X6646710Y-4830020D01*
X6657970Y-4819430D01*
X6670840Y-4815200D01*
X6683710Y-4819430D01*
X6694970Y-4830020D01*
X6699800Y-4844830D01*
X6696580Y-4859650D01*
X6688540Y-4870230D01*
X6678880Y-4874470D01*
X6662800D01*
X6648320Y-4880820D01*
X6638670Y-4893520D01*
X6635450Y-4908330D01*
X6638670Y-4923150D01*
X6646710Y-4933740D01*
X6659580Y-4940080D01*
X6670840Y-4942200D01*
G01X6412620Y-3926890D02*
X6406270Y-3936540D01*
X6402040Y-3947800D01*
Y-3960670D01*
X6408390Y-3975150D01*
X6418970Y-3986410D01*
X6431670Y-3994450D01*
X6452840Y-4000890D01*
X6471890Y-4002500D01*
X6490940Y-3999280D01*
X6503640Y-3994450D01*
X6516340Y-3984800D01*
X6524810Y-3973540D01*
X6529040Y-3962280D01*
Y-3951020D01*
X6524810Y-3939760D01*
X6518460Y-3930110D01*
X6509990Y-3922060D01*
G01X6503640Y-3868130D02*
X6518460Y-3858480D01*
X6526920Y-3845610D01*
X6529040Y-3831130D01*
X6526920Y-3818260D01*
X6516340Y-3805390D01*
X6503640Y-3797350D01*
X6490940Y-3795740D01*
X6476130Y-3798960D01*
X6465540Y-3810220D01*
X6461310Y-3821480D01*
Y-3835960D01*
G01Y-3821480D02*
X6454960Y-3811830D01*
X6444380Y-3803780D01*
X6431670Y-3800570D01*
X6418970Y-3803780D01*
X6408390Y-3811830D01*
X6402040Y-3826310D01*
X6404160Y-3840780D01*
X6412620Y-3855260D01*
G01X6402040Y-3703200D02*
X6406270Y-3716070D01*
X6416860Y-3725720D01*
X6429550Y-3732160D01*
X6446490Y-3736980D01*
X6465540Y-3738590D01*
X6484590Y-3736980D01*
X6501530Y-3732160D01*
X6514230Y-3725720D01*
X6524810Y-3716070D01*
X6529040Y-3703200D01*
X6524810Y-3690330D01*
X6514230Y-3680680D01*
X6501530Y-3674240D01*
X6484590Y-3669420D01*
X6465540Y-3667810D01*
X6446490Y-3669420D01*
X6429550Y-3674240D01*
X6416860Y-3680680D01*
X6406270Y-3690330D01*
X6402040Y-3703200D01*
G01X6262620Y-3926890D02*
X6256270Y-3936540D01*
X6252040Y-3947800D01*
Y-3960670D01*
X6258390Y-3975150D01*
X6268970Y-3986410D01*
X6281670Y-3994450D01*
X6302840Y-4000890D01*
X6321890Y-4002500D01*
X6340940Y-3999280D01*
X6353640Y-3994450D01*
X6366340Y-3984800D01*
X6374810Y-3973540D01*
X6379040Y-3962280D01*
Y-3951020D01*
X6374810Y-3939760D01*
X6368460Y-3930110D01*
X6359990Y-3922060D01*
G01X6273210Y-3863310D02*
X6260510Y-3853650D01*
X6254160Y-3842390D01*
X6252040Y-3829520D01*
X6256270Y-3813440D01*
X6266860Y-3802170D01*
X6279550Y-3798960D01*
X6292260Y-3800570D01*
X6302840Y-3807000D01*
X6324010Y-3839170D01*
X6338820Y-3853650D01*
X6359990Y-3863310D01*
X6379040Y-3866520D01*
Y-3798960D01*
G01X6364230Y-3730550D02*
X6374810Y-3719290D01*
X6379040Y-3706420D01*
X6374810Y-3693550D01*
X6362110Y-3682290D01*
X6343060Y-3674240D01*
X6324010Y-3671030D01*
X6300720D01*
X6281670Y-3674240D01*
X6264740Y-3682290D01*
X6256270Y-3691940D01*
X6252040Y-3703200D01*
X6256270Y-3716070D01*
X6264740Y-3725720D01*
X6277440Y-3732160D01*
X6294380Y-3735370D01*
X6309190Y-3732160D01*
X6324010Y-3724110D01*
X6332480Y-3714460D01*
X6334590Y-3703200D01*
X6330360Y-3690330D01*
X6319770Y-3680680D01*
X6300720Y-3671030D01*
G01X6278420Y-3295790D02*
X6151420D01*
Y-3255580D01*
X6157770Y-3242710D01*
X6166240Y-3234660D01*
X6183170Y-3231450D01*
X6200100Y-3234660D01*
X6210690Y-3244320D01*
X6217040Y-3255580D01*
Y-3295790D01*
G01Y-3255580D02*
X6278420Y-3231450D01*
G01Y-3134080D02*
X6151420D01*
X6176820Y-3153380D01*
G01X6278420D02*
Y-3114780D01*
G01X6263610Y-3031890D02*
X6274190Y-3020630D01*
X6278420Y-3007760D01*
X6274190Y-2994890D01*
X6261490Y-2983630D01*
X6242440Y-2975580D01*
X6223390Y-2972370D01*
X6200100D01*
X6181050Y-2975580D01*
X6164120Y-2983630D01*
X6155650Y-2993280D01*
X6151420Y-3004540D01*
X6155650Y-3017410D01*
X6164120Y-3027060D01*
X6176820Y-3033500D01*
X6193760Y-3036710D01*
X6208570Y-3033500D01*
X6223390Y-3025450D01*
X6231860Y-3015800D01*
X6233970Y-3004540D01*
X6229740Y-2991670D01*
X6219150Y-2982020D01*
X6200100Y-2972370D01*
G01X6101580Y-2867160D02*
Y-2592840D01*
X6218420D01*
Y-2867160D01*
X6101580D01*
G01X6421580Y-3292030D02*
X6294580D01*
Y-3251820D01*
X6300930Y-3238950D01*
X6309400Y-3230900D01*
X6326330Y-3227690D01*
X6343260Y-3230900D01*
X6353850Y-3240560D01*
X6360200Y-3251820D01*
Y-3292030D01*
G01Y-3251820D02*
X6421580Y-3227690D01*
G01Y-3130320D02*
X6294580D01*
X6319980Y-3149620D01*
G01X6421580D02*
Y-3111020D01*
G01X6368670Y-3031350D02*
X6353850Y-3020080D01*
X6345380Y-3010430D01*
X6341150Y-2997560D01*
X6345380Y-2986300D01*
X6353850Y-2978260D01*
X6366550Y-2971820D01*
X6381360Y-2970210D01*
X6394070Y-2971820D01*
X6406770Y-2978260D01*
X6417350Y-2987910D01*
X6421580Y-2999170D01*
X6417350Y-3012040D01*
X6404650Y-3023300D01*
X6385600Y-3029740D01*
X6364430Y-3031350D01*
X6336920Y-3028130D01*
X6322090Y-3023300D01*
X6307280Y-3015260D01*
X6296700Y-3004000D01*
X6294580Y-2992740D01*
X6298810Y-2981480D01*
X6309400Y-2973430D01*
G01X6348420Y-2592840D02*
Y-2867160D01*
X6231580D01*
Y-2592840D01*
X6348420D01*
G01X6020080Y-3224150D02*
X6013730Y-3233800D01*
X6009500Y-3245060D01*
Y-3257930D01*
X6015850Y-3272410D01*
X6026430Y-3283670D01*
X6039130Y-3291710D01*
X6060300Y-3298150D01*
X6079350Y-3299760D01*
X6098400Y-3296540D01*
X6111100Y-3291710D01*
X6123800Y-3282060D01*
X6132270Y-3270800D01*
X6136500Y-3259540D01*
Y-3248280D01*
X6132270Y-3237020D01*
X6125920Y-3227370D01*
X6117450Y-3219320D01*
G01X6136500Y-3130000D02*
X6009500D01*
X6034900Y-3149300D01*
G01X6136500D02*
Y-3110700D01*
G01X6111100Y-3035850D02*
X6125920Y-3026200D01*
X6134380Y-3013330D01*
X6136500Y-2998850D01*
X6134380Y-2985980D01*
X6123800Y-2973110D01*
X6111100Y-2965070D01*
X6098400Y-2963460D01*
X6083590Y-2966680D01*
X6073000Y-2977940D01*
X6068770Y-2989200D01*
Y-3003680D01*
G01Y-2989200D02*
X6062420Y-2979550D01*
X6051840Y-2971500D01*
X6039130Y-2968290D01*
X6026430Y-2971500D01*
X6015850Y-2979550D01*
X6009500Y-2994030D01*
X6011620Y-3008500D01*
X6020080Y-3022980D01*
G01X6085880Y-2610620D02*
Y-2849380D01*
X6070640Y-2864620D01*
X5989360D01*
X5974120Y-2849380D01*
Y-2610620D01*
X5989360Y-2595380D01*
X6070640D01*
X6085880Y-2610620D01*
G01X5880080Y-3224150D02*
X5873730Y-3233800D01*
X5869500Y-3245060D01*
Y-3257930D01*
X5875850Y-3272410D01*
X5886430Y-3283670D01*
X5899130Y-3291710D01*
X5920300Y-3298150D01*
X5939350Y-3299760D01*
X5958400Y-3296540D01*
X5971100Y-3291710D01*
X5983800Y-3282060D01*
X5992270Y-3270800D01*
X5996500Y-3259540D01*
Y-3248280D01*
X5992270Y-3237020D01*
X5985920Y-3227370D01*
X5977450Y-3219320D01*
G01X5996500Y-3130000D02*
X5869500D01*
X5894900Y-3149300D01*
G01X5996500D02*
Y-3110700D01*
G01X5890670Y-3031030D02*
X5877970Y-3021370D01*
X5871620Y-3010110D01*
X5869500Y-2997240D01*
X5873730Y-2981160D01*
X5884320Y-2969890D01*
X5897010Y-2966680D01*
X5909720Y-2968290D01*
X5920300Y-2974720D01*
X5941470Y-3006890D01*
X5956280Y-3021370D01*
X5977450Y-3031030D01*
X5996500Y-3034240D01*
Y-2966680D01*
G01X6241130Y-2132270D02*
X6247560Y-2125920D01*
X6252390Y-2115340D01*
X6255610Y-2100510D01*
X6252390Y-2087820D01*
X6245960Y-2079350D01*
X6234690Y-2073000D01*
X6191260D01*
Y-2200000D01*
X6244350D01*
X6255610Y-2191540D01*
X6262040Y-2178830D01*
X6265260Y-2164020D01*
X6262040Y-2149200D01*
X6252390Y-2136500D01*
X6241130Y-2132270D01*
X6191260D01*
G01X6317580Y-2200000D02*
X6357800Y-2073000D01*
X6398020Y-2200000D01*
G01X6383540Y-2155550D02*
X6332060D01*
G01X6455170Y-2200000D02*
Y-2073000D01*
X6495380D01*
X6508250Y-2079350D01*
X6516300Y-2087820D01*
X6519510Y-2104750D01*
X6516300Y-2121680D01*
X6506640Y-2132270D01*
X6495380Y-2138620D01*
X6455170D01*
G01X6495380D02*
X6519510Y-2200000D01*
G01X6652270Y-2083580D02*
X6642620Y-2077230D01*
X6631360Y-2073000D01*
X6618490D01*
X6604010Y-2079350D01*
X6592750Y-2089930D01*
X6584710Y-2102630D01*
X6578270Y-2123800D01*
X6576660Y-2142850D01*
X6579880Y-2161900D01*
X6584710Y-2174600D01*
X6594360Y-2187300D01*
X6605620Y-2195770D01*
X6616880Y-2200000D01*
X6628140D01*
X6639400Y-2195770D01*
X6649050Y-2189420D01*
X6657100Y-2180950D01*
G01X6746420Y-2200000D02*
X6733550Y-2197880D01*
X6722290Y-2189420D01*
X6712640Y-2176720D01*
X6706200Y-2161900D01*
X6702980Y-2144970D01*
Y-2128030D01*
X6706200Y-2111100D01*
X6712640Y-2096280D01*
X6722290Y-2083580D01*
X6733550Y-2075120D01*
X6746420Y-2073000D01*
X6759290Y-2075120D01*
X6770550Y-2083580D01*
X6780200Y-2096280D01*
X6786640Y-2111100D01*
X6789860Y-2128030D01*
Y-2144970D01*
X6786640Y-2161900D01*
X6780200Y-2176720D01*
X6770550Y-2189420D01*
X6759290Y-2197880D01*
X6746420Y-2200000D01*
G01X6840570D02*
Y-2073000D01*
X6872740D01*
X6885610Y-2079350D01*
X6895260Y-2087820D01*
X6903310Y-2100510D01*
X6909740Y-2115340D01*
X6911350Y-2136500D01*
X6909740Y-2157670D01*
X6903310Y-2172490D01*
X6895260Y-2185190D01*
X6885610Y-2193650D01*
X6872740Y-2200000D01*
X6840570D01*
G01X7037670D02*
X6973330D01*
Y-2073000D01*
X7037670D01*
G01X7011930Y-2134380D02*
X6973330D01*
G01X6935580Y-4770670D02*
X6945240Y-4757970D01*
X6956500Y-4751620D01*
X6969370Y-4749500D01*
X6985450Y-4753730D01*
X6996720Y-4764320D01*
X6999930Y-4777010D01*
X6998320Y-4789720D01*
X6991890Y-4800300D01*
X6959720Y-4821470D01*
X6945240Y-4836280D01*
X6935580Y-4857450D01*
X6932370Y-4876500D01*
X6999930D01*
G01X7095690Y-4880730D02*
X7092470Y-4878620D01*
Y-4874380D01*
X7095690Y-4872270D01*
X7098910Y-4874380D01*
Y-4878620D01*
X7095690Y-4880730D01*
G01X7194660Y-4770670D02*
X7204320Y-4757970D01*
X7215580Y-4751620D01*
X7228450Y-4749500D01*
X7244530Y-4753730D01*
X7255800Y-4764320D01*
X7259010Y-4777010D01*
X7257400Y-4789720D01*
X7250970Y-4800300D01*
X7218800Y-4821470D01*
X7204320Y-4836280D01*
X7194660Y-4857450D01*
X7191450Y-4876500D01*
X7259010D01*
G01X7456960Y-4791840D02*
Y-4851100D01*
X7463400Y-4865920D01*
X7473050Y-4874380D01*
X7484310Y-4876500D01*
X7495570Y-4874380D01*
X7505220Y-4865920D01*
X7511660Y-4851100D01*
G01Y-4876500D02*
Y-4791840D01*
G01X7580070Y-4876500D02*
Y-4749500D01*
G01X7647630D02*
Y-4876500D01*
G01Y-4813000D02*
X7580070D01*
G01X6734120Y-4979380D02*
Y-4740620D01*
X6749360Y-4725380D01*
X6830640D01*
X6845880Y-4740620D01*
Y-4979380D01*
X6830640Y-4994620D01*
X6749360D01*
X6734120Y-4979380D01*
G01X7048900Y-3677600D02*
Y-3982400D01*
X7031120Y-4000180D01*
X6888880D01*
X6871100Y-3982400D01*
Y-3677600D01*
X6888880Y-3659820D01*
X7031120D01*
X7048900Y-3677600D01*
G01X6788900D02*
Y-3982400D01*
X6771120Y-4000180D01*
X6628880D01*
X6611100Y-3982400D01*
Y-3677600D01*
X6628880Y-3659820D01*
X6771120D01*
X6788900Y-3677600D01*
G01X7103000Y-3577130D02*
X7194020D01*
X7213070Y-3570700D01*
X7225770Y-3557830D01*
X7230000Y-3541740D01*
X7225770Y-3525650D01*
X7213070Y-3512780D01*
X7194020Y-3506350D01*
X7103000D01*
G01X7230000Y-3452420D02*
X7103000Y-3412200D01*
X7230000Y-3371980D01*
G01X7185550Y-3386460D02*
Y-3437940D01*
G01X7230000Y-3314830D02*
X7103000D01*
Y-3274620D01*
X7109350Y-3261750D01*
X7117820Y-3253700D01*
X7134750Y-3250490D01*
X7151680Y-3253700D01*
X7162270Y-3263360D01*
X7168620Y-3274620D01*
Y-3314830D01*
G01Y-3274620D02*
X7230000Y-3250490D01*
G01X7103000Y-3153120D02*
X7230000D01*
G01X7103000Y-3190120D02*
Y-3116120D01*
G01X6592870Y-3364600D02*
X6602520Y-3379420D01*
X6615390Y-3387880D01*
X6629870Y-3390000D01*
X6642740Y-3387880D01*
X6655610Y-3377300D01*
X6663650Y-3364600D01*
X6665260Y-3351900D01*
X6662040Y-3337090D01*
X6650780Y-3326500D01*
X6639520Y-3322270D01*
X6625040D01*
G01X6639520D02*
X6649170Y-3315920D01*
X6657220Y-3305340D01*
X6660430Y-3292630D01*
X6657220Y-3279930D01*
X6649170Y-3269350D01*
X6634690Y-3263000D01*
X6620220Y-3265120D01*
X6605740Y-3273580D01*
G01X6757800Y-3394230D02*
X6754580Y-3392120D01*
Y-3387880D01*
X6757800Y-3385770D01*
X6761020Y-3387880D01*
Y-3392120D01*
X6757800Y-3394230D01*
G01X6851950Y-3364600D02*
X6861600Y-3379420D01*
X6874470Y-3387880D01*
X6888950Y-3390000D01*
X6901820Y-3387880D01*
X6914690Y-3377300D01*
X6922730Y-3364600D01*
X6924340Y-3351900D01*
X6921120Y-3337090D01*
X6909860Y-3326500D01*
X6898600Y-3322270D01*
X6884120D01*
G01X6898600D02*
X6908250Y-3315920D01*
X6916300Y-3305340D01*
X6919510Y-3292630D01*
X6916300Y-3279930D01*
X6908250Y-3269350D01*
X6893770Y-3263000D01*
X6879300Y-3265120D01*
X6864820Y-3273580D01*
G01X6976660Y-3263000D02*
X7016880Y-3390000D01*
X7057100Y-3263000D01*
G01X7087970Y-3841580D02*
Y-3714580D01*
X7128180D01*
X7141050Y-3720930D01*
X7149100Y-3729400D01*
X7152310Y-3746330D01*
X7149100Y-3763260D01*
X7139440Y-3773850D01*
X7128180Y-3780200D01*
X7087970D01*
G01X7128180D02*
X7152310Y-3841580D01*
G01X7214290Y-3822530D02*
X7223940Y-3833120D01*
X7235200Y-3839460D01*
X7249680Y-3841580D01*
X7264160Y-3837350D01*
X7275420Y-3828880D01*
X7283460Y-3814070D01*
X7285070Y-3797130D01*
X7281850Y-3780200D01*
X7273810Y-3769610D01*
X7262550Y-3761150D01*
X7251290Y-3759030D01*
X7240030Y-3761150D01*
X7225550Y-3769610D01*
X7230380Y-3714580D01*
X7273810D01*
G01X7348650Y-3735750D02*
X7358310Y-3723050D01*
X7369570Y-3716700D01*
X7382440Y-3714580D01*
X7398520Y-3718810D01*
X7409790Y-3729400D01*
X7413000Y-3742090D01*
X7411390Y-3754800D01*
X7404960Y-3765380D01*
X7372790Y-3786550D01*
X7358310Y-3801360D01*
X7348650Y-3822530D01*
X7345440Y-3841580D01*
X7413000D01*
G01X7173500Y-2605700D02*
Y-2595540D01*
X7046500D01*
Y-2605700D01*
X7173500D01*
Y-2834300D01*
X7046500D01*
Y-2605700D01*
G01X7054580Y-2554520D02*
X7181580Y-2514300D01*
X7054580Y-2474080D01*
G01X7181580Y-2420150D02*
X7054580D01*
Y-2387980D01*
X7060930Y-2375110D01*
X7069400Y-2365460D01*
X7082090Y-2357410D01*
X7096920Y-2350980D01*
X7118080Y-2349370D01*
X7139250Y-2350980D01*
X7154070Y-2357410D01*
X7166770Y-2365460D01*
X7175230Y-2375110D01*
X7181580Y-2387980D01*
Y-2420150D01*
G01Y-2255220D02*
X7054580D01*
X7079980Y-2274520D01*
G01X7181580D02*
Y-2235920D01*
G01X7075750Y-2156250D02*
X7063050Y-2146590D01*
X7056700Y-2135330D01*
X7054580Y-2122460D01*
X7058810Y-2106380D01*
X7069400Y-2095110D01*
X7082090Y-2091900D01*
X7094800Y-2093510D01*
X7105380Y-2099940D01*
X7126550Y-2132110D01*
X7141360Y-2146590D01*
X7162530Y-2156250D01*
X7181580Y-2159460D01*
Y-2091900D01*
G01X7173500Y-2595540D02*
Y-2585380D01*
X7046500D01*
Y-2595540D01*
G01X6655000Y-1875000D02*
X6900000D01*
Y-1810000D01*
G01X7091580Y-992030D02*
X6964580D01*
Y-951820D01*
X6970930Y-938950D01*
X6979400Y-930900D01*
X6996330Y-927690D01*
X7013260Y-930900D01*
X7023850Y-940560D01*
X7030200Y-951820D01*
Y-992030D01*
G01Y-951820D02*
X7091580Y-927690D01*
G01X7072530Y-865710D02*
X7083120Y-856060D01*
X7089460Y-844800D01*
X7091580Y-830320D01*
X7087350Y-815840D01*
X7078880Y-804580D01*
X7064070Y-796540D01*
X7047130Y-794930D01*
X7030200Y-798150D01*
X7019610Y-806190D01*
X7011150Y-817450D01*
X7009030Y-828710D01*
X7011150Y-839970D01*
X7019610Y-854450D01*
X6964580Y-849620D01*
Y-806190D01*
G01X7218420Y-752840D02*
Y-1027160D01*
X7101580D01*
Y-752840D01*
X7218420D01*
G01X7171450Y-207080D02*
X7161800Y-200730D01*
X7150540Y-196500D01*
X7137670D01*
X7123190Y-202850D01*
X7111930Y-213430D01*
X7103890Y-226130D01*
X7097450Y-247300D01*
X7095840Y-266350D01*
X7099060Y-285400D01*
X7103890Y-298100D01*
X7113540Y-310800D01*
X7124800Y-319270D01*
X7136060Y-323500D01*
X7147320D01*
X7158580Y-319270D01*
X7168230Y-312920D01*
X7176280Y-304450D01*
G01X7265600Y-323500D02*
Y-196500D01*
X7246300Y-221900D01*
G01Y-323500D02*
X7284900D01*
G01X7153060Y-3949500D02*
Y-4076500D01*
X7217400D01*
G01X7284200Y-3970670D02*
X7293860Y-3957970D01*
X7305120Y-3951620D01*
X7317990Y-3949500D01*
X7334070Y-3953730D01*
X7345340Y-3964320D01*
X7348550Y-3977010D01*
X7346940Y-3989720D01*
X7340510Y-4000300D01*
X7308340Y-4021470D01*
X7293860Y-4036280D01*
X7284200Y-4057450D01*
X7280990Y-4076500D01*
X7348550D01*
G01X7579040Y-4068150D02*
X7452040D01*
Y-4035980D01*
X7458390Y-4023110D01*
X7466860Y-4013460D01*
X7479550Y-4005410D01*
X7494380Y-3998980D01*
X7515540Y-3997370D01*
X7536710Y-3998980D01*
X7551530Y-4005410D01*
X7564230Y-4013460D01*
X7572690Y-4023110D01*
X7579040Y-4035980D01*
Y-4068150D01*
G01Y-3938610D02*
X7452040D01*
Y-3906440D01*
X7458390Y-3893570D01*
X7466860Y-3883920D01*
X7479550Y-3875870D01*
X7494380Y-3869440D01*
X7515540Y-3867830D01*
X7536710Y-3869440D01*
X7551530Y-3875870D01*
X7564230Y-3883920D01*
X7572690Y-3893570D01*
X7579040Y-3906440D01*
Y-3938610D01*
G01Y-3773680D02*
X7576920Y-3762420D01*
X7570580Y-3749550D01*
X7559990Y-3741510D01*
X7545170Y-3738290D01*
X7530360Y-3741510D01*
X7517660Y-3751160D01*
X7511310Y-3765640D01*
Y-3781720D01*
X7507070Y-3791380D01*
X7496490Y-3799420D01*
X7481670Y-3802640D01*
X7466860Y-3797810D01*
X7456270Y-3786550D01*
X7452040Y-3773680D01*
X7456270Y-3760810D01*
X7466860Y-3749550D01*
X7481670Y-3744720D01*
X7496490Y-3747940D01*
X7507070Y-3755980D01*
X7511310Y-3765640D01*
Y-3781720D01*
X7517660Y-3796200D01*
X7530360Y-3805850D01*
X7545170Y-3809070D01*
X7559990Y-3805850D01*
X7570580Y-3797810D01*
X7576920Y-3784940D01*
X7579040Y-3773680D01*
G01X7850960Y-3730140D02*
Y-4029860D01*
X7729040D01*
Y-3730140D01*
X7850960D01*
G01X7724540Y-4331410D02*
X7718190Y-4341060D01*
X7713960Y-4352320D01*
Y-4365190D01*
X7720310Y-4379670D01*
X7730890Y-4390930D01*
X7743590Y-4398970D01*
X7764760Y-4405410D01*
X7783810Y-4407020D01*
X7802860Y-4403800D01*
X7815560Y-4398970D01*
X7828260Y-4389320D01*
X7836730Y-4378060D01*
X7840960Y-4366800D01*
Y-4355540D01*
X7836730Y-4344280D01*
X7830380Y-4334630D01*
X7821910Y-4326580D01*
G01X7815560Y-4272650D02*
X7830380Y-4263000D01*
X7838840Y-4250130D01*
X7840960Y-4235650D01*
X7838840Y-4222780D01*
X7828260Y-4209910D01*
X7815560Y-4201870D01*
X7802860Y-4200260D01*
X7788050Y-4203480D01*
X7777460Y-4214740D01*
X7773230Y-4226000D01*
Y-4240480D01*
G01Y-4226000D02*
X7766880Y-4216350D01*
X7756300Y-4208300D01*
X7743590Y-4205090D01*
X7730890Y-4208300D01*
X7720310Y-4216350D01*
X7713960Y-4230830D01*
X7716080Y-4245300D01*
X7724540Y-4259780D01*
G01X7840960Y-4107720D02*
X7713960D01*
X7739360Y-4127020D01*
G01X7840960D02*
Y-4088420D01*
G01X7322270Y-3528890D02*
X7315920Y-3522460D01*
X7305340Y-3517630D01*
X7290510Y-3514410D01*
X7277820Y-3517630D01*
X7269350Y-3524060D01*
X7263000Y-3535330D01*
Y-3578760D01*
X7390000D01*
Y-3525670D01*
X7381540Y-3514410D01*
X7368830Y-3507980D01*
X7354020Y-3504760D01*
X7339200Y-3507980D01*
X7326500Y-3517630D01*
X7322270Y-3528890D01*
Y-3578760D01*
G01X7390000Y-3412220D02*
X7387880Y-3425090D01*
X7379420Y-3436350D01*
X7366720Y-3446000D01*
X7351900Y-3452440D01*
X7334970Y-3455660D01*
X7318030D01*
X7301100Y-3452440D01*
X7286280Y-3446000D01*
X7273580Y-3436350D01*
X7265120Y-3425090D01*
X7263000Y-3412220D01*
X7265120Y-3399350D01*
X7273580Y-3388090D01*
X7286280Y-3378440D01*
X7301100Y-3372000D01*
X7318030Y-3368780D01*
X7334970D01*
X7351900Y-3372000D01*
X7366720Y-3378440D01*
X7379420Y-3388090D01*
X7387880Y-3399350D01*
X7390000Y-3412220D01*
G01Y-3282680D02*
X7387880Y-3295550D01*
X7379420Y-3306810D01*
X7366720Y-3316460D01*
X7351900Y-3322900D01*
X7334970Y-3326120D01*
X7318030D01*
X7301100Y-3322900D01*
X7286280Y-3316460D01*
X7273580Y-3306810D01*
X7265120Y-3295550D01*
X7263000Y-3282680D01*
X7265120Y-3269810D01*
X7273580Y-3258550D01*
X7286280Y-3248900D01*
X7301100Y-3242460D01*
X7318030Y-3239240D01*
X7334970D01*
X7351900Y-3242460D01*
X7366720Y-3248900D01*
X7379420Y-3258550D01*
X7387880Y-3269810D01*
X7390000Y-3282680D01*
G01X7263000Y-3153140D02*
X7390000D01*
G01X7263000Y-3190140D02*
Y-3116140D01*
G01X7717160Y-3708420D02*
X7442840D01*
Y-3591580D01*
X7717160D01*
Y-3708420D01*
G01X7414210Y-3558420D02*
Y-3431420D01*
X7454420D01*
X7467290Y-3437770D01*
X7475340Y-3446240D01*
X7478550Y-3463170D01*
X7475340Y-3480100D01*
X7465680Y-3490690D01*
X7454420Y-3497040D01*
X7414210D01*
G01X7454420D02*
X7478550Y-3558420D01*
G01X7540530Y-3539370D02*
X7550180Y-3549960D01*
X7561440Y-3556300D01*
X7575920Y-3558420D01*
X7590400Y-3554190D01*
X7601660Y-3545720D01*
X7609700Y-3530910D01*
X7611310Y-3513970D01*
X7608090Y-3497040D01*
X7600050Y-3486450D01*
X7588790Y-3477990D01*
X7577530Y-3475870D01*
X7566270Y-3477990D01*
X7551790Y-3486450D01*
X7556620Y-3431420D01*
X7600050D01*
G01X7670070Y-3533020D02*
X7679720Y-3547840D01*
X7692590Y-3556300D01*
X7707070Y-3558420D01*
X7719940Y-3556300D01*
X7732810Y-3545720D01*
X7740850Y-3533020D01*
X7742460Y-3520320D01*
X7739240Y-3505510D01*
X7727980Y-3494920D01*
X7716720Y-3490690D01*
X7702240D01*
G01X7716720D02*
X7726370Y-3484340D01*
X7734420Y-3473760D01*
X7737630Y-3461050D01*
X7734420Y-3448350D01*
X7726370Y-3437770D01*
X7711890Y-3431420D01*
X7697420Y-3433540D01*
X7682940Y-3442000D01*
G01X7414210Y-3418420D02*
Y-3291420D01*
X7454420D01*
X7467290Y-3297770D01*
X7475340Y-3306240D01*
X7478550Y-3323170D01*
X7475340Y-3340100D01*
X7465680Y-3350690D01*
X7454420Y-3357040D01*
X7414210D01*
G01X7454420D02*
X7478550Y-3418420D01*
G01X7540530Y-3399370D02*
X7550180Y-3409960D01*
X7561440Y-3416300D01*
X7575920Y-3418420D01*
X7590400Y-3414190D01*
X7601660Y-3405720D01*
X7609700Y-3390910D01*
X7611310Y-3373970D01*
X7608090Y-3357040D01*
X7600050Y-3346450D01*
X7588790Y-3337990D01*
X7577530Y-3335870D01*
X7566270Y-3337990D01*
X7551790Y-3346450D01*
X7556620Y-3291420D01*
X7600050D01*
G01X7724760Y-3418420D02*
Y-3291420D01*
X7665240Y-3382440D01*
X7745680D01*
G01X7207970Y-2071580D02*
Y-1944580D01*
X7248180D01*
X7261050Y-1950930D01*
X7269100Y-1959400D01*
X7272310Y-1976330D01*
X7269100Y-1993260D01*
X7259440Y-2003850D01*
X7248180Y-2010200D01*
X7207970D01*
G01X7248180D02*
X7272310Y-2071580D01*
G01X7366460D02*
X7369680Y-2044070D01*
X7374510Y-2020780D01*
X7380940Y-1999610D01*
X7388980Y-1976330D01*
X7401850Y-1944580D01*
X7337510D01*
G01X7505480Y-2134580D02*
X7545700Y-2261580D01*
X7585920Y-2134580D01*
G01X7639850Y-2261580D02*
Y-2134580D01*
X7672020D01*
X7684890Y-2140930D01*
X7694540Y-2149400D01*
X7702590Y-2162090D01*
X7709020Y-2176920D01*
X7710630Y-2198080D01*
X7709020Y-2219250D01*
X7702590Y-2234070D01*
X7694540Y-2246770D01*
X7684890Y-2255230D01*
X7672020Y-2261580D01*
X7639850D01*
G01X7804780D02*
Y-2134580D01*
X7785480Y-2159980D01*
G01Y-2261580D02*
X7824080D01*
G01X7934320D02*
Y-2134580D01*
X7915020Y-2159980D01*
G01Y-2261580D02*
X7953620D01*
G01X7474460Y-2263500D02*
X7484620D01*
Y-2136500D01*
X7474460D01*
G01X7464300Y-2263500D02*
X7474460D01*
Y-2136500D01*
X7464300D01*
Y-2263500D01*
X7235700D01*
Y-2136500D01*
X7464300D01*
G01X7207970Y-1911580D02*
Y-1784580D01*
X7248180D01*
X7261050Y-1790930D01*
X7269100Y-1799400D01*
X7272310Y-1816330D01*
X7269100Y-1833260D01*
X7259440Y-1843850D01*
X7248180Y-1850200D01*
X7207970D01*
G01X7248180D02*
X7272310Y-1911580D01*
G01X7369680D02*
X7380940Y-1909460D01*
X7393810Y-1903120D01*
X7401850Y-1892530D01*
X7405070Y-1877710D01*
X7401850Y-1862900D01*
X7392200Y-1850200D01*
X7377720Y-1843850D01*
X7361640D01*
X7351980Y-1839610D01*
X7343940Y-1829030D01*
X7340720Y-1814210D01*
X7345550Y-1799400D01*
X7356810Y-1788810D01*
X7369680Y-1784580D01*
X7382550Y-1788810D01*
X7393810Y-1799400D01*
X7398640Y-1814210D01*
X7395420Y-1829030D01*
X7387380Y-1839610D01*
X7377720Y-1843850D01*
X7361640D01*
X7347160Y-1850200D01*
X7337510Y-1862900D01*
X7334290Y-1877710D01*
X7337510Y-1892530D01*
X7345550Y-1903120D01*
X7358420Y-1909460D01*
X7369680Y-1911580D01*
G01X7697160Y-1968420D02*
X7422840D01*
Y-1851580D01*
X7697160D01*
Y-1968420D01*
G01Y-2098420D02*
X7422840D01*
Y-1981580D01*
X7697160D01*
Y-2098420D01*
G01X7437970Y-1581580D02*
Y-1454580D01*
X7478180D01*
X7491050Y-1460930D01*
X7499100Y-1469400D01*
X7502310Y-1486330D01*
X7499100Y-1503260D01*
X7489440Y-1513850D01*
X7478180Y-1520200D01*
X7437970D01*
G01X7478180D02*
X7502310Y-1581580D01*
G01X7618980D02*
Y-1454580D01*
X7559460Y-1545600D01*
X7639900D01*
G01X7927160Y-1588420D02*
X7652840D01*
Y-1471580D01*
X7927160D01*
Y-1588420D01*
G01X7501450Y-1607080D02*
X7491800Y-1600730D01*
X7480540Y-1596500D01*
X7467670D01*
X7453190Y-1602850D01*
X7441930Y-1613430D01*
X7433890Y-1626130D01*
X7427450Y-1647300D01*
X7425840Y-1666350D01*
X7429060Y-1685400D01*
X7433890Y-1698100D01*
X7443540Y-1710800D01*
X7454800Y-1719270D01*
X7466060Y-1723500D01*
X7477320D01*
X7488580Y-1719270D01*
X7498230Y-1712920D01*
X7506280Y-1704450D01*
G01X7592380Y-1723500D02*
X7595600Y-1695990D01*
X7600430Y-1672700D01*
X7606860Y-1651530D01*
X7614900Y-1628250D01*
X7627770Y-1596500D01*
X7563430D01*
G01X7670620Y-1604120D02*
X7909380D01*
X7924620Y-1619360D01*
Y-1700640D01*
X7909380Y-1715880D01*
X7670620D01*
X7655380Y-1700640D01*
Y-1619360D01*
X7670620Y-1604120D01*
G01X7332400Y-1362480D02*
X7319530Y-1360360D01*
X7308270Y-1351900D01*
X7298620Y-1339200D01*
X7292180Y-1324380D01*
X7288960Y-1307450D01*
Y-1290510D01*
X7292180Y-1273580D01*
X7298620Y-1258760D01*
X7308270Y-1246060D01*
X7319530Y-1237600D01*
X7332400Y-1235480D01*
X7345270Y-1237600D01*
X7356530Y-1246060D01*
X7366180Y-1258760D01*
X7372620Y-1273580D01*
X7375840Y-1290510D01*
Y-1307450D01*
X7372620Y-1324380D01*
X7366180Y-1339200D01*
X7356530Y-1351900D01*
X7345270Y-1360360D01*
X7332400Y-1362480D01*
G01X7345270Y-1328610D02*
X7364570Y-1362480D01*
G01X7461940D02*
Y-1235480D01*
X7442640Y-1260880D01*
G01Y-1362480D02*
X7481240D01*
G01X7720150Y-1241380D02*
X7710500Y-1235030D01*
X7699240Y-1230800D01*
X7686370D01*
X7671890Y-1237150D01*
X7660630Y-1247730D01*
X7652590Y-1260430D01*
X7646150Y-1281600D01*
X7644540Y-1300650D01*
X7647760Y-1319700D01*
X7652590Y-1332400D01*
X7662240Y-1345100D01*
X7673500Y-1353570D01*
X7684760Y-1357800D01*
X7696020D01*
X7707280Y-1353570D01*
X7716930Y-1347220D01*
X7724980Y-1338750D01*
G01X7778910Y-1332400D02*
X7788560Y-1347220D01*
X7801430Y-1355680D01*
X7815910Y-1357800D01*
X7828780Y-1355680D01*
X7841650Y-1345100D01*
X7849690Y-1332400D01*
X7851300Y-1319700D01*
X7848080Y-1304890D01*
X7836820Y-1294300D01*
X7825560Y-1290070D01*
X7811080D01*
G01X7825560D02*
X7835210Y-1283720D01*
X7843260Y-1273140D01*
X7846470Y-1260430D01*
X7843260Y-1247730D01*
X7835210Y-1237150D01*
X7820730Y-1230800D01*
X7806260Y-1232920D01*
X7791780Y-1241380D01*
G01X7150620Y-54120D02*
X7389380D01*
X7404620Y-69360D01*
Y-150640D01*
X7389380Y-165880D01*
X7150620D01*
X7135380Y-150640D01*
Y-69360D01*
X7150620Y-54120D01*
G01X8198260Y-9463040D02*
X8185390Y-9467270D01*
X8175740Y-9477860D01*
X8169300Y-9490550D01*
X8164480Y-9507490D01*
X8162870Y-9526540D01*
X8164480Y-9545590D01*
X8169300Y-9562530D01*
X8175740Y-9575230D01*
X8185390Y-9585810D01*
X8198260Y-9590040D01*
X8211130Y-9585810D01*
X8220780Y-9575230D01*
X8227220Y-9562530D01*
X8232040Y-9545590D01*
X8233650Y-9526540D01*
X8232040Y-9507490D01*
X8227220Y-9490550D01*
X8220780Y-9477860D01*
X8211130Y-9467270D01*
X8198260Y-9463040D01*
G01X8324580Y-9590040D02*
X8327800Y-9562530D01*
X8332630Y-9539240D01*
X8339060Y-9518070D01*
X8347100Y-9494790D01*
X8359970Y-9463040D01*
X8295630D01*
G01X8457340Y-9594270D02*
X8454120Y-9592160D01*
Y-9587920D01*
X8457340Y-9585810D01*
X8460560Y-9587920D01*
Y-9592160D01*
X8457340Y-9594270D01*
G01X8586880Y-9463040D02*
X8574010Y-9467270D01*
X8564360Y-9477860D01*
X8557920Y-9490550D01*
X8553100Y-9507490D01*
X8551490Y-9526540D01*
X8553100Y-9545590D01*
X8557920Y-9562530D01*
X8564360Y-9575230D01*
X8574010Y-9585810D01*
X8586880Y-9590040D01*
X8599750Y-9585810D01*
X8609400Y-9575230D01*
X8615840Y-9562530D01*
X8620660Y-9545590D01*
X8622270Y-9526540D01*
X8620660Y-9507490D01*
X8615840Y-9490550D01*
X8609400Y-9477860D01*
X8599750Y-9467270D01*
X8586880Y-9463040D01*
G01X8716420Y-9590040D02*
X8727680Y-9587920D01*
X8740550Y-9581580D01*
X8748590Y-9570990D01*
X8751810Y-9556170D01*
X8748590Y-9541360D01*
X8738940Y-9528660D01*
X8724460Y-9522310D01*
X8708380D01*
X8698720Y-9518070D01*
X8690680Y-9507490D01*
X8687460Y-9492670D01*
X8692290Y-9477860D01*
X8703550Y-9467270D01*
X8716420Y-9463040D01*
X8729290Y-9467270D01*
X8740550Y-9477860D01*
X8745380Y-9492670D01*
X8742160Y-9507490D01*
X8734120Y-9518070D01*
X8724460Y-9522310D01*
X8708380D01*
X8693900Y-9528660D01*
X8684250Y-9541360D01*
X8681030Y-9556170D01*
X8684250Y-9570990D01*
X8692290Y-9581580D01*
X8705160Y-9587920D01*
X8716420Y-9590040D01*
G01X8845960Y-9594270D02*
X8842740Y-9592160D01*
Y-9587920D01*
X8845960Y-9585810D01*
X8849180Y-9587920D01*
Y-9592160D01*
X8845960Y-9594270D01*
G01X8944930Y-9484210D02*
X8954590Y-9471510D01*
X8965850Y-9465160D01*
X8978720Y-9463040D01*
X8994800Y-9467270D01*
X9006070Y-9477860D01*
X9009280Y-9490550D01*
X9007670Y-9503260D01*
X9001240Y-9513840D01*
X8969070Y-9535010D01*
X8954590Y-9549820D01*
X8944930Y-9570990D01*
X8941720Y-9590040D01*
X9009280D01*
G01X9105040Y-9463040D02*
X9092170Y-9467270D01*
X9082520Y-9477860D01*
X9076080Y-9490550D01*
X9071260Y-9507490D01*
X9069650Y-9526540D01*
X9071260Y-9545590D01*
X9076080Y-9562530D01*
X9082520Y-9575230D01*
X9092170Y-9585810D01*
X9105040Y-9590040D01*
X9117910Y-9585810D01*
X9127560Y-9575230D01*
X9134000Y-9562530D01*
X9138820Y-9545590D01*
X9140430Y-9526540D01*
X9138820Y-9507490D01*
X9134000Y-9490550D01*
X9127560Y-9477860D01*
X9117910Y-9467270D01*
X9105040Y-9463040D01*
G01X9204010Y-9484210D02*
X9213670Y-9471510D01*
X9224930Y-9465160D01*
X9237800Y-9463040D01*
X9253880Y-9467270D01*
X9265150Y-9477860D01*
X9268360Y-9490550D01*
X9266750Y-9503260D01*
X9260320Y-9513840D01*
X9228150Y-9535010D01*
X9213670Y-9549820D01*
X9204010Y-9570990D01*
X9200800Y-9590040D01*
X9268360D01*
G01X9333550Y-9484210D02*
X9343210Y-9471510D01*
X9354470Y-9465160D01*
X9367340Y-9463040D01*
X9383420Y-9467270D01*
X9394690Y-9477860D01*
X9397900Y-9490550D01*
X9396290Y-9503260D01*
X9389860Y-9513840D01*
X9357690Y-9535010D01*
X9343210Y-9549820D01*
X9333550Y-9570990D01*
X9330340Y-9590040D01*
X9397900D01*
G01X8371580Y-5242030D02*
X8244580D01*
Y-5201820D01*
X8250930Y-5188950D01*
X8259400Y-5180900D01*
X8276330Y-5177690D01*
X8293260Y-5180900D01*
X8303850Y-5190560D01*
X8310200Y-5201820D01*
Y-5242030D01*
G01Y-5201820D02*
X8371580Y-5177690D01*
G01Y-5061020D02*
X8244580D01*
X8335600Y-5120540D01*
Y-5040100D01*
G01X8356770Y-4978130D02*
X8367350Y-4966870D01*
X8371580Y-4954000D01*
X8367350Y-4941130D01*
X8354650Y-4929870D01*
X8335600Y-4921820D01*
X8316550Y-4918610D01*
X8293260D01*
X8274210Y-4921820D01*
X8257280Y-4929870D01*
X8248810Y-4939520D01*
X8244580Y-4950780D01*
X8248810Y-4963650D01*
X8257280Y-4973300D01*
X8269980Y-4979740D01*
X8286920Y-4982950D01*
X8301730Y-4979740D01*
X8316550Y-4971690D01*
X8325020Y-4962040D01*
X8327130Y-4950780D01*
X8322900Y-4937910D01*
X8312310Y-4928260D01*
X8293260Y-4918610D01*
G01X7772980Y-5170900D02*
X7899980Y-5130680D01*
X7772980Y-5090460D01*
G01Y-5001140D02*
X7899980D01*
G01X7772980Y-5038140D02*
Y-4964140D01*
G01X7847070Y-4902170D02*
X7832250Y-4890900D01*
X7823780Y-4881250D01*
X7819550Y-4868380D01*
X7823780Y-4857120D01*
X7832250Y-4849080D01*
X7844950Y-4842640D01*
X7859760Y-4841030D01*
X7872470Y-4842640D01*
X7885170Y-4849080D01*
X7895750Y-4858730D01*
X7899980Y-4869990D01*
X7895750Y-4882860D01*
X7883050Y-4894120D01*
X7864000Y-4900560D01*
X7842830Y-4902170D01*
X7815320Y-4898950D01*
X7800490Y-4894120D01*
X7785680Y-4886080D01*
X7775100Y-4874820D01*
X7772980Y-4863560D01*
X7777210Y-4852300D01*
X7787800Y-4844250D01*
G01X8102220Y-4677920D02*
Y-4754120D01*
G01X7934580Y-4556000D02*
Y-4657600D01*
G01Y-4876040D02*
Y-4774440D01*
G01X8102220Y-4868420D02*
Y-4876040D01*
G01X7934580D02*
X8102220D01*
G01X8368420Y-4582840D02*
Y-4857160D01*
X8251580D01*
Y-4582840D01*
X8368420D01*
G01X8102220Y-4556000D02*
Y-4563620D01*
G01Y-4556000D02*
X7934580D01*
G01X7871100Y-4402400D02*
Y-4097600D01*
X7888880Y-4079820D01*
X8031120D01*
X8048900Y-4097600D01*
Y-4402400D01*
X8031120Y-4420180D01*
X7888880D01*
X7871100Y-4402400D01*
G01X8519860Y-3896540D02*
X8474140D01*
Y-3970200D01*
X8265860D01*
Y-3896540D01*
X8222680D01*
Y-3327580D01*
X8265860D01*
Y-3309800D01*
X8474140D01*
Y-3327580D01*
X8519860D01*
Y-3896540D01*
G01X7772840Y-3561580D02*
X8047160D01*
Y-3678420D01*
X7772840D01*
Y-3561580D01*
G01Y-3431580D02*
X8047160D01*
Y-3548420D01*
X7772840D01*
Y-3431580D01*
G01X8248380Y-3162500D02*
X8288600Y-3289500D01*
X8328820Y-3162500D01*
G01X8382750Y-3289500D02*
Y-3162500D01*
X8414920D01*
X8427790Y-3168850D01*
X8437440Y-3177320D01*
X8445490Y-3190010D01*
X8451920Y-3204840D01*
X8453530Y-3226000D01*
X8451920Y-3247170D01*
X8445490Y-3261990D01*
X8437440Y-3274690D01*
X8427790Y-3283150D01*
X8414920Y-3289500D01*
X8382750D01*
G01X8517110Y-3236590D02*
X8528380Y-3221770D01*
X8538030Y-3213300D01*
X8550900Y-3209070D01*
X8562160Y-3213300D01*
X8570200Y-3221770D01*
X8576640Y-3234470D01*
X8578250Y-3249280D01*
X8576640Y-3261990D01*
X8570200Y-3274690D01*
X8560550Y-3285270D01*
X8549290Y-3289500D01*
X8536420Y-3285270D01*
X8525160Y-3272570D01*
X8518720Y-3253520D01*
X8517110Y-3232350D01*
X8520330Y-3204840D01*
X8525160Y-3190010D01*
X8533200Y-3175200D01*
X8544460Y-3164620D01*
X8555720Y-3162500D01*
X8566980Y-3166730D01*
X8575030Y-3177320D01*
G01X8177970Y-2771580D02*
Y-2644580D01*
X8218180D01*
X8231050Y-2650930D01*
X8239100Y-2659400D01*
X8242310Y-2676330D01*
X8239100Y-2693260D01*
X8229440Y-2703850D01*
X8218180Y-2710200D01*
X8177970D01*
G01X8218180D02*
X8242310Y-2771580D01*
G01X8304290Y-2752530D02*
X8313940Y-2763120D01*
X8325200Y-2769460D01*
X8339680Y-2771580D01*
X8354160Y-2767350D01*
X8365420Y-2758880D01*
X8373460Y-2744070D01*
X8375070Y-2727130D01*
X8371850Y-2710200D01*
X8363810Y-2699610D01*
X8352550Y-2691150D01*
X8341290Y-2689030D01*
X8330030Y-2691150D01*
X8315550Y-2699610D01*
X8320380Y-2644580D01*
X8363810D01*
G01X8469220Y-2771580D02*
Y-2644580D01*
X8449920Y-2669980D01*
G01Y-2771580D02*
X8488520D01*
G01X8117160Y-2778420D02*
X7842840D01*
Y-2661580D01*
X8117160D01*
Y-2778420D01*
G01X7978590Y-3154540D02*
X7968940Y-3148190D01*
X7957680Y-3143960D01*
X7944810D01*
X7930330Y-3150310D01*
X7919070Y-3160890D01*
X7911030Y-3173590D01*
X7904590Y-3194760D01*
X7902980Y-3213810D01*
X7906200Y-3232860D01*
X7911030Y-3245560D01*
X7920680Y-3258260D01*
X7931940Y-3266730D01*
X7943200Y-3270960D01*
X7954460D01*
X7965720Y-3266730D01*
X7975370Y-3260380D01*
X7983420Y-3251910D01*
G01X8042170Y-3165130D02*
X8051830Y-3152430D01*
X8063090Y-3146080D01*
X8075960Y-3143960D01*
X8092040Y-3148190D01*
X8103310Y-3158780D01*
X8106520Y-3171470D01*
X8104910Y-3184180D01*
X8098480Y-3194760D01*
X8066310Y-3215930D01*
X8051830Y-3230740D01*
X8042170Y-3251910D01*
X8038960Y-3270960D01*
X8106520D01*
G01X8171710Y-3218050D02*
X8182980Y-3203230D01*
X8192630Y-3194760D01*
X8205500Y-3190530D01*
X8216760Y-3194760D01*
X8224800Y-3203230D01*
X8231240Y-3215930D01*
X8232850Y-3230740D01*
X8231240Y-3243450D01*
X8224800Y-3256150D01*
X8215150Y-3266730D01*
X8203890Y-3270960D01*
X8191020Y-3266730D01*
X8179760Y-3254030D01*
X8173320Y-3234980D01*
X8171710Y-3213810D01*
X8174930Y-3186300D01*
X8179760Y-3171470D01*
X8187800Y-3156660D01*
X8199060Y-3146080D01*
X8210320Y-3143960D01*
X8221580Y-3148190D01*
X8229630Y-3158780D01*
G01X8097600Y-2931100D02*
X8402400D01*
X8420180Y-2948880D01*
Y-3091120D01*
X8402400Y-3108900D01*
X8097600D01*
X8079820Y-3091120D01*
Y-2948880D01*
X8097600Y-2931100D01*
G01X7821380Y-3059850D02*
X7815030Y-3069500D01*
X7810800Y-3080760D01*
Y-3093630D01*
X7817150Y-3108110D01*
X7827730Y-3119370D01*
X7840430Y-3127410D01*
X7861600Y-3133850D01*
X7880650Y-3135460D01*
X7899700Y-3132240D01*
X7912400Y-3127410D01*
X7925100Y-3117760D01*
X7933570Y-3106500D01*
X7937800Y-3095240D01*
Y-3083980D01*
X7933570Y-3072720D01*
X7927220Y-3063070D01*
X7918750Y-3055020D01*
G01X7912400Y-3001090D02*
X7927220Y-2991440D01*
X7935680Y-2978570D01*
X7937800Y-2964090D01*
X7935680Y-2951220D01*
X7925100Y-2938350D01*
X7912400Y-2930310D01*
X7899700Y-2928700D01*
X7884890Y-2931920D01*
X7874300Y-2943180D01*
X7870070Y-2954440D01*
Y-2968920D01*
G01Y-2954440D02*
X7863720Y-2944790D01*
X7853140Y-2936740D01*
X7840430Y-2933530D01*
X7827730Y-2936740D01*
X7817150Y-2944790D01*
X7810800Y-2959270D01*
X7812920Y-2973740D01*
X7821380Y-2988220D01*
G01X7912400Y-2871550D02*
X7927220Y-2861900D01*
X7935680Y-2849030D01*
X7937800Y-2834550D01*
X7935680Y-2821680D01*
X7925100Y-2808810D01*
X7912400Y-2800770D01*
X7899700Y-2799160D01*
X7884890Y-2802380D01*
X7874300Y-2813640D01*
X7870070Y-2824900D01*
Y-2839380D01*
G01Y-2824900D02*
X7863720Y-2815250D01*
X7853140Y-2807200D01*
X7840430Y-2803990D01*
X7827730Y-2807200D01*
X7817150Y-2815250D01*
X7810800Y-2829730D01*
X7812920Y-2844200D01*
X7821380Y-2858680D01*
G01X8130620Y-2804120D02*
X8369380D01*
X8384620Y-2819360D01*
Y-2900640D01*
X8369380Y-2915880D01*
X8130620D01*
X8115380Y-2900640D01*
Y-2819360D01*
X8130620Y-2804120D01*
G01X8177970Y-2611580D02*
Y-2484580D01*
X8218180D01*
X8231050Y-2490930D01*
X8239100Y-2499400D01*
X8242310Y-2516330D01*
X8239100Y-2533260D01*
X8229440Y-2543850D01*
X8218180Y-2550200D01*
X8177970D01*
G01X8218180D02*
X8242310Y-2611580D01*
G01X8304290Y-2592530D02*
X8313940Y-2603120D01*
X8325200Y-2609460D01*
X8339680Y-2611580D01*
X8354160Y-2607350D01*
X8365420Y-2598880D01*
X8373460Y-2584070D01*
X8375070Y-2567130D01*
X8371850Y-2550200D01*
X8363810Y-2539610D01*
X8352550Y-2531150D01*
X8341290Y-2529030D01*
X8330030Y-2531150D01*
X8315550Y-2539610D01*
X8320380Y-2484580D01*
X8363810D01*
G01X8469220D02*
X8456350Y-2488810D01*
X8446700Y-2499400D01*
X8440260Y-2512090D01*
X8435440Y-2529030D01*
X8433830Y-2548080D01*
X8435440Y-2567130D01*
X8440260Y-2584070D01*
X8446700Y-2596770D01*
X8456350Y-2607350D01*
X8469220Y-2611580D01*
X8482090Y-2607350D01*
X8491740Y-2596770D01*
X8498180Y-2584070D01*
X8503000Y-2567130D01*
X8504610Y-2548080D01*
X8503000Y-2529030D01*
X8498180Y-2512090D01*
X8491740Y-2499400D01*
X8482090Y-2488810D01*
X8469220Y-2484580D01*
G01X8117160Y-2648420D02*
X7842840D01*
Y-2531580D01*
X8117160D01*
Y-2648420D01*
G01X8295570Y-2441500D02*
Y-2314500D01*
X8327740D01*
X8340610Y-2320850D01*
X8350260Y-2329320D01*
X8358310Y-2342010D01*
X8364740Y-2356840D01*
X8366350Y-2378000D01*
X8364740Y-2399170D01*
X8358310Y-2413990D01*
X8350260Y-2426690D01*
X8340610Y-2435150D01*
X8327740Y-2441500D01*
X8295570D01*
G01X8425110D02*
Y-2314500D01*
X8457280D01*
X8470150Y-2320850D01*
X8479800Y-2329320D01*
X8487850Y-2342010D01*
X8494280Y-2356840D01*
X8495890Y-2378000D01*
X8494280Y-2399170D01*
X8487850Y-2413990D01*
X8479800Y-2426690D01*
X8470150Y-2435150D01*
X8457280Y-2441500D01*
X8425110D01*
G01X8559470Y-2335670D02*
X8569130Y-2322970D01*
X8580390Y-2316620D01*
X8593260Y-2314500D01*
X8609340Y-2318730D01*
X8620610Y-2329320D01*
X8623820Y-2342010D01*
X8622210Y-2354720D01*
X8615780Y-2365300D01*
X8583610Y-2386470D01*
X8569130Y-2401280D01*
X8559470Y-2422450D01*
X8556260Y-2441500D01*
X8623820D01*
G01X7873360Y-1044540D02*
X7863710Y-1038190D01*
X7852450Y-1033960D01*
X7839580D01*
X7825100Y-1040310D01*
X7813840Y-1050890D01*
X7805800Y-1063590D01*
X7799360Y-1084760D01*
X7797750Y-1103810D01*
X7800970Y-1122860D01*
X7805800Y-1135560D01*
X7815450Y-1148260D01*
X7826710Y-1156730D01*
X7837970Y-1160960D01*
X7849230D01*
X7860490Y-1156730D01*
X7870140Y-1150380D01*
X7878190Y-1141910D01*
G01X7967510Y-1160960D02*
X7978770Y-1158840D01*
X7991640Y-1152500D01*
X7999680Y-1141910D01*
X8002900Y-1127090D01*
X7999680Y-1112280D01*
X7990030Y-1099580D01*
X7975550Y-1093230D01*
X7959470D01*
X7949810Y-1088990D01*
X7941770Y-1078410D01*
X7938550Y-1063590D01*
X7943380Y-1048780D01*
X7954640Y-1038190D01*
X7967510Y-1033960D01*
X7980380Y-1038190D01*
X7991640Y-1048780D01*
X7996470Y-1063590D01*
X7993250Y-1078410D01*
X7985210Y-1088990D01*
X7975550Y-1093230D01*
X7959470D01*
X7944990Y-1099580D01*
X7935340Y-1112280D01*
X7932120Y-1127090D01*
X7935340Y-1141910D01*
X7943380Y-1152500D01*
X7956250Y-1158840D01*
X7967510Y-1160960D01*
G01X8037600Y-1021100D02*
X8342400D01*
X8360180Y-1038880D01*
Y-1181120D01*
X8342400Y-1198900D01*
X8037600D01*
X8019820Y-1181120D01*
Y-1038880D01*
X8037600Y-1021100D01*
G01X7985880Y-1180620D02*
Y-1419380D01*
X7970640Y-1434620D01*
X7889360D01*
X7874120Y-1419380D01*
Y-1180620D01*
X7889360Y-1165380D01*
X7970640D01*
X7985880Y-1180620D01*
G01X8114210Y-648420D02*
Y-521420D01*
X8154420D01*
X8167290Y-527770D01*
X8175340Y-536240D01*
X8178550Y-553170D01*
X8175340Y-570100D01*
X8165680Y-580690D01*
X8154420Y-587040D01*
X8114210D01*
G01X8154420D02*
X8178550Y-648420D01*
G01X8245350Y-595510D02*
X8256620Y-580690D01*
X8266270Y-572220D01*
X8279140Y-567990D01*
X8290400Y-572220D01*
X8298440Y-580690D01*
X8304880Y-593390D01*
X8306490Y-608200D01*
X8304880Y-620910D01*
X8298440Y-633610D01*
X8288790Y-644190D01*
X8277530Y-648420D01*
X8264660Y-644190D01*
X8253400Y-631490D01*
X8246960Y-612440D01*
X8245350Y-591270D01*
X8248570Y-563760D01*
X8253400Y-548930D01*
X8261440Y-534120D01*
X8272700Y-523540D01*
X8283960Y-521420D01*
X8295220Y-525650D01*
X8303270Y-536240D01*
G01X7822840Y-531580D02*
X8097160D01*
Y-648420D01*
X7822840D01*
Y-531580D01*
G01X8114210Y-498420D02*
Y-371420D01*
X8154420D01*
X8167290Y-377770D01*
X8175340Y-386240D01*
X8178550Y-403170D01*
X8175340Y-420100D01*
X8165680Y-430690D01*
X8154420Y-437040D01*
X8114210D01*
G01X8154420D02*
X8178550Y-498420D01*
G01X8248570Y-483610D02*
X8259830Y-494190D01*
X8272700Y-498420D01*
X8285570Y-494190D01*
X8296830Y-481490D01*
X8304880Y-462440D01*
X8308090Y-443390D01*
Y-420100D01*
X8304880Y-401050D01*
X8296830Y-384120D01*
X8287180Y-375650D01*
X8275920Y-371420D01*
X8263050Y-375650D01*
X8253400Y-384120D01*
X8246960Y-396820D01*
X8243750Y-413760D01*
X8246960Y-428570D01*
X8255010Y-443390D01*
X8264660Y-451860D01*
X8275920Y-453970D01*
X8288790Y-449740D01*
X8298440Y-439150D01*
X8308090Y-420100D01*
G01X7822840Y-381580D02*
X8097160D01*
Y-498420D01*
X7822840D01*
Y-381580D01*
G01X8114210Y-348420D02*
Y-221420D01*
X8154420D01*
X8167290Y-227770D01*
X8175340Y-236240D01*
X8178550Y-253170D01*
X8175340Y-270100D01*
X8165680Y-280690D01*
X8154420Y-287040D01*
X8114210D01*
G01X8154420D02*
X8178550Y-348420D01*
G01X8240530Y-323020D02*
X8250180Y-337840D01*
X8263050Y-346300D01*
X8277530Y-348420D01*
X8290400Y-346300D01*
X8303270Y-335720D01*
X8311310Y-323020D01*
X8312920Y-310320D01*
X8309700Y-295510D01*
X8298440Y-284920D01*
X8287180Y-280690D01*
X8272700D01*
G01X8287180D02*
X8296830Y-274340D01*
X8304880Y-263760D01*
X8308090Y-251050D01*
X8304880Y-238350D01*
X8296830Y-227770D01*
X8282350Y-221420D01*
X8267880Y-223540D01*
X8253400Y-232000D01*
G01X7822840Y-231580D02*
X8097160D01*
Y-348420D01*
X7822840D01*
Y-231580D01*
G01X8207970Y-801580D02*
Y-674580D01*
X8248180D01*
X8261050Y-680930D01*
X8269100Y-689400D01*
X8272310Y-706330D01*
X8269100Y-723260D01*
X8259440Y-733850D01*
X8248180Y-740200D01*
X8207970D01*
G01X8248180D02*
X8272310Y-801580D01*
G01X8339110Y-695750D02*
X8348770Y-683050D01*
X8360030Y-676700D01*
X8372900Y-674580D01*
X8388980Y-678810D01*
X8400250Y-689400D01*
X8403460Y-702090D01*
X8401850Y-714800D01*
X8395420Y-725380D01*
X8363250Y-746550D01*
X8348770Y-761360D01*
X8339110Y-782530D01*
X8335900Y-801580D01*
X8403460D01*
G01X8187160Y-798420D02*
X7912840D01*
Y-681580D01*
X8187160D01*
Y-798420D01*
G01X7774210Y-168420D02*
Y-41420D01*
X7814420D01*
X7827290Y-47770D01*
X7835340Y-56240D01*
X7838550Y-73170D01*
X7835340Y-90100D01*
X7825680Y-100690D01*
X7814420Y-107040D01*
X7774210D01*
G01X7814420D02*
X7838550Y-168420D01*
G01X7935920D02*
Y-41420D01*
X7916620Y-66820D01*
G01Y-168420D02*
X7955220D01*
G01X7982840Y-51580D02*
X8257160D01*
Y-168420D01*
X7982840D01*
Y-51580D01*
G01X8402870Y-9200000D02*
Y-9073000D01*
X8435040D01*
X8447910Y-9079350D01*
X8457560Y-9087820D01*
X8465610Y-9100510D01*
X8472040Y-9115340D01*
X8473650Y-9136500D01*
X8472040Y-9157670D01*
X8465610Y-9172490D01*
X8457560Y-9185190D01*
X8447910Y-9193650D01*
X8435040Y-9200000D01*
X8402870D01*
G01X8525970D02*
Y-9073000D01*
X8567800Y-9178830D01*
X8609630Y-9073000D01*
Y-9200000D01*
G01X8710210Y-9132270D02*
X8716640Y-9125920D01*
X8721470Y-9115340D01*
X8724690Y-9100510D01*
X8721470Y-9087820D01*
X8715040Y-9079350D01*
X8703770Y-9073000D01*
X8660340D01*
Y-9200000D01*
X8713430D01*
X8724690Y-9191540D01*
X8731120Y-9178830D01*
X8734340Y-9164020D01*
X8731120Y-9149200D01*
X8721470Y-9136500D01*
X8710210Y-9132270D01*
X8660340D01*
G01X8805970Y-9157670D02*
X8847790D01*
G01X8956420Y-9200000D02*
Y-9073000D01*
X8937120Y-9098400D01*
G01Y-9200000D02*
X8975720D01*
G01X9085960Y-9073000D02*
X9073090Y-9077230D01*
X9063440Y-9087820D01*
X9057000Y-9100510D01*
X9052180Y-9117450D01*
X9050570Y-9136500D01*
X9052180Y-9155550D01*
X9057000Y-9172490D01*
X9063440Y-9185190D01*
X9073090Y-9195770D01*
X9085960Y-9200000D01*
X9098830Y-9195770D01*
X9108480Y-9185190D01*
X9114920Y-9172490D01*
X9119740Y-9155550D01*
X9121350Y-9136500D01*
X9119740Y-9117450D01*
X9114920Y-9100510D01*
X9108480Y-9087820D01*
X9098830Y-9077230D01*
X9085960Y-9073000D01*
G01X9215500D02*
X9202630Y-9077230D01*
X9192980Y-9087820D01*
X9186540Y-9100510D01*
X9181720Y-9117450D01*
X9180110Y-9136500D01*
X9181720Y-9155550D01*
X9186540Y-9172490D01*
X9192980Y-9185190D01*
X9202630Y-9195770D01*
X9215500Y-9200000D01*
X9228370Y-9195770D01*
X9238020Y-9185190D01*
X9244460Y-9172490D01*
X9249280Y-9155550D01*
X9250890Y-9136500D01*
X9249280Y-9117450D01*
X9244460Y-9100510D01*
X9238020Y-9087820D01*
X9228370Y-9077230D01*
X9215500Y-9073000D01*
G01X8508040Y-9253020D02*
X8548260Y-9380020D01*
X8588480Y-9253020D01*
G01X8709970Y-9380020D02*
X8645630D01*
Y-9253020D01*
X8709970D01*
G01X8684230Y-9314400D02*
X8645630D01*
G01X8775170Y-9380020D02*
Y-9253020D01*
X8815380D01*
X8828250Y-9259370D01*
X8836300Y-9267840D01*
X8839510Y-9284770D01*
X8836300Y-9301700D01*
X8826640Y-9312290D01*
X8815380Y-9318640D01*
X8775170D01*
G01X8815380D02*
X8839510Y-9380020D01*
G01X8888620Y-9422350D02*
X8985140D01*
G01X9066420Y-9380020D02*
Y-9253020D01*
X9047120Y-9278420D01*
G01Y-9380020D02*
X9085720D01*
G01X8700000Y-8100000D02*
Y-8700000D01*
X9300000D01*
Y-8100000D01*
X8700000D01*
G01X8474210Y-7858420D02*
Y-7731420D01*
X8514420D01*
X8527290Y-7737770D01*
X8535340Y-7746240D01*
X8538550Y-7763170D01*
X8535340Y-7780100D01*
X8525680Y-7790690D01*
X8514420Y-7797040D01*
X8474210D01*
G01X8514420D02*
X8538550Y-7858420D01*
G01X8600530Y-7833020D02*
X8610180Y-7847840D01*
X8623050Y-7856300D01*
X8637530Y-7858420D01*
X8650400Y-7856300D01*
X8663270Y-7845720D01*
X8671310Y-7833020D01*
X8672920Y-7820320D01*
X8669700Y-7805510D01*
X8658440Y-7794920D01*
X8647180Y-7790690D01*
X8632700D01*
G01X8647180D02*
X8656830Y-7784340D01*
X8664880Y-7773760D01*
X8668090Y-7761050D01*
X8664880Y-7748350D01*
X8656830Y-7737770D01*
X8642350Y-7731420D01*
X8627880Y-7733540D01*
X8613400Y-7742000D01*
G01X8734890Y-7805510D02*
X8746160Y-7790690D01*
X8755810Y-7782220D01*
X8768680Y-7777990D01*
X8779940Y-7782220D01*
X8787980Y-7790690D01*
X8794420Y-7803390D01*
X8796030Y-7818200D01*
X8794420Y-7830910D01*
X8787980Y-7843610D01*
X8778330Y-7854190D01*
X8767070Y-7858420D01*
X8754200Y-7854190D01*
X8742940Y-7841490D01*
X8736500Y-7822440D01*
X8734890Y-7801270D01*
X8738110Y-7773760D01*
X8742940Y-7758930D01*
X8750980Y-7744120D01*
X8762240Y-7733540D01*
X8773500Y-7731420D01*
X8784760Y-7735650D01*
X8792810Y-7746240D01*
G01X8492840Y-7891580D02*
X8767160D01*
Y-8008420D01*
X8492840D01*
Y-7891580D01*
G01X8844480Y-8023070D02*
X8857350Y-8033650D01*
X8871830Y-8040000D01*
X8884690D01*
X8897560Y-8033650D01*
X8907220Y-8023070D01*
X8912040Y-8008250D01*
X8908830Y-7993440D01*
X8900780Y-7980730D01*
X8886300Y-7972270D01*
X8867000Y-7968030D01*
X8855740Y-7959570D01*
X8850910Y-7944750D01*
X8854130Y-7929930D01*
X8862170Y-7919350D01*
X8873430Y-7913000D01*
X8884690D01*
X8895960Y-7917230D01*
X8905610Y-7927820D01*
G01X8959540Y-7913000D02*
X8982060Y-8040000D01*
X9007800Y-7913000D01*
X9033540Y-8040000D01*
X9056060Y-7913000D01*
G01X9106770Y-7987090D02*
X9118040Y-7972270D01*
X9127690Y-7963800D01*
X9140560Y-7959570D01*
X9151820Y-7963800D01*
X9159860Y-7972270D01*
X9166300Y-7984970D01*
X9167910Y-7999780D01*
X9166300Y-8012490D01*
X9159860Y-8025190D01*
X9150210Y-8035770D01*
X9138950Y-8040000D01*
X9126080Y-8035770D01*
X9114820Y-8023070D01*
X9108380Y-8004020D01*
X9106770Y-7982850D01*
X9109990Y-7955340D01*
X9114820Y-7940510D01*
X9122860Y-7925700D01*
X9134120Y-7915120D01*
X9145380Y-7913000D01*
X9156640Y-7917230D01*
X9164690Y-7927820D01*
G01X8700000Y-5900000D02*
Y-6500000D01*
X9300000D01*
Y-5900000D01*
X8700000D01*
G01X8824480Y-5833070D02*
X8837350Y-5843650D01*
X8851830Y-5850000D01*
X8864690D01*
X8877560Y-5843650D01*
X8887220Y-5833070D01*
X8892040Y-5818250D01*
X8888830Y-5803440D01*
X8880780Y-5790730D01*
X8866300Y-5782270D01*
X8847000Y-5778030D01*
X8835740Y-5769570D01*
X8830910Y-5754750D01*
X8834130Y-5739930D01*
X8842170Y-5729350D01*
X8853430Y-5723000D01*
X8864690D01*
X8875960Y-5727230D01*
X8885610Y-5737820D01*
G01X8939540Y-5723000D02*
X8962060Y-5850000D01*
X8987800Y-5723000D01*
X9013540Y-5850000D01*
X9036060Y-5723000D01*
G01X9081950Y-5830950D02*
X9091600Y-5841540D01*
X9102860Y-5847880D01*
X9117340Y-5850000D01*
X9131820Y-5845770D01*
X9143080Y-5837300D01*
X9151120Y-5822490D01*
X9152730Y-5805550D01*
X9149510Y-5788620D01*
X9141470Y-5778030D01*
X9130210Y-5769570D01*
X9118950Y-5767450D01*
X9107690Y-5769570D01*
X9093210Y-5778030D01*
X9098040Y-5723000D01*
X9141470D01*
G01X8474210Y-5648420D02*
Y-5521420D01*
X8514420D01*
X8527290Y-5527770D01*
X8535340Y-5536240D01*
X8538550Y-5553170D01*
X8535340Y-5570100D01*
X8525680Y-5580690D01*
X8514420Y-5587040D01*
X8474210D01*
G01X8514420D02*
X8538550Y-5648420D01*
G01X8600530Y-5623020D02*
X8610180Y-5637840D01*
X8623050Y-5646300D01*
X8637530Y-5648420D01*
X8650400Y-5646300D01*
X8663270Y-5635720D01*
X8671310Y-5623020D01*
X8672920Y-5610320D01*
X8669700Y-5595510D01*
X8658440Y-5584920D01*
X8647180Y-5580690D01*
X8632700D01*
G01X8647180D02*
X8656830Y-5574340D01*
X8664880Y-5563760D01*
X8668090Y-5551050D01*
X8664880Y-5538350D01*
X8656830Y-5527770D01*
X8642350Y-5521420D01*
X8627880Y-5523540D01*
X8613400Y-5532000D01*
G01X8765460Y-5521420D02*
X8752590Y-5525650D01*
X8742940Y-5536240D01*
X8736500Y-5548930D01*
X8731680Y-5565870D01*
X8730070Y-5584920D01*
X8731680Y-5603970D01*
X8736500Y-5620910D01*
X8742940Y-5633610D01*
X8752590Y-5644190D01*
X8765460Y-5648420D01*
X8778330Y-5644190D01*
X8787980Y-5633610D01*
X8794420Y-5620910D01*
X8799240Y-5603970D01*
X8800850Y-5584920D01*
X8799240Y-5565870D01*
X8794420Y-5548930D01*
X8787980Y-5536240D01*
X8778330Y-5525650D01*
X8765460Y-5521420D01*
G01X8482840Y-5681580D02*
X8757160D01*
Y-5798420D01*
X8482840D01*
Y-5681580D01*
G01X8937970Y-5261580D02*
Y-5134580D01*
X8978180D01*
X8991050Y-5140930D01*
X8999100Y-5149400D01*
X9002310Y-5166330D01*
X8999100Y-5183260D01*
X8989440Y-5193850D01*
X8978180Y-5200200D01*
X8937970D01*
G01X8978180D02*
X9002310Y-5261580D01*
G01X9064290Y-5242530D02*
X9073940Y-5253120D01*
X9085200Y-5259460D01*
X9099680Y-5261580D01*
X9114160Y-5257350D01*
X9125420Y-5248880D01*
X9133460Y-5234070D01*
X9135070Y-5217130D01*
X9131850Y-5200200D01*
X9123810Y-5189610D01*
X9112550Y-5181150D01*
X9101290Y-5179030D01*
X9090030Y-5181150D01*
X9075550Y-5189610D01*
X9080380Y-5134580D01*
X9123810D01*
G01X9201870Y-5246770D02*
X9213130Y-5257350D01*
X9226000Y-5261580D01*
X9238870Y-5257350D01*
X9250130Y-5244650D01*
X9258180Y-5225600D01*
X9261390Y-5206550D01*
Y-5183260D01*
X9258180Y-5164210D01*
X9250130Y-5147280D01*
X9240480Y-5138810D01*
X9229220Y-5134580D01*
X9216350Y-5138810D01*
X9206700Y-5147280D01*
X9200260Y-5159980D01*
X9197050Y-5176920D01*
X9200260Y-5191730D01*
X9208310Y-5206550D01*
X9217960Y-5215020D01*
X9229220Y-5217130D01*
X9242090Y-5212900D01*
X9251740Y-5202310D01*
X9261390Y-5183260D01*
G01X8585020Y-4949950D02*
Y-4822950D01*
X8617190D01*
X8630060Y-4829300D01*
X8639710Y-4837770D01*
X8647760Y-4850460D01*
X8654190Y-4865290D01*
X8655800Y-4886450D01*
X8654190Y-4907620D01*
X8647760Y-4922440D01*
X8639710Y-4935140D01*
X8630060Y-4943600D01*
X8617190Y-4949950D01*
X8585020D01*
G01X8714560D02*
Y-4822950D01*
X8746730D01*
X8759600Y-4829300D01*
X8769250Y-4837770D01*
X8777300Y-4850460D01*
X8783730Y-4865290D01*
X8785340Y-4886450D01*
X8783730Y-4907620D01*
X8777300Y-4922440D01*
X8769250Y-4935140D01*
X8759600Y-4943600D01*
X8746730Y-4949950D01*
X8714560D01*
G01X8852140Y-4935140D02*
X8863400Y-4945720D01*
X8876270Y-4949950D01*
X8889140Y-4945720D01*
X8900400Y-4933020D01*
X8908450Y-4913970D01*
X8911660Y-4894920D01*
Y-4871630D01*
X8908450Y-4852580D01*
X8900400Y-4835650D01*
X8890750Y-4827180D01*
X8879490Y-4822950D01*
X8866620Y-4827180D01*
X8856970Y-4835650D01*
X8850530Y-4848350D01*
X8847320Y-4865290D01*
X8850530Y-4880100D01*
X8858580Y-4894920D01*
X8868230Y-4903390D01*
X8879490Y-4905500D01*
X8892360Y-4901270D01*
X8902010Y-4890680D01*
X8911660Y-4871630D01*
G01X9031250Y-4657000D02*
X8868750D01*
G01X8581580Y-4732030D02*
X8454580D01*
Y-4691820D01*
X8460930Y-4678950D01*
X8469400Y-4670900D01*
X8486330Y-4667690D01*
X8503260Y-4670900D01*
X8513850Y-4680560D01*
X8520200Y-4691820D01*
Y-4732030D01*
G01Y-4691820D02*
X8581580Y-4667690D01*
G01X8562530Y-4605710D02*
X8573120Y-4596060D01*
X8579460Y-4584800D01*
X8581580Y-4570320D01*
X8577350Y-4555840D01*
X8568880Y-4544580D01*
X8554070Y-4536540D01*
X8537130Y-4534930D01*
X8520200Y-4538150D01*
X8509610Y-4546190D01*
X8501150Y-4557450D01*
X8499030Y-4568710D01*
X8501150Y-4579970D01*
X8509610Y-4594450D01*
X8454580Y-4589620D01*
Y-4546190D01*
G01X8528670Y-4471350D02*
X8513850Y-4460080D01*
X8505380Y-4450430D01*
X8501150Y-4437560D01*
X8505380Y-4426300D01*
X8513850Y-4418260D01*
X8526550Y-4411820D01*
X8541360Y-4410210D01*
X8554070Y-4411820D01*
X8566770Y-4418260D01*
X8577350Y-4427910D01*
X8581580Y-4439170D01*
X8577350Y-4452040D01*
X8564650Y-4463300D01*
X8545600Y-4469740D01*
X8524430Y-4471350D01*
X8496920Y-4468130D01*
X8482090Y-4463300D01*
X8467280Y-4455260D01*
X8456700Y-4444000D01*
X8454580Y-4432740D01*
X8458810Y-4421480D01*
X8469400Y-4413430D01*
G01X8718420Y-4442840D02*
Y-4717160D01*
X8601580D01*
Y-4442840D01*
X8718420D01*
G01X8934210Y-5118420D02*
Y-4991420D01*
X8974420D01*
X8987290Y-4997770D01*
X8995340Y-5006240D01*
X8998550Y-5023170D01*
X8995340Y-5040100D01*
X8985680Y-5050690D01*
X8974420Y-5057040D01*
X8934210D01*
G01X8974420D02*
X8998550Y-5118420D01*
G01X9060530Y-5099370D02*
X9070180Y-5109960D01*
X9081440Y-5116300D01*
X9095920Y-5118420D01*
X9110400Y-5114190D01*
X9121660Y-5105720D01*
X9129700Y-5090910D01*
X9131310Y-5073970D01*
X9128090Y-5057040D01*
X9120050Y-5046450D01*
X9108790Y-5037990D01*
X9097530Y-5035870D01*
X9086270Y-5037990D01*
X9071790Y-5046450D01*
X9076620Y-4991420D01*
X9120050D01*
G01X9190070Y-5099370D02*
X9199720Y-5109960D01*
X9210980Y-5116300D01*
X9225460Y-5118420D01*
X9239940Y-5114190D01*
X9251200Y-5105720D01*
X9259240Y-5090910D01*
X9260850Y-5073970D01*
X9257630Y-5057040D01*
X9249590Y-5046450D01*
X9238330Y-5037990D01*
X9227070Y-5035870D01*
X9215810Y-5037990D01*
X9201330Y-5046450D01*
X9206160Y-4991420D01*
X9249590D01*
G01X8942840Y-4681580D02*
X9217160D01*
Y-4798420D01*
X8942840D01*
Y-4681580D01*
G01X9217160Y-4958420D02*
X8942840D01*
Y-4841580D01*
X9217160D01*
Y-4958420D01*
G01X8868750Y-3983000D02*
X9031250D01*
G01X8868750Y-4297000D02*
X9031250D01*
G01Y-4343000D02*
X8868750D01*
G01X8661580Y-4075870D02*
X8534580D01*
Y-4035660D01*
X8540930Y-4022790D01*
X8549400Y-4014740D01*
X8566330Y-4011530D01*
X8583260Y-4014740D01*
X8593850Y-4024400D01*
X8600200Y-4035660D01*
Y-4075870D01*
G01Y-4035660D02*
X8661580Y-4011530D01*
G01Y-3894860D02*
X8534580D01*
X8625600Y-3954380D01*
Y-3873940D01*
G01X8661580Y-3784620D02*
X8659460Y-3773360D01*
X8653120Y-3760490D01*
X8642530Y-3752450D01*
X8627710Y-3749230D01*
X8612900Y-3752450D01*
X8600200Y-3762100D01*
X8593850Y-3776580D01*
Y-3792660D01*
X8589610Y-3802320D01*
X8579030Y-3810360D01*
X8564210Y-3813580D01*
X8549400Y-3808750D01*
X8538810Y-3797490D01*
X8534580Y-3784620D01*
X8538810Y-3771750D01*
X8549400Y-3760490D01*
X8564210Y-3755660D01*
X8579030Y-3758880D01*
X8589610Y-3766920D01*
X8593850Y-3776580D01*
Y-3792660D01*
X8600200Y-3807140D01*
X8612900Y-3816790D01*
X8627710Y-3820010D01*
X8642530Y-3816790D01*
X8653120Y-3808750D01*
X8659460Y-3795880D01*
X8661580Y-3784620D01*
G01X8797780Y-3822080D02*
Y-3745880D01*
G01Y-3944000D02*
Y-3936380D01*
G01X8965420Y-3944000D02*
Y-3842400D01*
G01Y-3623960D02*
Y-3725560D01*
G01X8797780Y-3631580D02*
Y-3623960D01*
G01X8965420D02*
X8797780D01*
G01Y-3944000D02*
X8965420D01*
G01X8668100Y-3541100D02*
Y-3718900D01*
X8591900D01*
Y-3541100D01*
X8668100D01*
G01X8958590Y-3294540D02*
X8948940Y-3288190D01*
X8937680Y-3283960D01*
X8924810D01*
X8910330Y-3290310D01*
X8899070Y-3300890D01*
X8891030Y-3313590D01*
X8884590Y-3334760D01*
X8882980Y-3353810D01*
X8886200Y-3372860D01*
X8891030Y-3385560D01*
X8900680Y-3398260D01*
X8911940Y-3406730D01*
X8923200Y-3410960D01*
X8934460D01*
X8945720Y-3406730D01*
X8955370Y-3400380D01*
X8963420Y-3391910D01*
G01X9022170Y-3305130D02*
X9031830Y-3292430D01*
X9043090Y-3286080D01*
X9055960Y-3283960D01*
X9072040Y-3288190D01*
X9083310Y-3298780D01*
X9086520Y-3311470D01*
X9084910Y-3324180D01*
X9078480Y-3334760D01*
X9046310Y-3355930D01*
X9031830Y-3370740D01*
X9022170Y-3391910D01*
X9018960Y-3410960D01*
X9086520D01*
G01X9182280D02*
X9193540Y-3408840D01*
X9206410Y-3402500D01*
X9214450Y-3391910D01*
X9217670Y-3377090D01*
X9214450Y-3362280D01*
X9204800Y-3349580D01*
X9190320Y-3343230D01*
X9174240D01*
X9164580Y-3338990D01*
X9156540Y-3328410D01*
X9153320Y-3313590D01*
X9158150Y-3298780D01*
X9169410Y-3288190D01*
X9182280Y-3283960D01*
X9195150Y-3288190D01*
X9206410Y-3298780D01*
X9211240Y-3313590D01*
X9208020Y-3328410D01*
X9199980Y-3338990D01*
X9190320Y-3343230D01*
X9174240D01*
X9159760Y-3349580D01*
X9150110Y-3362280D01*
X9146890Y-3377090D01*
X9150110Y-3391910D01*
X9158150Y-3402500D01*
X9171020Y-3408840D01*
X9182280Y-3410960D01*
G01X8887600Y-3431100D02*
X9192400D01*
X9210180Y-3448880D01*
Y-3591120D01*
X9192400Y-3608900D01*
X8887600D01*
X8869820Y-3591120D01*
Y-3448880D01*
X8887600Y-3431100D01*
G01X8737080Y-3418550D02*
X8730730Y-3428200D01*
X8726500Y-3439460D01*
Y-3452330D01*
X8732850Y-3466810D01*
X8743430Y-3478070D01*
X8756130Y-3486110D01*
X8777300Y-3492550D01*
X8796350Y-3494160D01*
X8815400Y-3490940D01*
X8828100Y-3486110D01*
X8840800Y-3476460D01*
X8849270Y-3465200D01*
X8853500Y-3453940D01*
Y-3442680D01*
X8849270Y-3431420D01*
X8842920Y-3421770D01*
X8834450Y-3413720D01*
G01X8747670Y-3354970D02*
X8734970Y-3345310D01*
X8728620Y-3334050D01*
X8726500Y-3321180D01*
X8730730Y-3305100D01*
X8741320Y-3293830D01*
X8754010Y-3290620D01*
X8766720Y-3292230D01*
X8777300Y-3298660D01*
X8798470Y-3330830D01*
X8813280Y-3345310D01*
X8834450Y-3354970D01*
X8853500Y-3358180D01*
Y-3290620D01*
G01X8834450Y-3230250D02*
X8845040Y-3220600D01*
X8851380Y-3209340D01*
X8853500Y-3194860D01*
X8849270Y-3180380D01*
X8840800Y-3169120D01*
X8825990Y-3161080D01*
X8809050Y-3159470D01*
X8792120Y-3162690D01*
X8781530Y-3170730D01*
X8773070Y-3181990D01*
X8770950Y-3193250D01*
X8773070Y-3204510D01*
X8781530Y-3218990D01*
X8726500Y-3214160D01*
Y-3170730D01*
G01X8604120Y-3489380D02*
Y-3250620D01*
X8619360Y-3235380D01*
X8700640D01*
X8715880Y-3250620D01*
Y-3489380D01*
X8700640Y-3504620D01*
X8619360D01*
X8604120Y-3489380D01*
G01X8832100Y-2285740D02*
Y-2412740D01*
X8896440D01*
G01X8993810D02*
Y-2285740D01*
X8974510Y-2311140D01*
G01Y-2412740D02*
X9013110D01*
G01X8954120Y-2159380D02*
Y-1920620D01*
X8969360Y-1905380D01*
X9050640D01*
X9065880Y-1920620D01*
Y-2159380D01*
X9050640Y-2174620D01*
X8969360D01*
X8954120Y-2159380D01*
G01X8957080Y-1778550D02*
X8950730Y-1788200D01*
X8946500Y-1799460D01*
Y-1812330D01*
X8952850Y-1826810D01*
X8963430Y-1838070D01*
X8976130Y-1846110D01*
X8997300Y-1852550D01*
X9016350Y-1854160D01*
X9035400Y-1850940D01*
X9048100Y-1846110D01*
X9060800Y-1836460D01*
X9069270Y-1825200D01*
X9073500Y-1813940D01*
Y-1802680D01*
X9069270Y-1791420D01*
X9062920Y-1781770D01*
X9054450Y-1773720D01*
G01X8967670Y-1714970D02*
X8954970Y-1705310D01*
X8948620Y-1694050D01*
X8946500Y-1681180D01*
X8950730Y-1665100D01*
X8961320Y-1653830D01*
X8974010Y-1650620D01*
X8986720Y-1652230D01*
X8997300Y-1658660D01*
X9018470Y-1690830D01*
X9033280Y-1705310D01*
X9054450Y-1714970D01*
X9073500Y-1718180D01*
Y-1650620D01*
G01X8520050Y-1147480D02*
X8393050D01*
Y-1115310D01*
X8399400Y-1102440D01*
X8407870Y-1092790D01*
X8420560Y-1084740D01*
X8435390Y-1078310D01*
X8456550Y-1076700D01*
X8477720Y-1078310D01*
X8492540Y-1084740D01*
X8505240Y-1092790D01*
X8513700Y-1102440D01*
X8520050Y-1115310D01*
Y-1147480D01*
G01Y-1017940D02*
X8393050D01*
Y-985770D01*
X8399400Y-972900D01*
X8407870Y-963250D01*
X8420560Y-955200D01*
X8435390Y-948770D01*
X8456550Y-947160D01*
X8477720Y-948770D01*
X8492540Y-955200D01*
X8505240Y-963250D01*
X8513700Y-972900D01*
X8520050Y-985770D01*
Y-1017940D01*
G01Y-853010D02*
X8393050D01*
X8418450Y-872310D01*
G01X8520050D02*
Y-833710D01*
G01X8678750Y-1149500D02*
X8841250D01*
G01X8991450Y-707080D02*
X8981800Y-700730D01*
X8970540Y-696500D01*
X8957670D01*
X8943190Y-702850D01*
X8931930Y-713430D01*
X8923890Y-726130D01*
X8917450Y-747300D01*
X8915840Y-766350D01*
X8919060Y-785400D01*
X8923890Y-798100D01*
X8933540Y-810800D01*
X8944800Y-819270D01*
X8956060Y-823500D01*
X8967320D01*
X8978580Y-819270D01*
X8988230Y-812920D01*
X8996280Y-804450D01*
G01X9055030Y-770590D02*
X9066300Y-755770D01*
X9075950Y-747300D01*
X9088820Y-743070D01*
X9100080Y-747300D01*
X9108120Y-755770D01*
X9114560Y-768470D01*
X9116170Y-783280D01*
X9114560Y-795990D01*
X9108120Y-808690D01*
X9098470Y-819270D01*
X9087210Y-823500D01*
X9074340Y-819270D01*
X9063080Y-806570D01*
X9056640Y-787520D01*
X9055030Y-766350D01*
X9058250Y-738840D01*
X9063080Y-724010D01*
X9071120Y-709200D01*
X9082380Y-698620D01*
X9093640Y-696500D01*
X9104900Y-700730D01*
X9112950Y-711320D01*
G01X8678750Y-835500D02*
X8841250D01*
G01X8640620Y-704120D02*
X8879380D01*
X8894620Y-719360D01*
Y-800640D01*
X8879380Y-815880D01*
X8640620D01*
X8625380Y-800640D01*
Y-719360D01*
X8640620Y-704120D01*
G01X9371130Y-7412270D02*
X9377560Y-7405920D01*
X9382390Y-7395340D01*
X9385610Y-7380510D01*
X9382390Y-7367820D01*
X9375960Y-7359350D01*
X9364690Y-7353000D01*
X9321260D01*
Y-7480000D01*
X9374350D01*
X9385610Y-7471540D01*
X9392040Y-7458830D01*
X9395260Y-7444020D01*
X9392040Y-7429200D01*
X9382390Y-7416500D01*
X9371130Y-7412270D01*
X9321260D01*
G01X9452410Y-7353000D02*
Y-7444020D01*
X9458840Y-7463070D01*
X9471710Y-7475770D01*
X9487800Y-7480000D01*
X9503890Y-7475770D01*
X9516760Y-7463070D01*
X9523190Y-7444020D01*
Y-7353000D01*
G01X9617340D02*
Y-7480000D01*
G01X9580340Y-7353000D02*
X9654340D01*
G01X9746880Y-7480000D02*
Y-7353000D01*
X9727580Y-7378400D01*
G01Y-7480000D02*
X9766180D01*
G01X9371130Y-6862270D02*
X9377560Y-6855920D01*
X9382390Y-6845340D01*
X9385610Y-6830510D01*
X9382390Y-6817820D01*
X9375960Y-6809350D01*
X9364690Y-6803000D01*
X9321260D01*
Y-6930000D01*
X9374350D01*
X9385610Y-6921540D01*
X9392040Y-6908830D01*
X9395260Y-6894020D01*
X9392040Y-6879200D01*
X9382390Y-6866500D01*
X9371130Y-6862270D01*
X9321260D01*
G01X9452410Y-6803000D02*
Y-6894020D01*
X9458840Y-6913070D01*
X9471710Y-6925770D01*
X9487800Y-6930000D01*
X9503890Y-6925770D01*
X9516760Y-6913070D01*
X9523190Y-6894020D01*
Y-6803000D01*
G01X9617340D02*
Y-6930000D01*
G01X9580340Y-6803000D02*
X9654340D01*
G01X9716310Y-6824170D02*
X9725970Y-6811470D01*
X9737230Y-6805120D01*
X9750100Y-6803000D01*
X9766180Y-6807230D01*
X9777450Y-6817820D01*
X9780660Y-6830510D01*
X9779050Y-6843220D01*
X9772620Y-6853800D01*
X9740450Y-6874970D01*
X9725970Y-6889780D01*
X9716310Y-6910950D01*
X9713100Y-6930000D01*
X9780660D01*
G01X9311130Y-5372270D02*
X9317560Y-5365920D01*
X9322390Y-5355340D01*
X9325610Y-5340510D01*
X9322390Y-5327820D01*
X9315960Y-5319350D01*
X9304690Y-5313000D01*
X9261260D01*
Y-5440000D01*
X9314350D01*
X9325610Y-5431540D01*
X9332040Y-5418830D01*
X9335260Y-5404020D01*
X9332040Y-5389200D01*
X9322390Y-5376500D01*
X9311130Y-5372270D01*
X9261260D01*
G01X9392410Y-5313000D02*
Y-5404020D01*
X9398840Y-5423070D01*
X9411710Y-5435770D01*
X9427800Y-5440000D01*
X9443890Y-5435770D01*
X9456760Y-5423070D01*
X9463190Y-5404020D01*
Y-5313000D01*
G01X9557340D02*
Y-5440000D01*
G01X9520340Y-5313000D02*
X9594340D01*
G01X9686880D02*
Y-5440000D01*
G01X9649880Y-5313000D02*
X9723880D01*
G01X9816420Y-5440000D02*
X9803550Y-5437880D01*
X9792290Y-5429420D01*
X9782640Y-5416720D01*
X9776200Y-5401900D01*
X9772980Y-5384970D01*
Y-5368030D01*
X9776200Y-5351100D01*
X9782640Y-5336280D01*
X9792290Y-5323580D01*
X9803550Y-5315120D01*
X9816420Y-5313000D01*
X9829290Y-5315120D01*
X9840550Y-5323580D01*
X9850200Y-5336280D01*
X9856640Y-5351100D01*
X9859860Y-5368030D01*
Y-5384970D01*
X9856640Y-5401900D01*
X9850200Y-5416720D01*
X9840550Y-5429420D01*
X9829290Y-5437880D01*
X9816420Y-5440000D01*
G01X9908960D02*
Y-5313000D01*
X9982960Y-5440000D01*
Y-5313000D01*
G01X9298260Y-5600020D02*
X9285390Y-5597900D01*
X9274130Y-5589440D01*
X9264480Y-5576740D01*
X9258040Y-5561920D01*
X9254820Y-5544990D01*
Y-5528050D01*
X9258040Y-5511120D01*
X9264480Y-5496300D01*
X9274130Y-5483600D01*
X9285390Y-5475140D01*
X9298260Y-5473020D01*
X9311130Y-5475140D01*
X9322390Y-5483600D01*
X9332040Y-5496300D01*
X9338480Y-5511120D01*
X9341700Y-5528050D01*
Y-5544990D01*
X9338480Y-5561920D01*
X9332040Y-5576740D01*
X9322390Y-5589440D01*
X9311130Y-5597900D01*
X9298260Y-5600020D01*
G01X9390800D02*
Y-5473020D01*
X9464800Y-5600020D01*
Y-5473020D01*
G01X9528380Y-5604250D02*
X9586300Y-5473020D01*
G01X9686880Y-5600020D02*
X9674010Y-5597900D01*
X9662750Y-5589440D01*
X9653100Y-5576740D01*
X9646660Y-5561920D01*
X9643440Y-5544990D01*
Y-5528050D01*
X9646660Y-5511120D01*
X9653100Y-5496300D01*
X9662750Y-5483600D01*
X9674010Y-5475140D01*
X9686880Y-5473020D01*
X9699750Y-5475140D01*
X9711010Y-5483600D01*
X9720660Y-5496300D01*
X9727100Y-5511120D01*
X9730320Y-5528050D01*
Y-5544990D01*
X9727100Y-5561920D01*
X9720660Y-5576740D01*
X9711010Y-5589440D01*
X9699750Y-5597900D01*
X9686880Y-5600020D01*
G01X9785850D02*
Y-5473020D01*
X9846990D01*
G01X9824460Y-5534400D02*
X9785850D01*
G01X9915390Y-5600020D02*
Y-5473020D01*
X9976530D01*
G01X9954000Y-5534400D02*
X9915390D01*
G01X9183050Y-4419810D02*
X9310050Y-4379590D01*
X9183050Y-4339370D01*
G01Y-4250050D02*
X9310050D01*
G01X9183050Y-4287050D02*
Y-4213050D01*
G01X9310050Y-4123730D02*
X9282540Y-4120510D01*
X9259250Y-4115680D01*
X9238080Y-4109250D01*
X9214800Y-4101210D01*
X9183050Y-4088340D01*
Y-4152680D01*
G01X9535850Y-4440080D02*
X9526200Y-4433730D01*
X9514940Y-4429500D01*
X9502070D01*
X9487590Y-4435850D01*
X9476330Y-4446430D01*
X9468290Y-4459130D01*
X9461850Y-4480300D01*
X9460240Y-4499350D01*
X9463460Y-4518400D01*
X9468290Y-4531100D01*
X9477940Y-4543800D01*
X9489200Y-4552270D01*
X9500460Y-4556500D01*
X9511720D01*
X9522980Y-4552270D01*
X9532630Y-4545920D01*
X9540680Y-4537450D01*
G01X9594610Y-4531100D02*
X9604260Y-4545920D01*
X9617130Y-4554380D01*
X9631610Y-4556500D01*
X9644480Y-4554380D01*
X9657350Y-4543800D01*
X9665390Y-4531100D01*
X9667000Y-4518400D01*
X9663780Y-4503590D01*
X9652520Y-4493000D01*
X9641260Y-4488770D01*
X9626780D01*
G01X9641260D02*
X9650910Y-4482420D01*
X9658960Y-4471840D01*
X9662170Y-4459130D01*
X9658960Y-4446430D01*
X9650910Y-4435850D01*
X9636430Y-4429500D01*
X9621960Y-4431620D01*
X9607480Y-4440080D01*
G01X9728970Y-4450670D02*
X9738630Y-4437970D01*
X9749890Y-4431620D01*
X9762760Y-4429500D01*
X9778840Y-4433730D01*
X9790110Y-4444320D01*
X9793320Y-4457010D01*
X9791710Y-4469720D01*
X9785280Y-4480300D01*
X9753110Y-4501470D01*
X9738630Y-4516280D01*
X9728970Y-4537450D01*
X9725760Y-4556500D01*
X9793320D01*
G01X9429380Y-4555880D02*
X9190620D01*
X9175380Y-4540640D01*
Y-4459360D01*
X9190620Y-4444120D01*
X9429380D01*
X9444620Y-4459360D01*
Y-4540640D01*
X9429380Y-4555880D01*
G01X9063020Y-3938620D02*
X9190020Y-3898400D01*
X9063020Y-3858180D01*
G01Y-3768860D02*
X9190020D01*
G01X9063020Y-3805860D02*
Y-3731860D01*
G01X9170970Y-3674710D02*
X9181560Y-3665060D01*
X9187900Y-3653800D01*
X9190020Y-3639320D01*
X9185790Y-3624840D01*
X9177320Y-3613580D01*
X9162510Y-3605540D01*
X9145570Y-3603930D01*
X9128640Y-3607150D01*
X9118050Y-3615190D01*
X9109590Y-3626450D01*
X9107470Y-3637710D01*
X9109590Y-3648970D01*
X9118050Y-3663450D01*
X9063020Y-3658620D01*
Y-3615190D01*
G01X9123110Y-3152620D02*
X9113460Y-3146270D01*
X9102200Y-3142040D01*
X9089330D01*
X9074850Y-3148390D01*
X9063590Y-3158970D01*
X9055550Y-3171670D01*
X9049110Y-3192840D01*
X9047500Y-3211890D01*
X9050720Y-3230940D01*
X9055550Y-3243640D01*
X9065200Y-3256340D01*
X9076460Y-3264810D01*
X9087720Y-3269040D01*
X9098980D01*
X9110240Y-3264810D01*
X9119890Y-3258460D01*
X9127940Y-3249990D01*
G01X9186690Y-3163210D02*
X9196350Y-3150510D01*
X9207610Y-3144160D01*
X9220480Y-3142040D01*
X9236560Y-3146270D01*
X9247830Y-3156860D01*
X9251040Y-3169550D01*
X9249430Y-3182260D01*
X9243000Y-3192840D01*
X9210830Y-3214010D01*
X9196350Y-3228820D01*
X9186690Y-3249990D01*
X9183480Y-3269040D01*
X9251040D01*
G01X9343580D02*
X9346800Y-3241530D01*
X9351630Y-3218240D01*
X9358060Y-3197070D01*
X9366100Y-3173790D01*
X9378970Y-3142040D01*
X9314630D01*
G01X9712400Y-3258900D02*
X9407600D01*
X9389820Y-3241120D01*
Y-3098880D01*
X9407600Y-3081100D01*
X9712400D01*
X9730180Y-3098880D01*
Y-3241120D01*
X9712400Y-3258900D01*
G01X9323490Y-2746500D02*
Y-2619500D01*
X9363700D01*
X9376570Y-2625850D01*
X9384620Y-2634320D01*
X9387830Y-2651250D01*
X9384620Y-2668180D01*
X9374960Y-2678770D01*
X9363700Y-2685120D01*
X9323490D01*
G01X9363700D02*
X9387830Y-2746500D01*
G01X9449810Y-2727450D02*
X9459460Y-2738040D01*
X9470720Y-2744380D01*
X9485200Y-2746500D01*
X9499680Y-2742270D01*
X9510940Y-2733800D01*
X9518980Y-2718990D01*
X9520590Y-2702050D01*
X9517370Y-2685120D01*
X9509330Y-2674530D01*
X9498070Y-2666070D01*
X9486810Y-2663950D01*
X9475550Y-2666070D01*
X9461070Y-2674530D01*
X9465900Y-2619500D01*
X9509330D01*
G01X9614740Y-2746500D02*
X9626000Y-2744380D01*
X9638870Y-2738040D01*
X9646910Y-2727450D01*
X9650130Y-2712630D01*
X9646910Y-2697820D01*
X9637260Y-2685120D01*
X9622780Y-2678770D01*
X9606700D01*
X9597040Y-2674530D01*
X9589000Y-2663950D01*
X9585780Y-2649130D01*
X9590610Y-2634320D01*
X9601870Y-2623730D01*
X9614740Y-2619500D01*
X9627610Y-2623730D01*
X9638870Y-2634320D01*
X9643700Y-2649130D01*
X9640480Y-2663950D01*
X9632440Y-2674530D01*
X9622780Y-2678770D01*
X9606700D01*
X9592220Y-2685120D01*
X9582570Y-2697820D01*
X9579350Y-2712630D01*
X9582570Y-2727450D01*
X9590610Y-2738040D01*
X9603480Y-2744380D01*
X9614740Y-2746500D01*
G01X9331600Y-1749020D02*
X9313820Y-1731240D01*
X9146180D01*
X9128400Y-1749020D01*
Y-2190980D01*
X9146180Y-2208760D01*
X9313820D01*
X9331600Y-2190980D01*
Y-1749020D01*
G01X9208900Y-2247600D02*
Y-2552400D01*
X9191120Y-2570180D01*
X9048880D01*
X9031100Y-2552400D01*
Y-2247600D01*
X9048880Y-2229820D01*
X9191120D01*
X9208900Y-2247600D01*
G01X9465780Y-2152850D02*
X9459430Y-2162500D01*
X9455200Y-2173760D01*
Y-2186630D01*
X9461550Y-2201110D01*
X9472130Y-2212370D01*
X9484830Y-2220410D01*
X9506000Y-2226850D01*
X9525050Y-2228460D01*
X9544100Y-2225240D01*
X9556800Y-2220410D01*
X9569500Y-2210760D01*
X9577970Y-2199500D01*
X9582200Y-2188240D01*
Y-2176980D01*
X9577970Y-2165720D01*
X9571620Y-2156070D01*
X9563150Y-2148020D01*
G01Y-2094090D02*
X9573740Y-2084440D01*
X9580080Y-2073180D01*
X9582200Y-2058700D01*
X9577970Y-2044220D01*
X9569500Y-2032960D01*
X9554690Y-2024920D01*
X9537750Y-2023310D01*
X9520820Y-2026530D01*
X9510230Y-2034570D01*
X9501770Y-2045830D01*
X9499650Y-2057090D01*
X9501770Y-2068350D01*
X9510230Y-2082830D01*
X9455200Y-2078000D01*
Y-2034570D01*
G01X9569380Y-2355880D02*
X9330620D01*
X9315380Y-2340640D01*
Y-2259360D01*
X9330620Y-2244120D01*
X9569380D01*
X9584620Y-2259360D01*
Y-2340640D01*
X9569380Y-2355880D01*
G01X9550180Y-2598900D02*
X9209820D01*
Y-2421100D01*
X9550180D01*
Y-2598900D01*
G01X9286500Y-1688410D02*
X9159500D01*
Y-1627270D01*
G01X9220880Y-1649800D02*
Y-1688410D01*
G01X9159500Y-1563690D02*
X9250520D01*
X9269570Y-1557260D01*
X9282270Y-1544390D01*
X9286500Y-1528300D01*
X9282270Y-1512210D01*
X9269570Y-1499340D01*
X9250520Y-1492910D01*
X9159500D01*
G01X9286500Y-1398760D02*
X9159500D01*
X9184900Y-1418060D01*
G01X9286500D02*
Y-1379460D01*
G01X9091300Y-1331750D02*
X9158860Y-1204750D01*
G01X9091300D02*
X9158860Y-1331750D01*
G01X9220840Y-1314820D02*
X9233710Y-1325400D01*
X9248190Y-1331750D01*
X9261050D01*
X9273920Y-1325400D01*
X9283580Y-1314820D01*
X9288400Y-1300000D01*
X9285190Y-1285190D01*
X9277140Y-1272480D01*
X9262660Y-1264020D01*
X9243360Y-1259780D01*
X9232100Y-1251320D01*
X9227270Y-1236500D01*
X9230490Y-1221680D01*
X9238530Y-1211100D01*
X9249790Y-1204750D01*
X9261050D01*
X9272320Y-1208980D01*
X9281970Y-1219570D01*
G01X9384160Y-1331750D02*
Y-1204750D01*
X9364860Y-1230150D01*
G01Y-1331750D02*
X9403460D01*
G01X9249020Y-658400D02*
X9231240Y-676180D01*
Y-843820D01*
X9249020Y-861600D01*
X9690980D01*
X9708760Y-843820D01*
Y-676180D01*
X9690980Y-658400D01*
X9249020D01*
G01X9375480Y-1057080D02*
X9415700Y-1184080D01*
X9455920Y-1057080D01*
G01X9509850Y-1184080D02*
Y-1057080D01*
X9542020D01*
X9554890Y-1063430D01*
X9564540Y-1071900D01*
X9572590Y-1084590D01*
X9579020Y-1099420D01*
X9580630Y-1120580D01*
X9579020Y-1141750D01*
X9572590Y-1156570D01*
X9564540Y-1169270D01*
X9554890Y-1177730D01*
X9542020Y-1184080D01*
X9509850D01*
G01X9647430Y-1169270D02*
X9658690Y-1179850D01*
X9671560Y-1184080D01*
X9684430Y-1179850D01*
X9695690Y-1167150D01*
X9703740Y-1148100D01*
X9706950Y-1129050D01*
Y-1105760D01*
X9703740Y-1086710D01*
X9695690Y-1069780D01*
X9686040Y-1061310D01*
X9674780Y-1057080D01*
X9661910Y-1061310D01*
X9652260Y-1069780D01*
X9645820Y-1082480D01*
X9642610Y-1099420D01*
X9645820Y-1114230D01*
X9653870Y-1129050D01*
X9663520Y-1137520D01*
X9674780Y-1139630D01*
X9687650Y-1135400D01*
X9697300Y-1124810D01*
X9706950Y-1105760D01*
G01X9654300Y-1006000D02*
X9664460D01*
Y-879000D01*
X9654300D01*
Y-1006000D01*
X9425700D01*
Y-879000D01*
X9654300D01*
G01X9921580Y-2412030D02*
X9794580D01*
Y-2371820D01*
X9800930Y-2358950D01*
X9809400Y-2350900D01*
X9826330Y-2347690D01*
X9843260Y-2350900D01*
X9853850Y-2360560D01*
X9860200Y-2371820D01*
Y-2412030D01*
G01Y-2371820D02*
X9921580Y-2347690D01*
G01Y-2231020D02*
X9794580D01*
X9885600Y-2290540D01*
Y-2210100D01*
G01X9868670Y-2151350D02*
X9853850Y-2140080D01*
X9845380Y-2130430D01*
X9841150Y-2117560D01*
X9845380Y-2106300D01*
X9853850Y-2098260D01*
X9866550Y-2091820D01*
X9881360Y-2090210D01*
X9894070Y-2091820D01*
X9906770Y-2098260D01*
X9917350Y-2107910D01*
X9921580Y-2119170D01*
X9917350Y-2132040D01*
X9904650Y-2143300D01*
X9885600Y-2149740D01*
X9864430Y-2151350D01*
X9836920Y-2148130D01*
X9822090Y-2143300D01*
X9807280Y-2135260D01*
X9796700Y-2124000D01*
X9794580Y-2112740D01*
X9798810Y-2101480D01*
X9809400Y-2093430D01*
G01X9908420Y-2442840D02*
Y-2717160D01*
X9791580D01*
Y-2442840D01*
X9908420D01*
G01X9771580Y-2412030D02*
X9644580D01*
Y-2371820D01*
X9650930Y-2358950D01*
X9659400Y-2350900D01*
X9676330Y-2347690D01*
X9693260Y-2350900D01*
X9703850Y-2360560D01*
X9710200Y-2371820D01*
Y-2412030D01*
G01Y-2371820D02*
X9771580Y-2347690D01*
G01Y-2231020D02*
X9644580D01*
X9735600Y-2290540D01*
Y-2210100D01*
G01X9771580Y-2124000D02*
X9744070Y-2120780D01*
X9720780Y-2115950D01*
X9699610Y-2109520D01*
X9676330Y-2101480D01*
X9644580Y-2088610D01*
Y-2152950D01*
G01X9778420Y-2442840D02*
Y-2717160D01*
X9661580D01*
Y-2442840D01*
X9778420D01*
G01X9908300Y-933610D02*
X9781300D01*
Y-872470D01*
G01X9842680Y-895000D02*
Y-933610D01*
G01X9781300Y-808890D02*
X9872320D01*
X9891370Y-802460D01*
X9904070Y-789590D01*
X9908300Y-773500D01*
X9904070Y-757410D01*
X9891370Y-744540D01*
X9872320Y-738110D01*
X9781300D01*
G01X9802470Y-674530D02*
X9789770Y-664870D01*
X9783420Y-653610D01*
X9781300Y-640740D01*
X9785530Y-624660D01*
X9796120Y-613390D01*
X9808810Y-610180D01*
X9821520Y-611790D01*
X9832100Y-618220D01*
X9853270Y-650390D01*
X9868080Y-664870D01*
X9889250Y-674530D01*
X9908300Y-677740D01*
Y-610180D01*
G01X9664460Y-1006000D02*
X9674620D01*
Y-879000D01*
X9664460D01*
G54D17*
G01X7678390Y-3676800D02*
G03I-20470J0D01*
G54D18*
G01X7186210Y-4688290D02*
X7293790D01*
G01Y-4111710D02*
X7186210D01*
G54D19*
G01X0Y0D02*
X10000000D01*
Y-10000000D01*
X0D01*
Y0D01*
M02*
